{"glyphs":{"0":{"ha":543,"x_min":8,"x_max":561,"o":"m 221 -18 q 100 11 150 -17 q 29 100 50 39 q 22 267 8 161 l 68 590 q 160 772 85 714 q 343 831 235 831 q 504 772 447 831 q 544 590 561 714 l 499 268 q 444 99 483 161 q 349 9 406 36 q 221 -18 292 -18 m 236 94 q 272 111 257 94 q 292 164 288 128 l 360 647 q 354 699 364 683 q 324 715 344 715 q 290 699 306 715 q 268 647 274 683 l 200 164 q 206 111 196 128 q 236 94 217 94 z "},"1":{"ha":399,"x_min":50,"x_max":419,"o":"m 111 0 l 194 592 l 50 592 l 65 700 l 92 701 q 182 735 146 707 q 251 821 218 763 l 419 821 l 303 0 l 111 0 z "},"2":{"ha":546,"x_min":-24,"x_max":568,"o":"m -24 0 q -10 85 -17 43 q 1 169 -4 128 q 36 294 13 249 q 102 368 60 339 q 210 428 144 397 q 272 458 242 442 q 325 503 303 475 q 354 575 347 531 l 357 597 q 356 662 361 636 q 322 688 350 688 q 279 658 293 688 q 257 567 265 628 l 249 514 l 57 514 l 72 625 q 156 774 88 725 q 344 824 224 824 q 488 801 438 824 q 553 726 538 778 q 557 590 568 675 q 527 478 547 525 q 473 396 507 431 q 385 335 439 361 q 324 303 353 318 q 274 273 296 289 q 235 235 251 257 q 213 200 222 219 q 199 156 204 181 l 496 156 l 474 0 l -24 0 z "},"3":{"ha":538,"x_min":-10,"x_max":565,"o":"m 215 -8 q 82 15 133 -8 q 10 83 31 38 q -1 192 -10 128 l 14 292 l 207 292 l 200 250 q 197 158 192 189 q 233 128 203 128 q 274 153 260 128 q 293 217 288 178 l 306 297 q 285 350 310 336 q 204 365 260 364 l 144 365 l 160 468 l 221 468 q 266 473 246 468 q 301 488 286 478 q 328 511 321 497 q 338 542 336 525 l 347 601 q 345 663 351 638 q 311 688 339 688 q 267 657 281 688 q 246 568 254 626 l 243 542 l 50 542 l 61 626 q 142 774 75 724 q 332 824 210 824 q 515 780 464 824 q 553 643 565 736 l 543 571 q 492 458 533 501 q 379 411 450 415 q 477 367 446 408 q 499 256 508 326 l 490 192 q 449 76 481 119 q 361 12 418 32 q 215 -8 304 -8 z "},"4":{"ha":553,"x_min":-18,"x_max":533,"o":"m 215 0 l 238 158 l -18 158 l 3 313 l 333 821 l 524 821 l 449 286 l 533 286 l 515 158 l 429 158 l 407 0 l 215 0 m 150 286 l 256 286 l 286 503 l 150 286 z "},"5":{"ha":544,"x_min":-4,"x_max":569,"o":"m 224 -11 q 80 6 131 -11 q 13 69 29 22 q 8 206 -4 117 l 19 288 l 213 288 l 204 221 q 206 147 196 165 q 242 128 215 128 q 281 148 267 128 q 303 222 294 168 l 322 365 q 324 402 325 385 q 314 430 322 419 q 285 440 306 440 q 246 425 261 440 q 226 383 231 410 l 33 383 l 96 821 l 569 821 l 550 685 l 267 685 l 242 511 q 288 549 256 529 q 382 568 319 568 q 507 533 474 568 q 528 413 540 497 l 497 197 q 454 72 488 117 q 364 8 421 26 q 224 -11 307 -11 z "},"6":{"ha":546,"x_min":4,"x_max":564,"o":"m 219 -15 q 96 9 146 -15 q 25 85 46 33 q 15 214 4 136 l 74 631 q 160 781 89 732 q 340 829 232 829 q 509 782 454 829 q 549 632 564 735 l 540 575 l 350 575 l 360 654 q 356 699 365 686 q 325 713 347 713 q 288 698 303 713 q 268 653 274 683 l 244 474 q 308 515 269 503 q 382 528 346 528 q 492 494 451 528 q 524 392 533 461 l 494 190 q 449 79 486 125 q 354 9 413 33 q 219 -15 296 -15 m 240 97 q 277 111 261 97 q 299 158 293 125 l 326 360 q 314 399 331 390 q 281 408 297 408 q 249 399 263 408 q 231 374 235 389 l 200 158 q 208 112 196 126 q 240 97 219 97 z "},"7":{"ha":471,"x_min":-11,"x_max":519,"o":"m -11 0 l 308 686 l 57 686 l 76 821 l 519 821 l 500 683 l 181 0 l -11 0 z "},"8":{"ha":535,"x_min":-3,"x_max":557,"o":"m 221 -11 q 89 13 140 -11 q 17 82 38 36 q 6 194 -3 128 l 13 244 q 29 320 18 286 q 63 378 40 354 q 115 413 81 397 q 203 431 149 428 q 128 438 150 429 q 88 465 106 447 q 66 531 65 489 q 72 614 67 572 l 78 649 q 113 747 86 708 q 193 805 139 786 q 338 824 247 824 q 476 805 428 824 q 541 747 525 786 q 549 649 557 708 l 543 614 q 521 526 536 565 q 472 464 506 488 q 379 431 439 440 q 457 409 431 428 q 493 363 483 390 q 501 303 503 335 q 494 242 499 271 l 488 192 q 449 90 481 136 q 361 17 417 44 q 221 -11 306 -11 m 232 97 q 273 114 260 97 q 289 157 286 131 l 307 285 q 304 330 311 313 q 267 347 297 347 q 226 326 238 347 q 210 283 214 306 l 192 157 q 197 115 189 132 q 232 97 204 99 m 286 492 q 324 508 307 492 q 346 564 340 525 l 356 638 q 355 697 361 672 q 321 722 349 722 q 278 697 290 722 q 261 640 265 671 l 250 567 q 256 508 244 525 q 286 492 268 492 z "},"9":{"ha":544,"x_min":-3,"x_max":557,"o":"m 221 -17 q 51 31 106 -17 q 11 181 -3 78 l 22 253 l 214 253 l 200 158 q 205 113 196 126 q 236 100 214 100 q 273 115 258 100 q 292 160 288 129 l 319 351 q 256 310 294 322 q 181 297 218 297 q 101 315 135 297 q 52 374 67 332 q 47 488 38 415 l 65 622 q 112 734 75 689 q 208 803 149 779 q 340 828 267 828 q 465 803 415 828 q 536 728 515 779 q 546 599 557 678 l 488 182 q 401 32 474 81 q 221 -17 329 -17 m 281 415 q 313 426 299 415 q 333 450 328 436 l 361 654 q 353 701 365 686 q 321 715 342 715 q 283 701 300 715 q 263 654 267 688 l 236 465 q 249 426 232 435 q 281 415 265 417 z "},"\r":{"ha":833,"x_min":0,"x_max":0,"o":""}," ":{"ha":218,"x_min":0,"x_max":0,"o":""}," ":{"ha":218,"x_min":0,"x_max":0,"o":""},"A":{"ha":561,"x_min":-47,"x_max":494,"o":"m -47 0 l 201 821 l 482 821 l 494 0 l 278 0 l 281 135 l 197 135 l 161 0 l -47 0 m 211 229 l 292 229 l 313 661 l 211 229 z "},"А":{"ha":561,"x_min":-47,"x_max":494,"o":"m -47 0 l 201 821 l 482 821 l 494 0 l 278 0 l 281 135 l 197 135 l 161 0 l -47 0 m 211 229 l 292 229 l 313 661 l 211 229 z "},"Æ":{"ha":794,"x_min":-49,"x_max":804,"o":"m -49 0 l 299 821 l 804 821 l 785 686 l 564 686 l 540 497 l 738 497 l 715 346 l 521 346 l 494 132 l 724 132 l 704 0 l 263 0 l 285 135 l 211 135 l 160 0 l -49 0 m 238 229 l 308 229 l 385 631 l 392 661 l 381 631 l 238 229 z "},"Á":{"ha":561,"x_min":-47,"x_max":544,"o":"m -47 0 l 201 821 l 482 821 l 494 0 l 278 0 l 281 135 l 197 135 l 161 0 l -47 0 m 211 229 l 292 229 l 313 661 l 211 229 m 249 882 l 375 1018 l 544 1018 l 353 882 l 249 882 z "},"Ă":{"ha":561,"x_min":-47,"x_max":542,"o":"m -47 0 l 201 821 l 482 821 l 494 0 l 278 0 l 281 135 l 197 135 l 161 0 l -47 0 m 211 229 l 292 229 l 313 661 l 211 229 m 353 876 q 269 891 300 876 q 226 928 239 906 q 210 976 213 951 q 210 1021 207 1000 l 311 1021 q 325 978 307 993 q 367 964 343 964 q 413 978 393 964 q 440 1021 433 992 l 542 1021 q 515 949 536 982 q 453 896 493 915 q 353 876 413 876 z "},"Ắ":{"ha":561,"x_min":-47,"x_max":533,"o":"m -47 0 l 201 821 l 482 821 l 494 0 l 278 0 l 281 135 l 197 135 l 161 0 l -47 0 m 211 229 l 292 229 l 313 661 l 211 229 m 353 878 q 269 897 294 878 q 240 942 244 915 q 239 990 236 968 l 338 990 q 344 969 333 976 q 365 963 354 963 q 390 969 378 963 q 404 990 401 976 l 503 990 q 460 909 497 940 q 353 878 424 878 m 294 1026 l 358 1135 l 533 1135 l 413 1026 l 294 1026 z "},"Ặ":{"ha":561,"x_min":-47,"x_max":542,"o":"m -47 0 l 201 821 l 482 821 l 494 0 l 278 0 l 281 135 l 197 135 l 161 0 l -47 0 m 211 229 l 292 229 l 313 661 l 211 229 m 208 -192 q 155 -171 176 -192 q 133 -119 133 -150 q 155 -69 133 -89 q 208 -49 176 -49 q 261 -69 240 -49 q 282 -119 282 -89 q 261 -171 282 -150 q 208 -192 240 -192 m 353 876 q 269 891 300 876 q 226 928 239 906 q 210 976 213 951 q 210 1021 207 1000 l 311 1021 q 325 978 307 993 q 367 964 343 964 q 413 978 393 964 q 440 1021 433 992 l 542 1021 q 515 949 536 982 q 453 896 493 915 q 353 876 413 876 z "},"Ằ":{"ha":561,"x_min":-47,"x_max":503,"o":"m -47 0 l 201 821 l 482 821 l 494 0 l 278 0 l 281 135 l 197 135 l 161 0 l -47 0 m 211 229 l 292 229 l 313 661 l 211 229 m 353 878 q 271 897 296 878 q 242 942 246 915 q 239 990 238 968 l 338 990 q 345 969 335 976 q 367 963 356 963 q 392 969 381 963 q 406 990 403 976 l 503 990 q 461 909 497 940 q 353 878 425 878 m 321 1026 l 224 1135 l 397 1135 l 439 1026 l 321 1026 z "},"Ẳ":{"ha":561,"x_min":-47,"x_max":503,"o":"m -47 0 l 201 821 l 482 821 l 494 0 l 278 0 l 281 135 l 197 135 l 161 0 l -47 0 m 211 229 l 292 229 l 313 661 l 211 229 m 353 878 q 269 897 294 878 q 240 942 244 915 q 239 990 236 968 l 338 990 q 344 969 333 976 q 365 963 354 963 q 390 969 378 963 q 404 990 401 976 l 503 990 q 460 909 497 940 q 353 878 424 878 m 325 1011 l 328 1035 q 339 1057 331 1050 q 356 1069 347 1064 q 367 1082 365 1074 l 369 1096 q 371 1103 371 1101 q 367 1106 371 1106 q 360 1088 361 1106 l 282 1099 q 385 1169 292 1169 q 456 1149 433 1169 q 478 1092 478 1129 l 478 1086 q 464 1056 472 1064 q 448 1047 456 1047 q 434 1044 440 1046 q 426 1028 428 1042 l 424 1011 l 325 1011 z "},"Ẵ":{"ha":561,"x_min":-47,"x_max":522,"o":"m -47 0 l 201 821 l 482 821 l 494 0 l 278 0 l 281 135 l 197 135 l 161 0 l -47 0 m 211 229 l 292 229 l 313 661 l 211 229 m 353 878 q 271 897 296 878 q 242 942 246 915 q 239 990 238 968 l 338 990 q 345 969 335 976 q 367 963 356 963 q 392 969 381 963 q 406 990 403 976 l 503 990 q 461 909 497 940 q 353 878 425 878 m 424 1019 q 391 1026 407 1019 q 360 1042 375 1033 q 341 1051 351 1047 q 315 1056 331 1056 q 294 1044 303 1056 q 285 1021 286 1032 l 238 1021 q 269 1105 244 1072 q 328 1138 294 1138 q 363 1133 347 1138 q 392 1119 378 1128 q 413 1110 401 1114 q 436 1106 425 1106 q 460 1116 453 1106 q 469 1135 468 1126 l 522 1135 q 482 1048 514 1076 q 424 1019 450 1019 z "},"Ǎ":{"ha":561,"x_min":-47,"x_max":565,"o":"m -47 0 l 201 821 l 482 821 l 494 0 l 278 0 l 281 135 l 197 135 l 161 0 l -47 0 m 211 229 l 292 229 l 313 661 l 211 229 m 303 876 l 186 1022 l 306 1022 l 368 958 l 449 1021 l 565 1021 l 406 876 l 303 876 z "},"Â":{"ha":561,"x_min":-47,"x_max":544,"o":"m -47 0 l 201 821 l 482 821 l 494 0 l 278 0 l 281 135 l 197 135 l 161 0 l -47 0 m 211 229 l 292 229 l 313 661 l 211 229 m 167 876 l 325 1022 l 428 1022 l 544 878 l 428 878 l 365 942 l 285 876 l 167 876 z "},"Ấ":{"ha":561,"x_min":-47,"x_max":733,"o":"m -47 0 l 201 821 l 482 821 l 494 0 l 278 0 l 281 135 l 197 135 l 161 0 l -47 0 m 211 229 l 292 229 l 313 661 l 211 229 m 206 868 l 322 990 l 419 990 l 504 868 l 397 868 l 363 915 l 315 868 l 206 868 m 494 940 l 561 1049 l 733 1049 l 614 940 l 494 940 z "},"Ậ":{"ha":561,"x_min":-47,"x_max":544,"o":"m -47 0 l 201 821 l 482 821 l 494 0 l 278 0 l 281 135 l 197 135 l 161 0 l -47 0 m 211 229 l 292 229 l 313 661 l 211 229 m 208 -192 q 155 -171 176 -192 q 133 -119 133 -150 q 155 -69 133 -89 q 208 -49 176 -49 q 261 -69 240 -49 q 282 -119 282 -89 q 261 -171 282 -150 q 208 -192 240 -192 m 167 876 l 325 1022 l 428 1022 l 544 878 l 428 878 l 365 942 l 285 876 l 167 876 z "},"Ầ":{"ha":561,"x_min":-47,"x_max":639,"o":"m -47 0 l 201 821 l 482 821 l 494 0 l 278 0 l 281 135 l 197 135 l 161 0 l -47 0 m 211 229 l 292 229 l 313 661 l 211 229 m 206 868 l 322 990 l 419 990 l 504 868 l 397 868 l 363 915 l 315 868 l 206 868 m 521 940 l 424 1049 l 599 1049 l 640 940 l 521 940 z "},"Ẩ":{"ha":561,"x_min":-47,"x_max":681,"o":"m -47 0 l 201 821 l 482 821 l 494 0 l 278 0 l 281 135 l 197 135 l 161 0 l -47 0 m 211 229 l 292 229 l 313 661 l 211 229 m 206 868 l 322 990 l 419 990 l 504 868 l 397 868 l 363 915 l 315 868 l 206 868 m 525 926 l 529 951 q 540 972 532 967 q 557 983 549 978 q 567 997 565 988 l 571 1013 q 572 1019 572 1015 q 569 1022 572 1022 q 561 1004 563 1022 l 482 1015 q 514 1068 489 1051 q 585 1085 539 1085 q 657 1065 633 1085 q 674 1007 681 1046 l 672 1001 q 661 970 668 978 q 647 962 654 963 q 634 958 639 961 q 626 943 629 956 l 624 926 l 525 926 z "},"Ẫ":{"ha":561,"x_min":-47,"x_max":525,"o":"m -47 0 l 201 821 l 482 821 l 494 0 l 278 0 l 281 135 l 197 135 l 161 0 l -47 0 m 211 229 l 292 229 l 313 661 l 211 229 m 206 868 l 322 990 l 419 990 l 504 868 l 397 868 l 363 915 l 315 868 l 206 868 m 426 1011 q 392 1019 408 1011 q 365 1033 376 1026 q 341 1044 351 1040 q 318 1047 331 1047 q 298 1037 306 1047 q 288 1013 290 1026 l 242 1013 q 274 1099 249 1068 q 332 1129 299 1129 q 363 1124 347 1129 q 393 1113 378 1119 q 418 1101 407 1107 q 439 1096 429 1096 q 463 1106 456 1096 q 474 1126 469 1117 l 525 1126 q 503 1063 521 1088 q 465 1024 486 1038 q 426 1011 443 1011 z "},"Ä":{"ha":561,"x_min":-47,"x_max":532,"o":"m -47 0 l 201 821 l 482 821 l 494 0 l 278 0 l 281 135 l 197 135 l 161 0 l -47 0 m 211 229 l 292 229 l 313 661 l 211 229 m 276 883 q 223 904 244 883 q 201 956 201 925 q 223 1005 201 985 q 276 1025 244 1025 q 329 1005 308 1025 q 350 956 350 985 q 329 904 350 925 q 276 883 308 883 m 457 883 q 403 904 425 883 q 382 956 382 925 q 403 1005 382 985 q 457 1025 425 1025 q 510 1005 489 1025 q 531 956 531 985 q 510 904 531 925 q 457 883 489 883 z "},"Ạ":{"ha":561,"x_min":-47,"x_max":494,"o":"m -47 0 l 201 821 l 482 821 l 494 0 l 278 0 l 281 135 l 197 135 l 161 0 l -47 0 m 211 229 l 292 229 l 313 661 l 211 229 m 208 -192 q 155 -171 176 -192 q 133 -119 133 -150 q 155 -69 133 -89 q 208 -49 176 -49 q 261 -69 240 -49 q 282 -119 282 -89 q 261 -171 282 -150 q 208 -192 240 -192 z "},"À":{"ha":561,"x_min":-47,"x_max":494,"o":"m -47 0 l 201 821 l 482 821 l 494 0 l 278 0 l 281 135 l 197 135 l 161 0 l -47 0 m 211 229 l 292 229 l 313 661 l 211 229 m 326 882 l 167 1013 l 339 1013 l 443 882 l 326 882 z "},"Ả":{"ha":561,"x_min":-47,"x_max":494,"o":"m -47 0 l 201 821 l 482 821 l 494 0 l 278 0 l 281 135 l 197 135 l 161 0 l -47 0 m 211 229 l 292 229 l 313 661 l 211 229 m 304 854 l 308 888 q 325 917 311 908 q 352 932 339 925 q 368 956 365 939 l 371 971 q 370 990 374 982 q 356 997 367 997 q 332 968 338 997 l 250 981 q 289 1043 258 1022 q 372 1064 319 1064 q 458 1038 431 1064 q 476 965 485 1013 l 475 960 q 459 918 469 929 q 438 903 449 907 q 418 897 426 900 q 407 878 410 893 l 404 854 l 304 854 z "},"Ā":{"ha":561,"x_min":-47,"x_max":519,"o":"m -47 0 l 201 821 l 482 821 l 494 0 l 278 0 l 281 135 l 197 135 l 161 0 l -47 0 m 211 229 l 292 229 l 313 661 l 211 229 m 210 894 l 222 989 l 521 989 l 508 894 l 210 894 z "},"Ą":{"ha":561,"x_min":-47,"x_max":494,"o":"m -47 0 l 201 821 l 482 821 l 494 0 l 278 0 l 281 135 l 197 135 l 161 0 l -47 0 m 211 229 l 292 229 l 313 661 l 211 229 m 368 -206 q 283 -177 313 -206 q 260 -114 254 -149 q 303 -40 265 -75 q 394 3 340 -4 l 467 0 q 407 -37 428 -11 q 383 -87 386 -62 q 396 -126 381 -112 q 428 -140 411 -140 q 446 -138 439 -140 q 456 -135 453 -136 l 471 -182 q 439 -196 463 -186 q 368 -206 415 -206 z "},"Å":{"ha":561,"x_min":-47,"x_max":503,"o":"m -47 0 l 201 821 l 482 821 l 494 0 l 278 0 l 281 135 l 197 135 l 161 0 l -47 0 m 211 229 l 292 229 l 313 661 l 211 229 m 354 867 q 269 901 300 867 q 246 983 239 935 q 293 1069 253 1035 q 388 1103 333 1103 q 471 1068 439 1103 q 496 983 503 1033 q 447 901 489 935 q 354 867 406 867 m 364 940 q 401 953 385 940 q 418 983 417 965 q 409 1018 421 1006 q 376 1031 397 1031 q 341 1018 356 1031 q 322 983 326 1006 q 333 953 321 965 q 364 940 344 940 z "},"Ã":{"ha":561,"x_min":-47,"x_max":544,"o":"m -47 0 l 201 821 l 482 821 l 494 0 l 278 0 l 281 135 l 197 135 l 161 0 l -47 0 m 211 229 l 292 229 l 313 661 l 211 229 m 424 883 q 383 892 401 883 q 347 913 365 901 q 318 928 333 921 q 286 935 303 935 q 256 921 268 935 q 240 885 244 907 l 188 885 q 227 983 196 946 q 300 1019 258 1019 q 342 1012 324 1019 q 378 994 361 1004 q 408 979 393 986 q 438 972 422 972 q 469 985 458 972 q 486 1015 481 997 l 544 1015 q 497 917 535 951 q 424 883 458 883 z "},"B":{"ha":560,"x_min":-3,"x_max":572,"o":"m -3 0 l 113 821 l 421 821 q 538 783 503 821 q 564 682 572 744 l 551 590 q 531 524 546 554 q 493 475 517 494 q 452 451 475 460 q 407 440 429 443 l 406 439 q 447 433 426 439 q 486 411 467 428 q 517 361 507 393 q 519 282 526 329 l 506 172 q 467 68 496 106 q 392 15 438 31 q 286 0 347 0 l -3 0 m 204 99 l 256 99 q 281 106 269 99 q 299 131 292 113 q 313 183 307 150 l 325 276 q 322 342 333 326 q 288 357 311 357 l 240 357 l 204 99 m 258 478 l 301 478 q 340 497 324 478 q 363 568 356 515 l 375 646 q 372 702 381 686 q 342 718 363 718 l 292 718 l 258 478 z "},"Б":{"ha":542,"x_min":-3,"x_max":532,"o":"m -3 0 l 114 821 l 532 821 l 513 686 l 283 686 l 272 606 l 388 606 q 462 593 428 606 q 514 547 496 581 q 522 446 532 514 l 490 219 q 460 101 479 144 q 412 35 440 57 q 349 7 383 14 q 274 0 314 0 l -3 0 m 243 99 q 269 105 260 99 q 285 125 279 111 q 293 160 290 139 l 331 429 q 331 463 333 450 q 322 483 329 476 q 297 490 314 490 l 256 490 l 201 99 l 243 99 z "},"C":{"ha":551,"x_min":7,"x_max":569,"o":"m 231 -17 q 106 1 158 -17 q 30 71 53 18 q 22 229 7 124 l 81 647 q 127 758 90 718 q 222 816 164 799 q 350 833 279 833 q 474 816 424 833 q 547 758 524 799 q 560 647 569 718 l 535 465 l 342 465 l 368 656 q 368 693 372 681 q 355 710 364 706 q 333 715 346 715 q 310 710 321 715 q 293 693 300 706 q 282 656 286 681 l 213 156 q 213 118 210 132 q 225 100 217 104 q 247 96 233 96 q 269 100 260 96 q 288 118 279 104 q 297 156 296 132 l 324 332 l 515 332 l 500 231 q 450 71 486 124 q 359 1 414 18 q 231 -17 304 -17 z "},"Ć":{"ha":551,"x_min":7,"x_max":569,"o":"m 231 -17 q 106 1 158 -17 q 30 71 53 18 q 22 229 7 124 l 81 647 q 127 758 90 718 q 222 816 164 799 q 350 833 279 833 q 474 816 424 833 q 547 758 524 799 q 560 647 569 718 l 535 465 l 342 465 l 368 656 q 368 693 372 681 q 355 710 364 706 q 333 715 346 715 q 310 710 321 715 q 293 693 300 706 q 282 656 286 681 l 213 156 q 213 118 210 132 q 225 100 217 104 q 247 96 233 96 q 269 100 260 96 q 288 118 279 104 q 297 156 296 132 l 324 332 l 515 332 l 500 231 q 450 71 486 124 q 359 1 414 18 q 231 -17 304 -17 m 243 882 l 369 1018 l 539 1018 l 347 882 l 243 882 z "},"Č":{"ha":551,"x_min":7,"x_max":569,"o":"m 231 -17 q 106 1 158 -17 q 30 71 53 18 q 22 229 7 124 l 81 647 q 127 758 90 718 q 222 816 164 799 q 350 833 279 833 q 474 816 424 833 q 547 758 524 799 q 560 647 569 718 l 535 465 l 342 465 l 368 656 q 368 693 372 681 q 355 710 364 706 q 333 715 346 715 q 310 710 321 715 q 293 693 300 706 q 282 656 286 681 l 213 156 q 213 118 210 132 q 225 100 217 104 q 247 96 233 96 q 269 100 260 96 q 288 118 279 104 q 297 156 296 132 l 324 332 l 515 332 l 500 231 q 450 71 486 124 q 359 1 414 18 q 231 -17 304 -17 m 297 876 l 181 1022 l 300 1022 l 363 958 l 443 1021 l 560 1021 l 400 876 l 297 876 z "},"Ç":{"ha":551,"x_min":7,"x_max":569,"o":"m 231 -17 q 106 1 158 -17 q 30 71 53 18 q 22 229 7 124 l 81 647 q 127 758 90 718 q 222 816 164 799 q 350 833 279 833 q 474 816 424 833 q 547 758 524 799 q 560 647 569 718 l 535 465 l 342 465 l 368 656 q 368 693 372 681 q 355 710 364 706 q 333 715 346 715 q 310 710 321 715 q 293 693 300 706 q 282 656 286 681 l 213 156 q 213 118 210 132 q 225 100 217 104 q 247 96 233 96 q 269 100 260 96 q 288 118 279 104 q 297 156 296 132 l 324 332 l 515 332 l 500 231 q 450 71 486 124 q 359 1 414 18 q 231 -17 304 -17 m 185 -226 q 133 -215 157 -226 q 101 -199 110 -204 l 133 -140 q 156 -153 140 -147 q 186 -160 171 -160 q 219 -150 207 -160 q 232 -125 231 -140 q 208 -99 236 -99 q 193 -101 200 -99 q 182 -107 186 -104 l 136 -81 l 190 0 l 261 0 l 215 -65 l 207 -61 q 231 -51 217 -54 q 261 -47 244 -47 q 322 -72 304 -47 q 335 -128 339 -97 q 289 -197 329 -168 q 185 -226 249 -226 z "},"Ċ":{"ha":551,"x_min":7,"x_max":569,"o":"m 231 -17 q 106 1 158 -17 q 30 71 53 18 q 22 229 7 124 l 81 647 q 127 758 90 718 q 222 816 164 799 q 350 833 279 833 q 474 816 424 833 q 547 758 524 799 q 560 647 569 718 l 535 465 l 342 465 l 368 656 q 368 693 372 681 q 355 710 364 706 q 333 715 346 715 q 310 710 321 715 q 293 693 300 706 q 282 656 286 681 l 213 156 q 213 118 210 132 q 225 100 217 104 q 247 96 233 96 q 269 100 260 96 q 288 118 279 104 q 297 156 296 132 l 324 332 l 515 332 l 500 231 q 450 71 486 124 q 359 1 414 18 q 231 -17 304 -17 m 383 872 q 318 899 346 872 q 289 963 290 925 q 317 1028 289 1001 q 385 1054 346 1054 q 452 1028 424 1054 q 481 963 481 1001 q 452 899 481 925 q 383 872 424 872 z "},"Ч":{"ha":549,"x_min":33,"x_max":569,"o":"m 261 0 l 293 222 q 242 198 278 210 q 171 186 207 186 q 76 207 107 186 q 40 269 46 228 q 42 369 33 311 l 106 821 l 294 821 l 231 369 q 234 328 226 342 q 264 314 242 314 q 290 317 279 314 q 307 325 301 321 l 378 821 l 569 821 l 453 0 l 261 0 z "},"D":{"ha":563,"x_min":-3,"x_max":579,"o":"m -3 0 l 114 821 l 419 821 q 515 803 479 821 q 565 753 550 786 q 571 675 579 721 l 501 175 q 463 70 493 108 q 385 16 432 32 q 275 0 338 0 l -3 0 m 213 99 l 258 99 q 289 111 276 99 q 307 157 301 124 l 376 654 q 372 701 381 688 q 343 714 363 714 l 299 714 l 213 99 z "},"Ď":{"ha":563,"x_min":-3,"x_max":579,"o":"m -3 0 l 114 821 l 419 821 q 515 803 479 821 q 565 753 550 786 q 571 675 579 721 l 501 175 q 463 70 493 108 q 385 16 432 32 q 275 0 338 0 l -3 0 m 213 99 l 258 99 q 289 111 276 99 q 307 157 301 124 l 376 654 q 372 701 381 688 q 343 714 363 714 l 299 714 l 213 99 m 303 876 l 186 1022 l 306 1022 l 368 958 l 449 1021 l 565 1021 l 406 876 l 303 876 z "},"Đ":{"ha":625,"x_min":7,"x_max":625,"o":"m 18 0 l 135 821 l 467 821 q 562 803 526 821 q 611 753 597 786 q 618 675 625 721 l 549 175 q 509 70 539 108 q 432 16 479 32 q 321 0 385 0 l 18 0 m 7 349 l 24 458 l 326 458 l 311 349 l 7 349 m 233 99 l 290 99 q 334 111 319 99 q 353 157 349 124 l 424 654 q 417 701 428 688 q 376 714 406 714 l 319 714 l 233 99 z "},"Д":{"ha":829,"x_min":-60,"x_max":781,"o":"m -60 -161 l -19 122 l 57 122 q 109 156 82 125 q 149 232 136 188 q 178 347 163 282 q 212 481 194 411 q 244 616 229 550 q 269 736 258 682 q 286 821 281 790 l 733 821 l 636 122 l 781 122 l 740 -161 l 583 -161 l 601 -37 l 114 -37 l 97 -161 l -60 -161 m 285 122 l 447 122 l 525 686 l 446 686 l 349 253 q 323 174 339 214 q 285 122 307 135 z "},"Δ":{"ha":788,"x_min":-15,"x_max":706,"o":"m -15 0 l 347 813 l 543 813 l 706 0 l -15 0 m 225 144 l 492 144 l 406 586 l 225 144 z "},"Ђ":{"ha":656,"x_min":60,"x_max":642,"o":"m 88 0 l 185 686 l 60 686 l 79 821 l 521 821 l 501 686 l 376 686 l 353 510 q 408 551 368 532 q 499 569 447 569 q 573 557 539 569 q 624 510 607 544 q 632 410 642 476 l 604 219 q 572 96 593 140 q 523 31 551 51 q 460 5 494 10 q 385 0 425 0 q 345 6 368 0 q 313 17 322 11 l 325 100 q 341 99 332 99 q 357 99 350 99 q 391 115 378 99 q 408 167 404 131 l 440 394 q 436 439 444 425 q 396 453 428 453 q 362 445 375 453 q 340 426 349 438 l 279 0 l 88 0 z "},"Ѕ":{"ha":553,"x_min":-1,"x_max":571,"o":"m 239 -11 q 94 10 150 -11 q 19 83 39 31 q 11 235 -1 136 l 18 285 l 219 285 l 210 218 q 206 151 204 174 q 218 119 208 128 q 243 111 228 111 q 281 130 265 111 q 304 204 296 149 q 299 276 311 253 q 255 314 286 299 q 171 351 224 329 q 98 406 124 375 q 65 482 72 436 q 67 590 58 528 q 109 726 79 675 q 194 801 139 778 q 343 824 250 824 q 516 774 461 824 q 557 626 571 725 l 542 525 q 447 525 494 525 q 350 525 399 525 l 357 568 q 360 649 365 626 q 325 671 354 671 q 285 653 297 671 q 267 597 274 636 q 273 536 263 558 q 308 501 283 514 q 369 472 332 488 q 465 424 429 449 q 512 357 500 400 q 511 233 524 314 q 460 88 499 142 q 364 12 421 35 q 239 -11 307 -11 z "},"Џ":{"ha":581,"x_min":-3,"x_max":601,"o":"m 163 -137 l 181 0 l -3 0 l 113 821 l 314 821 l 218 135 l 306 135 l 401 821 l 601 821 l 486 0 l 303 0 l 285 -137 l 163 -137 z "},"E":{"ha":461,"x_min":-3,"x_max":503,"o":"m -3 0 l 114 821 l 503 821 l 482 686 l 294 686 l 269 497 l 433 497 l 413 346 l 247 346 l 218 132 l 406 132 l 386 0 l -3 0 z "},"É":{"ha":461,"x_min":-3,"x_max":503,"o":"m -3 0 l 114 821 l 503 821 l 482 686 l 294 686 l 269 497 l 433 497 l 413 346 l 247 346 l 218 132 l 406 132 l 386 0 l -3 0 m 206 882 l 332 1018 l 501 1018 l 310 882 l 206 882 z "},"Ě":{"ha":461,"x_min":-3,"x_max":521,"o":"m -3 0 l 114 821 l 503 821 l 482 686 l 294 686 l 269 497 l 433 497 l 413 346 l 247 346 l 218 132 l 406 132 l 386 0 l -3 0 m 260 876 l 143 1022 l 263 1022 l 325 958 l 406 1021 l 522 1021 l 363 876 l 260 876 z "},"Ê":{"ha":461,"x_min":-3,"x_max":503,"o":"m -3 0 l 114 821 l 503 821 l 482 686 l 294 686 l 269 497 l 433 497 l 413 346 l 247 346 l 218 132 l 406 132 l 386 0 l -3 0 m 124 876 l 282 1022 l 385 1022 l 501 878 l 385 878 l 322 942 l 242 876 l 124 876 z "},"Ế":{"ha":461,"x_min":-3,"x_max":690,"o":"m -3 0 l 114 821 l 503 821 l 482 686 l 294 686 l 269 497 l 433 497 l 413 346 l 247 346 l 218 132 l 406 132 l 386 0 l -3 0 m 163 868 l 279 990 l 376 990 l 461 868 l 354 868 l 319 915 l 272 868 l 163 868 m 451 940 l 518 1049 l 690 1049 l 571 940 l 451 940 z "},"Ệ":{"ha":461,"x_min":-3,"x_max":503,"o":"m -3 0 l 114 821 l 503 821 l 482 686 l 294 686 l 269 497 l 433 497 l 413 346 l 247 346 l 218 132 l 406 132 l 386 0 l -3 0 m 165 -192 q 112 -171 133 -192 q 90 -119 90 -150 q 112 -69 90 -89 q 165 -49 133 -49 q 218 -69 197 -49 q 239 -119 239 -89 q 218 -171 239 -150 q 165 -192 197 -192 m 124 876 l 282 1022 l 385 1022 l 501 878 l 385 878 l 322 942 l 242 876 l 124 876 z "},"Ề":{"ha":461,"x_min":-3,"x_max":596,"o":"m -3 0 l 114 821 l 503 821 l 482 686 l 294 686 l 269 497 l 433 497 l 413 346 l 247 346 l 218 132 l 406 132 l 386 0 l -3 0 m 163 868 l 279 990 l 376 990 l 461 868 l 354 868 l 319 915 l 272 868 l 163 868 m 478 940 l 381 1049 l 556 1049 l 597 940 l 478 940 z "},"Ể":{"ha":461,"x_min":-3,"x_max":636,"o":"m -3 0 l 114 821 l 503 821 l 482 686 l 294 686 l 269 497 l 433 497 l 413 346 l 247 346 l 218 132 l 406 132 l 386 0 l -3 0 m 163 868 l 279 990 l 376 990 l 461 868 l 354 868 l 319 915 l 272 868 l 163 868 m 482 926 l 486 951 q 497 972 489 967 q 514 983 506 978 q 524 997 522 988 l 528 1013 q 529 1019 529 1015 q 526 1022 529 1022 q 518 1004 519 1022 l 439 1015 q 471 1068 446 1051 q 542 1085 496 1085 q 614 1065 590 1085 q 631 1007 638 1046 l 629 1001 q 618 970 625 978 q 603 962 611 963 q 591 958 596 961 q 583 943 586 956 l 581 926 l 482 926 z "},"Ễ":{"ha":461,"x_min":-3,"x_max":503,"o":"m -3 0 l 114 821 l 503 821 l 482 686 l 294 686 l 269 497 l 433 497 l 413 346 l 247 346 l 218 132 l 406 132 l 386 0 l -3 0 m 163 868 l 279 990 l 376 990 l 461 868 l 354 868 l 319 915 l 272 868 l 163 868 m 383 1011 q 349 1019 365 1011 q 322 1033 333 1026 q 298 1044 308 1040 q 275 1047 288 1047 q 255 1037 263 1047 q 244 1013 247 1026 l 199 1013 q 231 1099 206 1068 q 289 1129 256 1129 q 319 1124 304 1129 q 350 1113 335 1119 q 375 1101 364 1107 q 396 1096 386 1096 q 419 1106 413 1096 q 431 1126 426 1117 l 482 1126 q 460 1063 478 1088 q 422 1024 443 1038 q 383 1011 400 1011 z "},"Ë":{"ha":461,"x_min":-3,"x_max":503,"o":"m -3 0 l 114 821 l 503 821 l 482 686 l 294 686 l 269 497 l 433 497 l 413 346 l 247 346 l 218 132 l 406 132 l 386 0 l -3 0 m 233 883 q 180 904 201 883 q 158 956 158 925 q 180 1005 158 985 q 233 1025 201 1025 q 286 1005 265 1025 q 307 956 307 985 q 286 904 307 925 q 233 883 265 883 m 414 883 q 360 904 382 883 q 339 956 339 925 q 360 1005 339 985 q 414 1025 382 1025 q 467 1005 446 1025 q 488 956 488 985 q 467 904 488 925 q 414 883 446 883 z "},"Ė":{"ha":461,"x_min":-3,"x_max":503,"o":"m -3 0 l 114 821 l 503 821 l 482 686 l 294 686 l 269 497 l 433 497 l 413 346 l 247 346 l 218 132 l 406 132 l 386 0 l -3 0 m 344 872 q 279 899 307 872 q 250 963 251 925 q 278 1028 250 1001 q 346 1054 307 1054 q 413 1028 385 1054 q 442 963 442 1001 q 413 899 442 925 q 344 872 385 872 z "},"Ẹ":{"ha":461,"x_min":-3,"x_max":503,"o":"m -3 0 l 114 821 l 503 821 l 482 686 l 294 686 l 269 497 l 433 497 l 413 346 l 247 346 l 218 132 l 406 132 l 386 0 l -3 0 m 165 -192 q 112 -171 133 -192 q 90 -119 90 -150 q 112 -69 90 -89 q 165 -49 133 -49 q 218 -69 197 -49 q 239 -119 239 -89 q 218 -171 239 -150 q 165 -192 197 -192 z "},"Ф":{"ha":774,"x_min":10,"x_max":779,"o":"m 238 -46 l 258 103 l 206 103 q 59 141 108 103 q 24 279 10 179 l 64 557 q 122 665 74 625 q 261 704 169 704 l 343 704 l 360 821 l 549 821 l 532 704 l 613 704 q 742 665 706 704 q 769 556 779 625 l 731 279 q 656 140 715 178 q 500 103 597 103 l 447 103 l 426 -46 l 238 -46 m 251 200 l 272 200 l 329 597 l 307 597 q 272 583 286 597 q 253 536 258 569 l 215 261 q 219 214 210 228 q 251 200 229 200 m 481 200 q 517 213 503 200 q 535 263 531 226 l 574 535 q 569 584 579 571 q 538 597 560 597 l 518 597 l 461 200 l 481 200 z "},"È":{"ha":461,"x_min":-3,"x_max":503,"o":"m -3 0 l 114 821 l 503 821 l 482 686 l 294 686 l 269 497 l 433 497 l 413 346 l 247 346 l 218 132 l 406 132 l 386 0 l -3 0 m 283 882 l 124 1013 l 296 1013 l 400 882 l 283 882 z "},"Ẻ":{"ha":461,"x_min":-3,"x_max":503,"o":"m -3 0 l 114 821 l 503 821 l 482 686 l 294 686 l 269 497 l 433 497 l 413 346 l 247 346 l 218 132 l 406 132 l 386 0 l -3 0 m 260 854 l 264 888 q 281 917 267 908 q 308 932 294 925 q 324 956 321 939 l 326 971 q 326 990 329 982 q 311 997 322 997 q 288 968 293 997 l 206 981 q 244 1043 214 1022 q 328 1064 275 1064 q 413 1038 386 1064 q 432 965 440 1013 l 431 960 q 415 918 425 929 q 393 903 404 907 q 374 897 382 900 q 363 878 365 893 l 360 854 l 260 854 z "},"Л":{"ha":632,"x_min":-49,"x_max":653,"o":"m -49 0 l -33 97 q 19 129 -8 97 q 57 203 47 161 l 189 821 l 653 821 l 536 0 l 343 0 l 440 686 l 358 686 l 243 154 q 229 101 236 128 q 206 51 222 74 q 160 14 190 28 q 76 0 129 0 l -49 0 z "},"М":{"ha":749,"x_min":-3,"x_max":769,"o":"m -3 0 l 114 821 l 357 821 l 375 349 l 528 821 l 769 821 l 653 0 l 483 0 l 567 592 l 390 0 l 260 0 l 250 592 l 167 0 l -3 0 z "},"Ē":{"ha":461,"x_min":-3,"x_max":503,"o":"m -3 0 l 114 821 l 503 821 l 482 686 l 294 686 l 269 497 l 433 497 l 413 346 l 247 346 l 218 132 l 406 132 l 386 0 l -3 0 m 165 894 l 178 989 l 476 989 l 464 894 l 165 894 z "},"Н":{"ha":568,"x_min":-3,"x_max":589,"o":"m -3 0 l 114 821 l 307 821 l 260 494 l 350 494 l 397 821 l 589 821 l 472 0 l 281 0 l 331 351 l 240 351 l 190 0 l -3 0 z "},"Ŋ":{"ha":563,"x_min":-3,"x_max":583,"o":"m 224 -265 q 188 -265 213 -265 q 153 -264 164 -265 l 171 -132 l 213 -133 q 269 -119 253 -133 q 290 -62 285 -106 l 300 3 l 224 400 l 167 0 l -3 0 l 114 821 l 281 821 l 353 383 l 415 821 l 583 821 l 460 -51 q 421 -183 447 -136 q 347 -247 394 -229 q 224 -265 299 -265 z "},"Ę":{"ha":461,"x_min":-3,"x_max":503,"o":"m -3 0 l 114 821 l 503 821 l 482 686 l 294 686 l 269 497 l 433 497 l 413 346 l 247 346 l 218 132 l 406 132 l 386 0 l -3 0 m 271 -192 q 186 -163 215 -192 q 163 -100 157 -135 q 206 -26 168 -61 q 297 17 243 10 l 369 14 q 310 -23 331 3 q 286 -74 289 -49 q 299 -112 283 -99 q 331 -126 314 -126 q 349 -124 342 -126 q 358 -121 356 -122 l 374 -168 q 342 -182 365 -172 q 271 -192 318 -192 z "},"Р":{"ha":550,"x_min":-3,"x_max":581,"o":"m -3 0 l 114 821 l 422 821 q 544 783 508 821 q 571 682 581 744 l 553 542 q 523 433 544 483 q 461 351 501 382 q 356 321 421 321 l 244 321 l 199 0 l -3 0 m 258 425 l 297 425 q 338 456 321 425 q 364 563 354 486 l 368 596 q 374 690 378 663 q 347 718 369 718 l 300 718 l 258 425 z "},"Э":{"ha":547,"x_min":0,"x_max":563,"o":"m 217 -17 q 94 1 144 -17 q 22 71 43 18 q 15 231 0 124 l 21 268 l 214 268 l 199 158 q 198 122 194 135 q 211 103 201 108 q 232 99 221 99 q 256 103 246 99 q 273 122 265 108 q 285 158 281 135 l 308 332 l 136 332 l 154 460 l 326 460 l 354 651 q 353 688 357 675 q 342 706 350 701 q 319 710 333 710 q 297 706 307 710 q 279 689 286 701 q 268 651 272 676 l 250 522 l 57 522 l 74 646 q 118 758 83 717 q 208 816 153 799 q 336 833 264 833 q 461 816 408 833 q 538 758 514 799 q 553 646 563 718 l 494 229 q 442 71 481 124 q 347 1 404 18 q 217 -17 290 -17 z "},"С":{"ha":551,"x_min":7,"x_max":569,"o":"m 231 -17 q 106 1 158 -17 q 30 71 53 18 q 22 229 7 124 l 81 647 q 127 758 90 718 q 222 816 164 799 q 350 833 279 833 q 474 816 424 833 q 547 758 524 799 q 560 647 569 718 l 535 465 l 342 465 l 368 656 q 368 693 372 681 q 355 710 364 706 q 333 715 346 715 q 310 710 321 715 q 293 693 300 706 q 282 656 286 681 l 213 156 q 213 118 210 132 q 225 100 217 104 q 247 96 233 96 q 269 100 260 96 q 288 118 279 104 q 297 156 296 132 l 324 332 l 515 332 l 500 231 q 450 71 486 124 q 359 1 414 18 q 231 -17 304 -17 z "},"Ð":{"ha":625,"x_min":7,"x_max":625,"o":"m 18 0 l 135 821 l 467 821 q 562 803 526 821 q 611 753 597 786 q 618 675 625 721 l 549 175 q 509 70 539 108 q 432 16 479 32 q 321 0 385 0 l 18 0 m 7 349 l 24 458 l 326 458 l 311 349 l 7 349 m 233 99 l 290 99 q 334 111 319 99 q 353 157 349 124 l 424 654 q 417 701 428 688 q 376 714 406 714 l 319 714 l 233 99 z "},"Ẽ":{"ha":461,"x_min":-3,"x_max":503,"o":"m -3 0 l 114 821 l 503 821 l 482 686 l 294 686 l 269 497 l 433 497 l 413 346 l 247 346 l 218 132 l 406 132 l 386 0 l -3 0 m 379 883 q 339 892 357 883 q 303 913 321 901 q 274 928 289 921 q 242 935 258 935 q 212 921 224 935 q 196 885 200 907 l 143 885 q 183 983 151 946 q 256 1019 214 1019 q 298 1012 279 1019 q 333 994 317 1004 q 363 979 349 986 q 393 972 378 972 q 425 985 414 972 q 442 1015 436 997 l 500 1015 q 452 917 490 951 q 379 883 414 883 z "},"F":{"ha":457,"x_min":-3,"x_max":503,"o":"m -3 0 l 114 821 l 503 821 l 482 686 l 294 686 l 269 497 l 433 497 l 413 346 l 247 346 l 199 0 l -3 0 z "},"G":{"ha":551,"x_min":6,"x_max":568,"o":"m 167 -14 q 83 1 122 -14 q 25 64 44 17 q 18 203 6 111 l 79 644 q 125 756 90 715 q 216 814 160 797 q 343 831 272 831 q 466 813 414 831 q 543 756 518 796 q 558 644 568 715 l 540 524 l 354 524 l 372 656 q 372 693 376 681 q 358 710 368 706 q 331 715 347 715 q 305 710 317 715 q 285 693 293 706 q 274 656 276 681 l 203 156 q 204 118 200 132 q 219 100 208 104 q 244 96 231 96 q 283 110 267 96 q 303 156 299 124 l 325 314 l 275 314 l 290 422 l 526 422 l 468 0 l 322 0 l 321 58 q 318 55 319 57 q 315 51 317 53 q 265 8 300 29 q 167 -14 229 -14 z "},"Ğ":{"ha":551,"x_min":6,"x_max":568,"o":"m 167 -14 q 83 1 122 -14 q 25 64 44 17 q 18 203 6 111 l 79 644 q 125 756 90 715 q 216 814 160 797 q 343 831 272 831 q 466 813 414 831 q 543 756 518 796 q 558 644 568 715 l 540 524 l 354 524 l 372 656 q 372 693 376 681 q 358 710 368 706 q 331 715 347 715 q 305 710 317 715 q 285 693 293 706 q 274 656 276 681 l 203 156 q 204 118 200 132 q 219 100 208 104 q 244 96 231 96 q 283 110 267 96 q 303 156 299 124 l 325 314 l 275 314 l 290 422 l 526 422 l 468 0 l 322 0 l 321 58 q 318 55 319 57 q 315 51 317 53 q 265 8 300 29 q 167 -14 229 -14 m 347 876 q 264 891 294 876 q 220 928 233 906 q 204 976 207 951 q 204 1021 201 1000 l 306 1021 q 319 978 301 993 q 361 964 338 964 q 408 978 388 964 q 435 1021 428 992 l 536 1021 q 509 949 531 982 q 447 896 488 915 q 347 876 407 876 z "},"Ģ":{"ha":551,"x_min":6,"x_max":568,"o":"m 167 -14 q 83 1 122 -14 q 25 64 44 17 q 18 203 6 111 l 79 644 q 125 756 90 715 q 216 814 160 797 q 343 831 272 831 q 466 813 414 831 q 543 756 518 796 q 558 644 568 715 l 540 524 l 354 524 l 372 656 q 372 693 376 681 q 358 710 368 706 q 331 715 347 715 q 305 710 317 715 q 285 693 293 706 q 274 656 276 681 l 203 156 q 204 118 200 132 q 219 100 208 104 q 244 96 231 96 q 283 110 267 96 q 303 156 299 124 l 325 314 l 275 314 l 290 422 l 526 422 l 468 0 l 322 0 l 321 58 q 318 55 319 57 q 315 51 317 53 q 265 8 300 29 q 167 -14 229 -14 m 106 -281 q 149 -222 133 -247 q 165 -181 165 -196 q 158 -162 167 -169 q 140 -143 149 -154 q 135 -112 132 -132 q 160 -71 136 -90 q 219 -51 185 -51 q 276 -71 256 -51 q 293 -121 296 -90 q 272 -170 290 -140 q 230 -229 254 -200 q 182 -281 206 -258 l 106 -281 z "},"Ġ":{"ha":551,"x_min":6,"x_max":568,"o":"m 167 -14 q 83 1 122 -14 q 25 64 44 17 q 18 203 6 111 l 79 644 q 125 756 90 715 q 216 814 160 797 q 343 831 272 831 q 466 813 414 831 q 543 756 518 796 q 558 644 568 715 l 540 524 l 354 524 l 372 656 q 372 693 376 681 q 358 710 368 706 q 331 715 347 715 q 305 710 317 715 q 285 693 293 706 q 274 656 276 681 l 203 156 q 204 118 200 132 q 219 100 208 104 q 244 96 231 96 q 283 110 267 96 q 303 156 299 124 l 325 314 l 275 314 l 290 422 l 526 422 l 468 0 l 322 0 l 321 58 q 318 55 319 57 q 315 51 317 53 q 265 8 300 29 q 167 -14 229 -14 m 383 872 q 318 899 346 872 q 289 963 290 925 q 317 1028 289 1001 q 385 1054 346 1054 q 452 1028 424 1054 q 481 963 481 1001 q 452 899 481 925 q 383 872 424 872 z "},"Г":{"ha":460,"x_min":-3,"x_max":503,"o":"m -3 0 l 114 821 l 503 821 l 483 686 l 294 686 l 199 0 l -3 0 z "},"ẞ":{"ha":1119,"x_min":1,"x_max":1115,"o":"m 763 -11 q 634 10 685 -11 q 563 83 583 31 q 556 235 542 136 q 558 260 556 240 q 563 285 561 279 l 764 285 q 760 251 763 271 q 754 218 757 231 q 751 151 749 174 q 763 119 753 128 q 786 111 772 111 q 825 130 810 111 q 849 204 840 149 q 843 276 856 253 q 799 314 831 299 q 715 351 768 329 q 642 406 668 375 q 610 482 617 436 q 611 590 603 528 q 653 726 624 675 q 739 801 683 778 q 888 824 794 824 q 1060 774 1006 824 q 1101 626 1115 725 l 1086 525 q 991 525 1039 525 q 894 525 943 525 l 901 568 q 904 649 910 626 q 869 671 899 671 q 830 653 842 671 q 811 597 818 636 q 819 530 806 553 q 859 495 833 507 q 914 472 885 483 q 1009 424 974 449 q 1056 357 1044 400 q 1056 233 1068 314 q 958 42 1036 96 q 763 -11 881 -11 m 222 -11 q 94 10 144 -11 q 22 83 43 31 q 15 235 1 136 q 18 260 15 240 q 22 285 21 279 l 224 285 q 219 251 222 271 q 214 218 217 231 q 210 151 208 174 q 222 119 213 128 q 246 111 232 111 q 285 130 269 111 q 307 204 300 149 q 303 276 315 253 q 259 314 290 299 q 175 351 228 329 q 102 406 128 375 q 69 482 76 436 q 71 590 63 528 q 113 726 83 675 q 199 801 143 778 q 347 824 254 824 q 521 774 465 824 q 561 626 576 725 l 546 525 q 451 525 499 525 q 354 525 403 525 l 361 568 q 364 649 369 626 q 329 671 358 671 q 289 653 301 671 q 272 597 276 636 q 279 530 265 553 q 319 495 293 507 q 374 472 344 483 q 467 424 432 449 q 515 357 503 400 q 515 233 528 314 q 417 42 496 96 q 222 -11 339 -11 z "},"Ѓ":{"ha":460,"x_min":-3,"x_max":504,"o":"m -3 0 l 114 821 l 503 821 l 483 686 l 294 686 l 199 0 l -3 0 m 208 882 l 335 1018 l 504 1018 l 313 882 l 208 882 z "},"H":{"ha":568,"x_min":-3,"x_max":589,"o":"m -3 0 l 114 821 l 307 821 l 260 494 l 350 494 l 397 821 l 589 821 l 472 0 l 281 0 l 331 351 l 240 351 l 190 0 l -3 0 z "},"Х":{"ha":535,"x_min":-39,"x_max":593,"o":"m -39 0 l 138 425 l 82 821 l 274 821 l 299 578 l 389 821 l 593 821 l 425 424 l 474 0 l 281 0 l 254 242 l 165 0 l -39 0 z "},"Ъ":{"ha":582,"x_min":22,"x_max":557,"o":"m 22 0 l 119 686 l 47 686 l 67 821 l 328 821 l 297 606 l 413 606 q 487 593 453 606 q 539 547 521 581 q 547 446 557 514 l 515 219 q 485 101 504 144 q 437 35 465 57 q 374 7 408 14 q 297 0 339 0 l 22 0 m 226 99 l 269 99 q 297 108 288 99 q 314 144 307 117 q 328 226 321 171 q 340 315 332 263 q 351 406 347 368 q 357 453 357 435 q 349 481 357 472 q 322 490 342 490 l 281 490 q 253 294 268 394 q 226 99 239 193 z "},"Ħ":{"ha":567,"x_min":-3,"x_max":606,"o":"m 28 649 l 47 736 l 606 736 l 585 649 l 28 649 m -3 0 l 114 821 l 307 821 l 260 494 l 350 494 l 397 821 l 589 821 l 472 0 l 281 0 l 331 351 l 240 351 l 190 0 l -3 0 z "},"I":{"ha":286,"x_min":-3,"x_max":307,"o":"m -3 0 l 114 821 l 307 821 l 190 0 l -3 0 z "},"І":{"ha":286,"x_min":-3,"x_max":307,"o":"m -3 0 l 114 821 l 307 821 l 190 0 l -3 0 z "},"Я":{"ha":571,"x_min":-50,"x_max":590,"o":"m 476 0 l 275 0 l 322 340 l 299 340 q 282 331 289 340 q 268 307 275 322 q 254 271 261 292 l 164 0 l -50 0 l 64 283 q 107 358 85 335 q 179 389 129 381 l 181 392 q 82 446 107 399 q 65 554 57 493 l 85 682 q 140 783 93 744 q 272 821 186 821 l 590 821 l 476 0 m 342 472 l 376 718 l 325 718 q 288 703 303 718 q 269 646 274 688 l 254 551 q 260 490 249 508 q 299 472 272 472 l 342 472 z "},"Í":{"ha":286,"x_min":-3,"x_max":407,"o":"m -3 0 l 114 821 l 307 821 l 190 0 l -3 0 m 111 882 l 238 1018 l 407 1018 l 215 882 l 111 882 z "},"Ǐ":{"ha":286,"x_min":-3,"x_max":426,"o":"m -3 0 l 114 821 l 307 821 l 190 0 l -3 0 m 165 876 l 49 1022 l 168 1022 l 231 958 l 311 1021 l 428 1021 l 268 876 l 165 876 z "},"Î":{"ha":286,"x_min":-3,"x_max":407,"o":"m -3 0 l 114 821 l 307 821 l 190 0 l -3 0 m 29 876 l 188 1022 l 290 1022 l 407 878 l 290 878 l 228 942 l 147 876 l 29 876 z "},"Ï":{"ha":286,"x_min":-3,"x_max":393,"o":"m -3 0 l 114 821 l 307 821 l 190 0 l -3 0 m 139 883 q 85 904 107 883 q 64 956 64 925 q 85 1005 64 985 q 139 1025 107 1025 q 192 1005 171 1025 q 213 956 213 985 q 192 904 213 925 q 139 883 171 883 m 319 883 q 266 904 288 883 q 244 956 244 925 q 266 1005 244 985 q 319 1025 288 1025 q 372 1005 351 1025 q 393 956 393 985 q 372 904 393 925 q 319 883 351 883 z "},"İ":{"ha":286,"x_min":-3,"x_max":349,"o":"m -3 0 l 114 821 l 307 821 l 190 0 l -3 0 m 250 872 q 185 899 213 872 q 156 963 157 925 q 184 1028 156 1001 q 251 1054 213 1054 q 319 1028 290 1054 q 347 963 347 1001 q 319 899 347 925 q 250 872 290 872 z "},"Ị":{"ha":286,"x_min":-3,"x_max":307,"o":"m -3 0 l 114 821 l 307 821 l 190 0 l -3 0 m 76 -192 q 23 -171 44 -192 q 1 -119 1 -150 q 23 -69 1 -89 q 76 -49 44 -49 q 129 -69 108 -49 q 150 -119 150 -89 q 129 -171 150 -150 q 76 -192 108 -192 z "},"Е":{"ha":461,"x_min":-3,"x_max":503,"o":"m -3 0 l 114 821 l 503 821 l 482 686 l 294 686 l 269 497 l 433 497 l 413 346 l 247 346 l 218 132 l 406 132 l 386 0 l -3 0 z "},"Ѐ":{"ha":461,"x_min":-3,"x_max":503,"o":"m -3 0 l 114 821 l 503 821 l 482 686 l 294 686 l 269 497 l 433 497 l 413 346 l 247 346 l 218 132 l 406 132 l 386 0 l -3 0 m 282 882 l 122 1013 l 294 1013 l 399 882 l 282 882 z "},"Ì":{"ha":286,"x_min":-3,"x_max":307,"o":"m -3 0 l 114 821 l 307 821 l 190 0 l -3 0 m 189 882 l 29 1013 l 201 1013 l 306 882 l 189 882 z "},"Ỉ":{"ha":286,"x_min":-3,"x_max":347,"o":"m -3 0 l 114 821 l 307 821 l 190 0 l -3 0 m 165 854 l 169 888 q 186 917 172 908 q 213 932 200 925 q 229 956 226 939 l 232 971 q 231 990 235 982 q 217 997 228 997 q 193 968 199 997 l 111 981 q 150 1043 119 1022 q 233 1064 181 1064 q 319 1038 292 1064 q 338 965 346 1013 l 336 960 q 320 918 331 929 q 299 903 310 907 q 279 897 288 900 q 268 878 271 893 l 265 854 l 165 854 z "},"И":{"ha":563,"x_min":-3,"x_max":583,"o":"m -3 0 l 114 821 l 283 821 l 221 383 l 417 821 l 583 821 l 467 0 l 299 0 l 356 400 l 164 0 l -3 0 z "},"Ѝ":{"ha":563,"x_min":-3,"x_max":583,"o":"m -3 0 l 114 821 l 283 821 l 221 383 l 417 821 l 583 821 l 467 0 l 299 0 l 356 400 l 164 0 l -3 0 m 335 882 l 175 1013 l 347 1013 l 451 882 l 335 882 z "},"Й":{"ha":563,"x_min":-3,"x_max":583,"o":"m -3 0 l 114 821 l 283 821 l 221 383 l 417 821 l 583 821 l 467 0 l 299 0 l 356 400 l 164 0 l -3 0 m 361 876 q 278 891 308 876 q 234 928 247 906 q 218 976 221 951 q 218 1021 215 1000 l 319 1021 q 333 978 315 993 q 375 964 351 964 q 422 978 401 964 q 449 1021 442 992 l 550 1021 q 523 949 544 982 q 461 896 501 915 q 361 876 421 876 z "},"Ī":{"ha":286,"x_min":-3,"x_max":382,"o":"m -3 0 l 114 821 l 307 821 l 190 0 l -3 0 m 72 894 l 85 989 l 383 989 l 371 894 l 72 894 z "},"Ё":{"ha":461,"x_min":-3,"x_max":503,"o":"m -3 0 l 114 821 l 503 821 l 482 686 l 294 686 l 269 497 l 433 497 l 413 346 l 247 346 l 218 132 l 406 132 l 386 0 l -3 0 m 232 883 q 178 904 200 883 q 157 956 157 925 q 178 1005 157 985 q 232 1025 200 1025 q 285 1005 264 1025 q 306 956 306 985 q 285 904 306 925 q 232 883 264 883 m 413 883 q 359 904 381 883 q 338 956 338 925 q 359 1005 338 985 q 413 1025 381 1025 q 465 1005 444 1025 q 486 956 486 985 q 465 904 486 925 q 413 883 444 883 z "},"Į":{"ha":286,"x_min":-46,"x_max":307,"o":"m -3 0 l 114 821 l 307 821 l 190 0 l -3 0 m 68 -206 q -17 -177 13 -206 q -40 -114 -46 -149 q 3 -40 -35 -75 q 94 3 40 -4 l 167 0 q 107 -37 128 -11 q 83 -87 86 -62 q 96 -126 81 -112 q 128 -140 111 -140 q 146 -138 139 -140 q 156 -135 153 -136 l 171 -182 q 139 -196 163 -186 q 68 -206 115 -206 z "},"Ĩ":{"ha":286,"x_min":-3,"x_max":406,"o":"m -3 0 l 114 821 l 307 821 l 190 0 l -3 0 m 285 883 q 244 892 263 883 q 208 913 226 901 q 179 928 194 921 q 147 935 164 935 q 117 921 129 935 q 101 885 106 907 l 49 885 q 88 983 57 946 q 161 1019 119 1019 q 203 1012 185 1019 q 239 994 222 1004 q 269 979 254 986 q 299 972 283 972 q 331 985 319 972 q 347 1015 342 997 l 406 1015 q 358 917 396 951 q 285 883 319 883 z "},"Ю":{"ha":835,"x_min":-3,"x_max":850,"o":"m 511 -17 q 386 1 439 -17 q 310 71 333 18 q 301 229 288 124 l 319 351 l 239 351 l 190 0 l -3 0 l 113 821 l 306 821 l 260 494 l 340 494 l 361 646 q 407 758 371 718 q 501 816 443 799 q 631 833 558 833 q 754 816 704 833 q 827 758 804 799 q 840 646 850 718 l 782 231 q 731 71 767 124 q 640 1 694 18 q 511 -17 585 -17 m 528 96 q 550 100 540 96 q 567 117 560 104 q 578 154 575 131 l 649 657 q 649 693 653 681 q 635 710 644 706 q 614 715 626 715 q 591 710 601 715 q 574 693 581 706 q 563 657 567 681 l 492 154 q 493 117 490 131 q 505 100 496 104 q 528 96 514 96 z "},"J":{"ha":346,"x_min":-49,"x_max":367,"o":"m 22 -1 q -14 -1 10 -1 q -49 0 -37 -1 l -31 132 l 11 132 q 67 145 51 131 q 88 201 82 160 l 175 821 l 367 821 l 282 213 q 241 82 271 129 q 158 17 211 35 q 22 -1 106 -1 z "},"Ј":{"ha":346,"x_min":-49,"x_max":367,"o":"m 22 -1 q -14 -1 10 -1 q -49 0 -37 -1 l -31 132 l 11 132 q 67 145 51 131 q 88 201 82 160 l 175 821 l 367 821 l 282 213 q 241 82 271 129 q 158 17 211 35 q 22 -1 106 -1 z "},"K":{"ha":590,"x_min":-3,"x_max":646,"o":"m 325 0 l 251 425 l 440 821 l 646 821 l 440 426 l 533 0 l 325 0 m -3 0 l 114 821 l 307 821 l 190 0 l -3 0 z "},"К":{"ha":626,"x_min":-3,"x_max":682,"o":"m -3 0 l 114 821 l 307 821 l 257 471 l 310 471 l 476 821 l 682 821 l 476 426 l 569 0 l 361 0 l 299 344 l 239 344 l 190 0 l -3 0 z "},"Ķ":{"ha":590,"x_min":-3,"x_max":646,"o":"m 325 0 l 251 425 l 440 821 l 646 821 l 440 426 l 533 0 l 325 0 m -3 0 l 114 821 l 307 821 l 190 0 l -3 0 m 135 -281 q 178 -222 163 -247 q 194 -181 194 -196 q 187 -162 196 -169 q 169 -143 178 -154 q 164 -112 161 -132 q 190 -71 165 -90 q 249 -51 214 -51 q 305 -71 285 -51 q 322 -121 325 -90 q 301 -170 319 -140 q 259 -229 283 -200 q 211 -281 235 -258 l 135 -281 z "},"Ќ":{"ha":626,"x_min":-3,"x_max":682,"o":"m -3 0 l 114 821 l 307 821 l 257 471 l 310 471 l 476 821 l 682 821 l 476 426 l 569 0 l 361 0 l 299 344 l 239 344 l 190 0 l -3 0 m 297 882 l 424 1018 l 593 1018 l 401 882 l 297 882 z "},"L":{"ha":415,"x_min":-3,"x_max":375,"o":"m -3 0 l 114 821 l 304 821 l 207 132 l 375 132 l 356 0 l -3 0 z "},"Ĺ":{"ha":415,"x_min":-3,"x_max":454,"o":"m -3 0 l 114 821 l 304 821 l 207 132 l 375 132 l 356 0 l -3 0 m 158 882 l 285 1018 l 454 1018 l 263 882 l 158 882 z "},"Ľ":{"ha":506,"x_min":-3,"x_max":576,"o":"m -3 0 l 114 821 l 304 821 l 207 132 l 375 132 l 356 0 l -3 0 m 397 624 l 463 838 l 575 838 l 463 624 l 397 624 z "},"Ļ":{"ha":415,"x_min":-3,"x_max":375,"o":"m -3 0 l 114 821 l 304 821 l 207 132 l 375 132 l 356 0 l -3 0 m 46 -281 q 90 -222 74 -247 q 106 -181 106 -196 q 98 -162 107 -169 q 81 -143 89 -154 q 75 -112 72 -132 q 101 -71 76 -90 q 160 -51 125 -51 q 216 -71 196 -51 q 233 -121 236 -90 q 213 -170 231 -140 q 170 -229 194 -200 q 122 -281 146 -258 l 46 -281 z "},"Љ":{"ha":903,"x_min":-49,"x_max":878,"o":"m -49 0 l -33 97 q 19 129 -8 97 q 57 203 47 161 l 189 821 l 653 821 l 536 0 l 343 0 l 440 686 l 358 686 l 243 154 q 229 101 236 128 q 206 51 222 74 q 160 14 190 28 q 76 0 129 0 l -49 0 m 551 99 l 596 99 q 622 108 613 99 q 639 144 632 117 q 653 226 646 171 q 666 315 658 263 q 678 406 674 368 q 682 453 682 435 q 675 481 682 472 q 649 490 668 490 l 606 490 q 580 294 594 394 q 551 99 565 193 m 343 0 l 460 821 l 649 821 l 618 606 l 735 606 q 808 593 774 606 q 860 547 842 581 q 868 446 878 514 l 836 219 q 806 101 825 144 q 758 35 786 57 q 696 7 731 14 q 619 0 661 0 l 343 0 z "},"Ł":{"ha":494,"x_min":-3,"x_max":422,"o":"m 46 0 l 76 219 l -3 188 l 8 267 l 89 300 l 160 814 l 350 814 l 290 385 l 390 428 l 379 349 l 279 306 l 254 132 l 422 132 l 403 0 l 46 0 z "},"M":{"ha":749,"x_min":-3,"x_max":769,"o":"m -3 0 l 114 821 l 357 821 l 375 349 l 528 821 l 769 821 l 653 0 l 483 0 l 567 592 l 390 0 l 260 0 l 250 592 l 167 0 l -3 0 z "},"N":{"ha":563,"x_min":-3,"x_max":583,"o":"m -3 0 l 114 821 l 281 821 l 353 383 l 415 821 l 583 821 l 467 0 l 300 0 l 224 400 l 167 0 l -3 0 z "},"Ń":{"ha":563,"x_min":-3,"x_max":583,"o":"m -3 0 l 114 821 l 281 821 l 353 383 l 415 821 l 583 821 l 467 0 l 300 0 l 224 400 l 167 0 l -3 0 m 249 882 l 375 1018 l 544 1018 l 353 882 l 249 882 z "},"Ň":{"ha":563,"x_min":-3,"x_max":583,"o":"m -3 0 l 114 821 l 281 821 l 353 383 l 415 821 l 583 821 l 467 0 l 300 0 l 224 400 l 167 0 l -3 0 m 303 876 l 186 1022 l 306 1022 l 368 958 l 449 1021 l 565 1021 l 406 876 l 303 876 z "},"Ņ":{"ha":563,"x_min":-3,"x_max":583,"o":"m -3 0 l 114 821 l 281 821 l 353 383 l 415 821 l 583 821 l 467 0 l 300 0 l 224 400 l 167 0 l -3 0 m 110 -281 q 153 -222 138 -247 q 169 -181 169 -196 q 162 -162 171 -169 q 144 -143 153 -154 q 139 -112 136 -132 q 165 -71 140 -90 q 224 -51 189 -51 q 280 -71 260 -51 q 297 -121 300 -90 q 276 -170 294 -140 q 234 -229 258 -200 q 186 -281 210 -258 l 110 -281 z "},"Њ":{"ha":828,"x_min":-3,"x_max":818,"o":"m -3 0 l 114 821 l 307 821 l 260 494 l 350 494 l 397 821 l 590 821 l 560 606 l 675 606 q 748 593 714 606 q 800 547 782 581 q 808 446 818 514 l 776 219 q 747 101 767 144 q 699 35 726 57 q 636 7 671 14 q 560 0 601 0 l 281 0 l 331 351 l 240 351 l 190 0 l -3 0 m 488 99 l 532 99 q 558 108 549 99 q 574 143 568 117 q 588 221 581 169 l 608 371 q 617 446 615 419 q 610 481 618 472 q 585 490 603 490 l 542 490 l 488 99 z "},"Ñ":{"ha":563,"x_min":-3,"x_max":583,"o":"m -3 0 l 114 821 l 281 821 l 353 383 l 415 821 l 583 821 l 467 0 l 300 0 l 224 400 l 167 0 l -3 0 m 425 896 q 385 905 403 896 q 349 925 367 914 q 319 940 335 933 q 288 947 304 947 q 258 933 269 947 q 242 897 246 919 l 189 897 q 228 995 197 958 q 301 1032 260 1032 q 344 1024 325 1032 q 379 1007 363 1017 q 409 992 394 999 q 439 985 424 985 q 471 997 460 985 q 488 1028 482 1010 l 546 1028 q 498 930 536 964 q 425 896 460 896 z "},"O":{"ha":565,"x_min":7,"x_max":581,"o":"m 231 -17 q 106 1 158 -17 q 30 71 53 18 q 22 229 7 124 l 81 647 q 127 758 90 718 q 222 816 164 799 q 350 833 279 833 q 476 816 424 833 q 555 758 529 799 q 571 647 581 718 l 513 231 q 459 71 499 124 q 362 1 419 18 q 231 -17 304 -17 m 247 96 q 273 100 260 96 q 297 118 286 104 q 310 156 307 132 l 379 656 q 376 693 383 681 q 358 710 369 706 q 333 715 346 715 q 308 710 321 715 q 285 693 294 706 q 271 656 275 681 l 200 156 q 204 118 197 132 q 222 100 211 104 q 247 96 233 96 z "},"О":{"ha":565,"x_min":7,"x_max":581,"o":"m 231 -17 q 106 1 158 -17 q 30 71 53 18 q 22 229 7 124 l 81 647 q 127 758 90 718 q 222 816 164 799 q 350 833 279 833 q 476 816 424 833 q 555 758 529 799 q 571 647 581 718 l 513 231 q 459 71 499 124 q 362 1 419 18 q 231 -17 304 -17 m 247 96 q 273 100 260 96 q 297 118 286 104 q 310 156 307 132 l 379 656 q 376 693 383 681 q 358 710 369 706 q 333 715 346 715 q 308 710 321 715 q 285 693 294 706 q 271 656 275 681 l 200 156 q 204 118 197 132 q 222 100 211 104 q 247 96 233 96 z "},"Œ":{"ha":764,"x_min":7,"x_max":804,"o":"m 225 -17 q 103 1 154 -17 q 30 71 53 18 q 22 229 7 124 l 81 647 q 126 758 90 718 q 218 816 163 799 q 344 833 274 833 q 456 816 408 833 q 524 758 503 799 q 536 647 546 718 l 478 231 q 427 71 463 124 q 340 1 392 18 q 225 -17 289 -17 m 240 96 q 267 101 256 96 q 288 120 279 107 q 297 156 296 133 l 368 656 q 367 690 372 676 q 352 710 363 704 q 328 715 342 715 q 302 710 314 715 q 283 690 290 704 q 271 656 275 676 l 200 156 q 202 120 197 133 q 217 101 207 107 q 240 96 226 96 m 278 0 l 393 821 l 804 821 l 785 686 l 565 686 l 539 497 l 736 497 l 715 346 l 517 346 l 488 132 l 707 132 l 689 0 l 278 0 z "},"Ó":{"ha":565,"x_min":7,"x_max":581,"o":"m 231 -17 q 106 1 158 -17 q 30 71 53 18 q 22 229 7 124 l 81 647 q 127 758 90 718 q 222 816 164 799 q 350 833 279 833 q 476 816 424 833 q 555 758 529 799 q 571 647 581 718 l 513 231 q 459 71 499 124 q 362 1 419 18 q 231 -17 304 -17 m 247 96 q 273 100 260 96 q 297 118 286 104 q 310 156 307 132 l 379 656 q 376 693 383 681 q 358 710 369 706 q 333 715 346 715 q 308 710 321 715 q 285 693 294 706 q 271 656 275 681 l 200 156 q 204 118 197 132 q 222 100 211 104 q 247 96 233 96 m 251 882 l 378 1018 l 547 1018 l 356 882 l 251 882 z "},"Ǒ":{"ha":565,"x_min":7,"x_max":581,"o":"m 231 -17 q 106 1 158 -17 q 30 71 53 18 q 22 229 7 124 l 81 647 q 127 758 90 718 q 222 816 164 799 q 350 833 279 833 q 476 816 424 833 q 555 758 529 799 q 571 647 581 718 l 513 231 q 459 71 499 124 q 362 1 419 18 q 231 -17 304 -17 m 247 96 q 273 100 260 96 q 297 118 286 104 q 310 156 307 132 l 379 656 q 376 693 383 681 q 358 710 369 706 q 333 715 346 715 q 308 710 321 715 q 285 693 294 706 q 271 656 275 681 l 200 156 q 204 118 197 132 q 222 100 211 104 q 247 96 233 96 m 306 876 l 189 1022 l 308 1022 l 371 958 l 451 1021 l 568 1021 l 408 876 l 306 876 z "},"Ô":{"ha":565,"x_min":7,"x_max":581,"o":"m 231 -17 q 106 1 158 -17 q 30 71 53 18 q 22 229 7 124 l 81 647 q 127 758 90 718 q 222 816 164 799 q 350 833 279 833 q 476 816 424 833 q 555 758 529 799 q 571 647 581 718 l 513 231 q 459 71 499 124 q 362 1 419 18 q 231 -17 304 -17 m 247 96 q 273 100 260 96 q 297 118 286 104 q 310 156 307 132 l 379 656 q 376 693 383 681 q 358 710 369 706 q 333 715 346 715 q 308 710 321 715 q 285 693 294 706 q 271 656 275 681 l 200 156 q 204 118 197 132 q 222 100 211 104 q 247 96 233 96 m 169 876 l 328 1022 l 431 1022 l 547 878 l 431 878 l 368 942 l 288 876 l 169 876 z "},"Ố":{"ha":565,"x_min":7,"x_max":736,"o":"m 231 -17 q 106 1 158 -17 q 30 71 53 18 q 22 229 7 124 l 81 647 q 127 758 90 718 q 222 816 164 799 q 350 833 279 833 q 476 816 424 833 q 555 758 529 799 q 571 647 581 718 l 513 231 q 459 71 499 124 q 362 1 419 18 q 231 -17 304 -17 m 247 96 q 273 100 260 96 q 297 118 286 104 q 310 156 307 132 l 379 656 q 376 693 383 681 q 358 710 369 706 q 333 715 346 715 q 308 710 321 715 q 285 693 294 706 q 271 656 275 681 l 200 156 q 204 118 197 132 q 222 100 211 104 q 247 96 233 96 m 208 868 l 325 990 l 422 990 l 507 868 l 400 868 l 365 915 l 318 868 l 208 868 m 497 940 l 564 1049 l 736 1049 l 617 940 l 497 940 z "},"Ộ":{"ha":565,"x_min":7,"x_max":581,"o":"m 231 -17 q 106 1 158 -17 q 30 71 53 18 q 22 229 7 124 l 81 647 q 127 758 90 718 q 222 816 164 799 q 350 833 279 833 q 476 816 424 833 q 555 758 529 799 q 571 647 581 718 l 513 231 q 459 71 499 124 q 362 1 419 18 q 231 -17 304 -17 m 247 96 q 273 100 260 96 q 297 118 286 104 q 310 156 307 132 l 379 656 q 376 693 383 681 q 358 710 369 706 q 333 715 346 715 q 308 710 321 715 q 285 693 294 706 q 271 656 275 681 l 200 156 q 204 118 197 132 q 222 100 211 104 q 247 96 233 96 m 218 -192 q 165 -171 186 -192 q 143 -119 143 -150 q 165 -69 143 -89 q 218 -49 186 -49 q 271 -69 250 -49 q 292 -119 292 -89 q 271 -171 292 -150 q 218 -192 250 -192 m 169 876 l 328 1022 l 431 1022 l 547 878 l 431 878 l 368 942 l 288 876 l 169 876 z "},"Ồ":{"ha":565,"x_min":7,"x_max":642,"o":"m 231 -17 q 106 1 158 -17 q 30 71 53 18 q 22 229 7 124 l 81 647 q 127 758 90 718 q 222 816 164 799 q 350 833 279 833 q 476 816 424 833 q 555 758 529 799 q 571 647 581 718 l 513 231 q 459 71 499 124 q 362 1 419 18 q 231 -17 304 -17 m 247 96 q 273 100 260 96 q 297 118 286 104 q 310 156 307 132 l 379 656 q 376 693 383 681 q 358 710 369 706 q 333 715 346 715 q 308 710 321 715 q 285 693 294 706 q 271 656 275 681 l 200 156 q 204 118 197 132 q 222 100 211 104 q 247 96 233 96 m 208 868 l 325 990 l 422 990 l 507 868 l 400 868 l 365 915 l 318 868 l 208 868 m 524 940 l 426 1049 l 601 1049 l 643 940 l 524 940 z "},"Ổ":{"ha":565,"x_min":7,"x_max":682,"o":"m 231 -17 q 106 1 158 -17 q 30 71 53 18 q 22 229 7 124 l 81 647 q 127 758 90 718 q 222 816 164 799 q 350 833 279 833 q 476 816 424 833 q 555 758 529 799 q 571 647 581 718 l 513 231 q 459 71 499 124 q 362 1 419 18 q 231 -17 304 -17 m 247 96 q 273 100 260 96 q 297 118 286 104 q 310 156 307 132 l 379 656 q 376 693 383 681 q 358 710 369 706 q 333 715 346 715 q 308 710 321 715 q 285 693 294 706 q 271 656 275 681 l 200 156 q 204 118 197 132 q 222 100 211 104 q 247 96 233 96 m 208 868 l 325 990 l 422 990 l 507 868 l 400 868 l 365 915 l 318 868 l 208 868 m 528 926 l 532 951 q 543 972 535 967 q 560 983 551 978 q 569 997 568 988 l 574 1013 q 575 1019 575 1015 q 572 1022 575 1022 q 564 1004 565 1022 l 485 1015 q 517 1068 492 1051 q 588 1085 542 1085 q 660 1065 636 1085 q 676 1007 683 1046 l 675 1001 q 664 970 671 978 q 649 962 657 963 q 637 958 642 961 q 629 943 632 956 l 626 926 l 528 926 z "},"Ỗ":{"ha":565,"x_min":7,"x_max":581,"o":"m 231 -17 q 106 1 158 -17 q 30 71 53 18 q 22 229 7 124 l 81 647 q 127 758 90 718 q 222 816 164 799 q 350 833 279 833 q 476 816 424 833 q 555 758 529 799 q 571 647 581 718 l 513 231 q 459 71 499 124 q 362 1 419 18 q 231 -17 304 -17 m 247 96 q 273 100 260 96 q 297 118 286 104 q 310 156 307 132 l 379 656 q 376 693 383 681 q 358 710 369 706 q 333 715 346 715 q 308 710 321 715 q 285 693 294 706 q 271 656 275 681 l 200 156 q 204 118 197 132 q 222 100 211 104 q 247 96 233 96 m 208 868 l 325 990 l 422 990 l 507 868 l 400 868 l 365 915 l 318 868 l 208 868 m 429 1011 q 395 1019 411 1011 q 368 1033 379 1026 q 344 1044 354 1040 q 321 1047 333 1047 q 301 1037 308 1047 q 290 1013 293 1026 l 244 1013 q 276 1099 251 1068 q 335 1129 301 1129 q 365 1124 350 1129 q 396 1113 381 1119 q 421 1101 410 1107 q 442 1096 432 1096 q 465 1106 458 1096 q 476 1126 472 1117 l 528 1126 q 506 1063 524 1088 q 467 1024 489 1038 q 429 1011 446 1011 z "},"Ö":{"ha":565,"x_min":7,"x_max":581,"o":"m 231 -17 q 106 1 158 -17 q 30 71 53 18 q 22 229 7 124 l 81 647 q 127 758 90 718 q 222 816 164 799 q 350 833 279 833 q 476 816 424 833 q 555 758 529 799 q 571 647 581 718 l 513 231 q 459 71 499 124 q 362 1 419 18 q 231 -17 304 -17 m 247 96 q 273 100 260 96 q 297 118 286 104 q 310 156 307 132 l 379 656 q 376 693 383 681 q 358 710 369 706 q 333 715 346 715 q 308 710 321 715 q 285 693 294 706 q 271 656 275 681 l 200 156 q 204 118 197 132 q 222 100 211 104 q 247 96 233 96 m 279 883 q 226 904 247 883 q 204 956 204 925 q 226 1005 204 985 q 279 1025 247 1025 q 332 1005 311 1025 q 353 956 353 985 q 332 904 353 925 q 279 883 311 883 m 460 883 q 406 904 428 883 q 385 956 385 925 q 406 1005 385 985 q 460 1025 428 1025 q 513 1005 492 1025 q 533 956 533 985 q 513 904 533 925 q 460 883 492 883 z "},"Ọ":{"ha":565,"x_min":7,"x_max":581,"o":"m 231 -17 q 106 1 158 -17 q 30 71 53 18 q 22 229 7 124 l 81 647 q 127 758 90 718 q 222 816 164 799 q 350 833 279 833 q 476 816 424 833 q 555 758 529 799 q 571 647 581 718 l 513 231 q 459 71 499 124 q 362 1 419 18 q 231 -17 304 -17 m 247 96 q 273 100 260 96 q 297 118 286 104 q 310 156 307 132 l 379 656 q 376 693 383 681 q 358 710 369 706 q 333 715 346 715 q 308 710 321 715 q 285 693 294 706 q 271 656 275 681 l 200 156 q 204 118 197 132 q 222 100 211 104 q 247 96 233 96 m 218 -192 q 165 -171 186 -192 q 143 -119 143 -150 q 165 -69 143 -89 q 218 -49 186 -49 q 271 -69 250 -49 q 292 -119 292 -89 q 271 -171 292 -150 q 218 -192 250 -192 z "},"Ò":{"ha":565,"x_min":7,"x_max":581,"o":"m 231 -17 q 106 1 158 -17 q 30 71 53 18 q 22 229 7 124 l 81 647 q 127 758 90 718 q 222 816 164 799 q 350 833 279 833 q 476 816 424 833 q 555 758 529 799 q 571 647 581 718 l 513 231 q 459 71 499 124 q 362 1 419 18 q 231 -17 304 -17 m 247 96 q 273 100 260 96 q 297 118 286 104 q 310 156 307 132 l 379 656 q 376 693 383 681 q 358 710 369 706 q 333 715 346 715 q 308 710 321 715 q 285 693 294 706 q 271 656 275 681 l 200 156 q 204 118 197 132 q 222 100 211 104 q 247 96 233 96 m 329 882 l 169 1013 l 342 1013 l 446 882 l 329 882 z "},"Ỏ":{"ha":565,"x_min":7,"x_max":581,"o":"m 231 -17 q 106 1 158 -17 q 30 71 53 18 q 22 229 7 124 l 81 647 q 127 758 90 718 q 222 816 164 799 q 350 833 279 833 q 476 816 424 833 q 555 758 529 799 q 571 647 581 718 l 513 231 q 459 71 499 124 q 362 1 419 18 q 231 -17 304 -17 m 247 96 q 273 100 260 96 q 297 118 286 104 q 310 156 307 132 l 379 656 q 376 693 383 681 q 358 710 369 706 q 333 715 346 715 q 308 710 321 715 q 285 693 294 706 q 271 656 275 681 l 200 156 q 204 118 197 132 q 222 100 211 104 q 247 96 233 96 m 307 854 l 311 888 q 328 917 314 908 q 355 932 342 925 q 371 956 368 939 l 374 971 q 373 990 376 982 q 358 997 369 997 q 335 968 340 997 l 253 981 q 292 1043 261 1022 q 375 1064 322 1064 q 460 1038 433 1064 q 479 965 488 1013 l 478 960 q 462 918 472 929 q 440 903 451 907 q 421 897 429 900 q 410 878 413 893 l 407 854 l 307 854 z "},"Ơ":{"ha":565,"x_min":7,"x_max":632,"o":"m 231 -17 q 106 1 158 -17 q 30 71 53 18 q 22 229 7 124 l 81 647 q 127 758 90 718 q 222 816 164 799 q 350 833 279 833 q 476 816 424 833 q 555 758 529 799 q 571 647 581 718 l 513 231 q 459 71 499 124 q 362 1 419 18 q 231 -17 304 -17 m 247 96 q 273 100 260 96 q 297 118 286 104 q 310 156 307 132 l 379 656 q 376 693 383 681 q 358 710 369 706 q 333 715 346 715 q 308 710 321 715 q 285 693 294 706 q 271 656 275 681 l 200 156 q 204 118 197 132 q 222 100 211 104 q 247 96 233 96 m 401 739 l 411 821 l 438 821 q 507 885 497 821 l 510 913 l 632 913 l 629 886 q 561 772 618 806 q 401 739 504 739 z "},"Ớ":{"ha":565,"x_min":7,"x_max":632,"o":"m 231 -17 q 106 1 158 -17 q 30 71 53 18 q 22 229 7 124 l 81 647 q 127 758 90 718 q 222 816 164 799 q 350 833 279 833 q 476 816 424 833 q 555 758 529 799 q 571 647 581 718 l 513 231 q 459 71 499 124 q 362 1 419 18 q 231 -17 304 -17 m 247 96 q 273 100 260 96 q 297 118 286 104 q 310 156 307 132 l 379 656 q 376 693 383 681 q 358 710 369 706 q 333 715 346 715 q 308 710 321 715 q 285 693 294 706 q 271 656 275 681 l 200 156 q 204 118 197 132 q 222 100 211 104 q 247 96 233 96 m 401 739 l 411 821 l 438 821 q 507 885 497 821 l 510 913 l 632 913 l 629 886 q 561 772 618 806 q 401 739 504 739 m 251 882 l 378 1018 l 547 1018 l 356 882 l 251 882 z "},"Ợ":{"ha":565,"x_min":7,"x_max":632,"o":"m 231 -17 q 106 1 158 -17 q 30 71 53 18 q 22 229 7 124 l 81 647 q 127 758 90 718 q 222 816 164 799 q 350 833 279 833 q 476 816 424 833 q 555 758 529 799 q 571 647 581 718 l 513 231 q 459 71 499 124 q 362 1 419 18 q 231 -17 304 -17 m 247 96 q 273 100 260 96 q 297 118 286 104 q 310 156 307 132 l 379 656 q 376 693 383 681 q 358 710 369 706 q 333 715 346 715 q 308 710 321 715 q 285 693 294 706 q 271 656 275 681 l 200 156 q 204 118 197 132 q 222 100 211 104 q 247 96 233 96 m 401 739 l 411 821 l 438 821 q 507 885 497 821 l 510 913 l 632 913 l 629 886 q 561 772 618 806 q 401 739 504 739 m 218 -192 q 165 -171 186 -192 q 143 -119 143 -150 q 165 -69 143 -89 q 218 -49 186 -49 q 271 -69 250 -49 q 292 -119 292 -89 q 271 -171 292 -150 q 218 -192 250 -192 z "},"Ờ":{"ha":565,"x_min":7,"x_max":632,"o":"m 231 -17 q 106 1 158 -17 q 30 71 53 18 q 22 229 7 124 l 81 647 q 127 758 90 718 q 222 816 164 799 q 350 833 279 833 q 476 816 424 833 q 555 758 529 799 q 571 647 581 718 l 513 231 q 459 71 499 124 q 362 1 419 18 q 231 -17 304 -17 m 247 96 q 273 100 260 96 q 297 118 286 104 q 310 156 307 132 l 379 656 q 376 693 383 681 q 358 710 369 706 q 333 715 346 715 q 308 710 321 715 q 285 693 294 706 q 271 656 275 681 l 200 156 q 204 118 197 132 q 222 100 211 104 q 247 96 233 96 m 401 739 l 411 821 l 438 821 q 507 885 497 821 l 510 913 l 632 913 l 629 886 q 561 772 618 806 q 401 739 504 739 m 329 882 l 169 1013 l 342 1013 l 446 882 l 329 882 z "},"Ở":{"ha":565,"x_min":7,"x_max":632,"o":"m 231 -17 q 106 1 158 -17 q 30 71 53 18 q 22 229 7 124 l 81 647 q 127 758 90 718 q 222 816 164 799 q 350 833 279 833 q 476 816 424 833 q 555 758 529 799 q 571 647 581 718 l 513 231 q 459 71 499 124 q 362 1 419 18 q 231 -17 304 -17 m 247 96 q 273 100 260 96 q 297 118 286 104 q 310 156 307 132 l 379 656 q 376 693 383 681 q 358 710 369 706 q 333 715 346 715 q 308 710 321 715 q 285 693 294 706 q 271 656 275 681 l 200 156 q 204 118 197 132 q 222 100 211 104 q 247 96 233 96 m 401 739 l 411 821 l 438 821 q 507 885 497 821 l 510 913 l 632 913 l 629 886 q 561 772 618 806 q 401 739 504 739 m 307 854 l 311 888 q 328 917 314 908 q 355 932 342 925 q 371 956 368 939 l 374 971 q 373 990 376 982 q 358 997 369 997 q 335 968 340 997 l 253 981 q 292 1043 261 1022 q 375 1064 322 1064 q 460 1038 433 1064 q 479 965 488 1013 l 478 960 q 462 918 472 929 q 440 903 451 907 q 421 897 429 900 q 410 878 413 893 l 407 854 l 307 854 z "},"Ỡ":{"ha":565,"x_min":7,"x_max":632,"o":"m 231 -17 q 106 1 158 -17 q 30 71 53 18 q 22 229 7 124 l 81 647 q 127 758 90 718 q 222 816 164 799 q 350 833 279 833 q 476 816 424 833 q 555 758 529 799 q 571 647 581 718 l 513 231 q 459 71 499 124 q 362 1 419 18 q 231 -17 304 -17 m 247 96 q 273 100 260 96 q 297 118 286 104 q 310 156 307 132 l 379 656 q 376 693 383 681 q 358 710 369 706 q 333 715 346 715 q 308 710 321 715 q 285 693 294 706 q 271 656 275 681 l 200 156 q 204 118 197 132 q 222 100 211 104 q 247 96 233 96 m 401 739 l 411 821 l 438 821 q 507 885 497 821 l 510 913 l 632 913 l 629 886 q 561 772 618 806 q 401 739 504 739 m 426 883 q 386 892 404 883 q 350 913 368 901 q 321 928 336 921 q 289 935 306 935 q 259 921 271 935 q 243 885 247 907 l 190 885 q 230 983 199 946 q 303 1019 261 1019 q 345 1012 326 1019 q 381 994 364 1004 q 410 979 396 986 q 440 972 425 972 q 472 985 461 972 q 489 1015 483 997 l 547 1015 q 499 917 538 951 q 426 883 461 883 z "},"Ő":{"ha":565,"x_min":7,"x_max":608,"o":"m 231 -17 q 106 1 158 -17 q 30 71 53 18 q 22 229 7 124 l 81 647 q 127 758 90 718 q 222 816 164 799 q 350 833 279 833 q 476 816 424 833 q 555 758 529 799 q 571 647 581 718 l 513 231 q 459 71 499 124 q 362 1 419 18 q 231 -17 304 -17 m 247 96 q 273 100 260 96 q 297 118 286 104 q 310 156 307 132 l 379 656 q 376 693 383 681 q 358 710 369 706 q 333 715 346 715 q 308 710 321 715 q 285 693 294 706 q 271 656 275 681 l 200 156 q 204 118 197 132 q 222 100 211 104 q 247 96 233 96 m 265 875 l 299 1018 l 442 1018 l 338 875 l 265 875 m 410 875 l 467 1018 l 610 1018 l 494 875 l 410 875 z "},"Ō":{"ha":565,"x_min":7,"x_max":581,"o":"m 231 -17 q 106 1 158 -17 q 30 71 53 18 q 22 229 7 124 l 81 647 q 127 758 90 718 q 222 816 164 799 q 350 833 279 833 q 476 816 424 833 q 555 758 529 799 q 571 647 581 718 l 513 231 q 459 71 499 124 q 362 1 419 18 q 231 -17 304 -17 m 247 96 q 273 100 260 96 q 297 118 286 104 q 310 156 307 132 l 379 656 q 376 693 383 681 q 358 710 369 706 q 333 715 346 715 q 308 710 321 715 q 285 693 294 706 q 271 656 275 681 l 200 156 q 204 118 197 132 q 222 100 211 104 q 247 96 233 96 m 213 894 l 225 989 l 524 989 l 511 894 l 213 894 z "},"Ω":{"ha":833,"x_min":6,"x_max":819,"o":"m 6 0 l 25 139 l 233 133 l 201 154 q 135 223 165 185 q 92 315 106 261 q 88 442 78 368 q 121 574 96 511 q 193 683 146 636 q 315 758 240 731 q 493 785 389 785 q 665 757 599 785 q 765 682 731 729 q 809 575 799 635 q 811 453 819 515 q 774 318 801 374 q 708 224 746 263 q 629 154 671 185 l 593 133 l 804 139 l 785 0 l 443 0 l 458 111 q 526 173 497 142 q 576 239 556 204 q 608 315 596 274 q 625 407 619 356 q 624 536 633 478 q 579 629 614 594 q 475 664 544 664 q 362 629 406 664 q 294 536 318 594 q 263 403 271 478 q 258 317 256 358 q 272 240 261 276 q 306 171 283 203 q 364 111 329 139 l 349 0 l 6 0 z "},"Ø":{"ha":574,"x_min":-28,"x_max":599,"o":"m -28 -21 l 515 821 l 599 821 l 56 -21 l -28 -21 m 229 -17 q 104 1 157 -17 q 28 71 51 18 q 21 229 6 124 l 79 647 q 125 758 89 718 q 219 816 161 799 q 349 833 276 833 q 472 816 422 833 q 545 758 522 799 q 557 647 568 718 l 499 231 q 449 71 485 124 q 358 1 413 18 q 229 -17 303 -17 m 244 96 q 268 100 258 96 q 285 118 278 104 q 296 156 293 132 l 367 656 q 367 693 371 681 q 354 710 363 706 q 333 715 346 715 q 309 710 319 715 q 292 693 299 706 q 281 656 285 681 l 210 156 q 210 118 207 132 q 223 100 214 104 q 244 96 232 96 z "},"Õ":{"ha":565,"x_min":7,"x_max":581,"o":"m 231 -17 q 106 1 158 -17 q 30 71 53 18 q 22 229 7 124 l 81 647 q 127 758 90 718 q 222 816 164 799 q 350 833 279 833 q 476 816 424 833 q 555 758 529 799 q 571 647 581 718 l 513 231 q 459 71 499 124 q 362 1 419 18 q 231 -17 304 -17 m 247 96 q 273 100 260 96 q 297 118 286 104 q 310 156 307 132 l 379 656 q 376 693 383 681 q 358 710 369 706 q 333 715 346 715 q 308 710 321 715 q 285 693 294 706 q 271 656 275 681 l 200 156 q 204 118 197 132 q 222 100 211 104 q 247 96 233 96 m 426 883 q 386 892 404 883 q 350 913 368 901 q 321 928 336 921 q 289 935 306 935 q 259 921 271 935 q 243 885 247 907 l 190 885 q 230 983 199 946 q 303 1019 261 1019 q 345 1012 326 1019 q 381 994 364 1004 q 410 979 396 986 q 440 972 425 972 q 472 985 461 972 q 489 1015 483 997 l 547 1015 q 499 917 538 951 q 426 883 461 883 z "},"P":{"ha":550,"x_min":-3,"x_max":581,"o":"m -3 0 l 114 821 l 422 821 q 544 783 508 821 q 571 682 581 744 l 553 542 q 523 433 544 483 q 461 351 501 382 q 356 321 421 321 l 244 321 l 199 0 l -3 0 m 258 425 l 297 425 q 338 456 321 425 q 364 563 354 486 l 368 596 q 374 690 378 663 q 347 718 369 718 l 300 718 l 258 425 z "},"П":{"ha":578,"x_min":-3,"x_max":599,"o":"m -3 0 l 114 821 l 599 821 l 482 0 l 281 0 l 378 686 l 296 686 l 199 0 l -3 0 z "},"Q":{"ha":565,"x_min":8,"x_max":579,"o":"m 325 -175 l 256 -11 q 242 -12 249 -11 q 228 -12 236 -12 q 106 5 158 -12 q 31 76 54 22 q 24 233 8 129 l 81 647 q 128 758 90 718 q 224 816 165 799 q 356 833 282 833 q 481 816 429 833 q 556 758 532 799 q 569 647 579 718 l 511 235 q 473 102 500 151 q 407 28 446 53 l 463 -101 l 325 -175 m 253 100 q 278 105 267 100 q 297 123 289 110 q 308 160 306 136 l 378 656 q 378 693 382 681 q 363 710 374 706 q 339 715 353 715 q 313 710 325 715 q 294 693 301 706 q 282 656 286 681 l 214 160 q 215 123 211 136 q 228 105 218 110 q 253 100 239 100 z "},"R":{"ha":586,"x_min":-3,"x_max":590,"o":"m -3 0 l 114 821 l 432 821 q 554 783 518 821 q 581 682 590 744 l 564 554 q 517 446 554 493 q 404 392 479 399 l 404 389 q 467 358 451 381 q 489 283 482 335 l 524 0 l 310 0 l 296 271 q 292 307 294 292 q 285 331 290 322 q 271 340 281 340 l 247 340 l 199 0 l -3 0 m 265 472 l 308 472 q 351 490 335 472 q 374 551 367 508 l 386 646 q 383 703 393 688 q 351 718 374 718 l 300 718 l 265 472 z "},"Ŕ":{"ha":586,"x_min":-3,"x_max":590,"o":"m -3 0 l 114 821 l 432 821 q 554 783 518 821 q 581 682 590 744 l 564 554 q 517 446 554 493 q 404 392 479 399 l 404 389 q 467 358 451 381 q 489 283 482 335 l 524 0 l 310 0 l 296 271 q 292 307 294 292 q 285 331 290 322 q 271 340 281 340 l 247 340 l 199 0 l -3 0 m 265 472 l 308 472 q 351 490 335 472 q 374 551 367 508 l 386 646 q 383 703 393 688 q 351 718 374 718 l 300 718 l 265 472 m 261 882 l 388 1018 l 557 1018 l 365 882 l 261 882 z "},"Ř":{"ha":586,"x_min":-3,"x_max":590,"o":"m -3 0 l 114 821 l 432 821 q 554 783 518 821 q 581 682 590 744 l 564 554 q 517 446 554 493 q 404 392 479 399 l 404 389 q 467 358 451 381 q 489 283 482 335 l 524 0 l 310 0 l 296 271 q 292 307 294 292 q 285 331 290 322 q 271 340 281 340 l 247 340 l 199 0 l -3 0 m 265 472 l 308 472 q 351 490 335 472 q 374 551 367 508 l 386 646 q 383 703 393 688 q 351 718 374 718 l 300 718 l 265 472 m 315 876 l 199 1022 l 318 1022 l 381 958 l 461 1021 l 578 1021 l 418 876 l 315 876 z "},"Ŗ":{"ha":586,"x_min":-3,"x_max":590,"o":"m -3 0 l 114 821 l 432 821 q 554 783 518 821 q 581 682 590 744 l 564 554 q 517 446 554 493 q 404 392 479 399 l 404 389 q 467 358 451 381 q 489 283 482 335 l 524 0 l 310 0 l 296 271 q 292 307 294 292 q 285 331 290 322 q 271 340 281 340 l 247 340 l 199 0 l -3 0 m 265 472 l 308 472 q 351 490 335 472 q 374 551 367 508 l 386 646 q 383 703 393 688 q 351 718 374 718 l 300 718 l 265 472 m 126 -281 q 170 -222 154 -247 q 186 -181 186 -196 q 178 -162 188 -169 q 161 -143 169 -154 q 156 -112 153 -132 q 181 -71 157 -90 q 240 -51 206 -51 q 297 -71 276 -51 q 314 -121 317 -90 q 293 -170 311 -140 q 251 -229 275 -200 q 203 -281 226 -258 l 126 -281 z "},"S":{"ha":553,"x_min":-1,"x_max":571,"o":"m 239 -11 q 94 10 150 -11 q 19 83 39 31 q 11 235 -1 136 l 18 285 l 219 285 l 210 218 q 206 151 204 174 q 218 119 208 128 q 243 111 228 111 q 281 130 265 111 q 304 204 296 149 q 299 276 311 253 q 255 314 286 299 q 171 351 224 329 q 98 406 124 375 q 65 482 72 436 q 67 590 58 528 q 109 726 79 675 q 194 801 139 778 q 343 824 250 824 q 516 774 461 824 q 557 626 571 725 l 542 525 q 447 525 494 525 q 350 525 399 525 l 357 568 q 360 649 365 626 q 325 671 354 671 q 285 653 297 671 q 267 597 274 636 q 273 536 263 558 q 308 501 283 514 q 369 472 332 488 q 465 424 429 449 q 512 357 500 400 q 511 233 524 314 q 460 88 499 142 q 364 12 421 35 q 239 -11 307 -11 z "},"Š":{"ha":553,"x_min":-1,"x_max":575,"o":"m 239 -11 q 94 10 150 -11 q 19 83 39 31 q 11 235 -1 136 l 18 285 l 219 285 l 210 218 q 206 151 204 174 q 218 119 208 128 q 243 111 228 111 q 281 130 265 111 q 304 204 296 149 q 299 276 311 253 q 255 314 286 299 q 171 351 224 329 q 98 406 124 375 q 65 482 72 436 q 67 590 58 528 q 109 726 79 675 q 194 801 139 778 q 343 824 250 824 q 516 774 461 824 q 557 626 571 725 l 542 525 q 447 525 494 525 q 350 525 399 525 l 357 568 q 360 649 365 626 q 325 671 354 671 q 285 653 297 671 q 267 597 274 636 q 273 536 263 558 q 308 501 283 514 q 369 472 332 488 q 465 424 429 449 q 512 357 500 400 q 511 233 524 314 q 460 88 499 142 q 364 12 421 35 q 239 -11 307 -11 m 313 876 l 196 1022 l 315 1022 l 378 958 l 458 1021 l 575 1021 l 415 876 l 313 876 z "},"Ş":{"ha":553,"x_min":-1,"x_max":571,"o":"m 239 -11 q 94 10 150 -11 q 19 83 39 31 q 11 235 -1 136 l 18 285 l 219 285 l 210 218 q 206 151 204 174 q 218 119 208 128 q 243 111 228 111 q 281 130 265 111 q 304 204 296 149 q 299 276 311 253 q 255 314 286 299 q 171 351 224 329 q 98 406 124 375 q 65 482 72 436 q 67 590 58 528 q 109 726 79 675 q 194 801 139 778 q 343 824 250 824 q 516 774 461 824 q 557 626 571 725 l 542 525 q 447 525 494 525 q 350 525 399 525 l 357 568 q 360 649 365 626 q 325 671 354 671 q 285 653 297 671 q 267 597 274 636 q 273 536 263 558 q 308 501 283 514 q 369 472 332 488 q 465 424 429 449 q 512 357 500 400 q 511 233 524 314 q 460 88 499 142 q 364 12 421 35 q 239 -11 307 -11 m 188 -226 q 136 -215 160 -226 q 104 -199 113 -204 l 136 -140 q 158 -153 143 -147 q 189 -160 174 -160 q 222 -150 210 -160 q 235 -125 233 -140 q 211 -99 239 -99 q 196 -101 203 -99 q 185 -107 189 -104 l 139 -81 l 193 0 l 264 0 l 218 -65 l 210 -61 q 233 -51 219 -54 q 264 -47 247 -47 q 324 -72 307 -47 q 338 -128 342 -97 q 292 -197 332 -168 q 188 -226 251 -226 z "},"Ș":{"ha":553,"x_min":-1,"x_max":571,"o":"m 239 -11 q 94 10 150 -11 q 19 83 39 31 q 11 235 -1 136 l 18 285 l 219 285 l 210 218 q 206 151 204 174 q 218 119 208 128 q 243 111 228 111 q 281 130 265 111 q 304 204 296 149 q 299 276 311 253 q 255 314 286 299 q 171 351 224 329 q 98 406 124 375 q 65 482 72 436 q 67 590 58 528 q 109 726 79 675 q 194 801 139 778 q 343 824 250 824 q 516 774 461 824 q 557 626 571 725 l 542 525 q 447 525 494 525 q 350 525 399 525 l 357 568 q 360 649 365 626 q 325 671 354 671 q 285 653 297 671 q 267 597 274 636 q 273 536 263 558 q 308 501 283 514 q 369 472 332 488 q 465 424 429 449 q 512 357 500 400 q 511 233 524 314 q 460 88 499 142 q 364 12 421 35 q 239 -11 307 -11 m 107 -281 q 151 -222 135 -247 q 167 -181 167 -196 q 159 -162 168 -169 q 142 -143 150 -154 q 136 -112 133 -132 q 162 -71 138 -90 q 221 -51 186 -51 q 277 -71 257 -51 q 294 -121 297 -90 q 274 -170 292 -140 q 231 -229 256 -200 q 183 -281 207 -258 l 107 -281 z "},"Ш":{"ha":874,"x_min":-3,"x_max":894,"o":"m -3 0 l 114 821 l 315 821 l 218 135 l 307 135 l 404 821 l 604 821 l 507 135 l 597 135 l 694 821 l 894 821 l 778 0 l -3 0 z "},"Щ":{"ha":953,"x_min":-10,"x_max":888,"o":"m 703 -132 l 721 0 l -10 0 l 106 821 l 307 821 l 211 135 l 300 135 l 396 821 l 597 821 l 501 135 l 590 135 l 686 821 l 888 821 l 783 85 l 883 85 l 854 -132 l 703 -132 z "},"Ь":{"ha":539,"x_min":-6,"x_max":529,"o":"m -6 0 l 111 821 l 300 821 l 269 606 l 385 606 q 459 593 425 606 q 511 547 493 581 q 519 446 529 514 l 488 219 q 457 101 476 144 q 409 35 438 57 q 346 7 381 14 q 269 0 311 0 l -6 0 m 199 99 l 240 99 q 276 115 265 99 q 293 169 288 131 l 328 431 q 329 463 331 450 q 319 483 328 476 q 294 490 311 490 l 253 490 l 199 99 z "},"T":{"ha":463,"x_min":61,"x_max":518,"o":"m 86 0 l 183 686 l 61 686 l 81 821 l 518 821 l 497 686 l 375 686 l 278 0 l 86 0 z "},"Ŧ":{"ha":460,"x_min":61,"x_max":518,"o":"m 82 493 l 101 592 l 418 592 l 399 493 l 82 493 m 86 0 l 183 686 l 61 686 l 81 821 l 518 821 l 497 686 l 375 686 l 278 0 l 86 0 z "},"Ť":{"ha":463,"x_min":61,"x_max":518,"o":"m 86 0 l 183 686 l 61 686 l 81 821 l 518 821 l 497 686 l 375 686 l 278 0 l 86 0 m 253 876 l 136 1022 l 256 1022 l 318 958 l 399 1021 l 515 1021 l 356 876 l 253 876 z "},"Ţ":{"ha":463,"x_min":57,"x_max":518,"o":"m 86 0 l 183 686 l 61 686 l 81 821 l 518 821 l 497 686 l 375 686 l 278 0 l 86 0 m 140 -226 q 89 -215 113 -226 q 57 -199 65 -204 l 89 -140 q 111 -153 96 -147 q 142 -160 126 -160 q 174 -150 163 -160 q 188 -125 186 -140 q 164 -99 192 -99 q 149 -101 156 -99 q 138 -107 142 -104 l 92 -81 l 146 0 l 217 0 l 171 -65 l 163 -61 q 186 -51 172 -54 q 217 -47 200 -47 q 277 -72 260 -47 q 290 -128 294 -97 q 244 -197 285 -168 q 140 -226 204 -226 z "},"Ț":{"ha":463,"x_min":61,"x_max":518,"o":"m 86 0 l 183 686 l 61 686 l 81 821 l 518 821 l 497 686 l 375 686 l 278 0 l 86 0 m 60 -281 q 103 -222 88 -247 q 119 -181 119 -196 q 112 -162 121 -169 q 94 -143 103 -154 q 89 -112 86 -132 q 115 -71 90 -90 q 174 -51 139 -51 q 230 -71 210 -51 q 247 -121 250 -90 q 226 -170 244 -140 q 184 -229 208 -200 q 136 -281 160 -258 l 60 -281 z "},"Т":{"ha":463,"x_min":61,"x_max":518,"o":"m 86 0 l 183 686 l 61 686 l 81 821 l 518 821 l 497 686 l 375 686 l 278 0 l 86 0 z "},"Þ":{"ha":557,"x_min":-18,"x_max":544,"o":"m -18 0 l 99 821 l 300 821 l 281 682 l 386 682 q 509 644 474 682 q 536 543 544 607 l 517 403 q 487 294 508 344 q 426 212 465 243 q 321 181 386 181 l 208 181 l 182 0 l -18 0 m 222 286 l 261 286 q 302 317 286 286 q 328 422 318 347 l 333 457 q 339 552 343 525 q 311 579 335 579 l 264 579 l 222 286 z "},"Ц":{"ha":663,"x_min":-3,"x_max":604,"o":"m 419 -132 l 438 0 l -3 0 l 113 821 l 314 821 l 218 135 l 307 135 l 403 821 l 604 821 l 501 85 l 601 85 l 571 -132 l 419 -132 z "},"Ћ":{"ha":636,"x_min":60,"x_max":619,"o":"m 88 0 l 185 686 l 60 686 l 81 821 l 521 821 l 501 686 l 376 686 l 360 561 q 408 588 372 575 q 482 601 443 601 q 576 581 544 601 q 613 519 607 560 q 611 418 619 478 l 553 0 l 363 0 l 422 418 q 423 449 425 436 q 413 468 421 461 q 390 475 406 475 q 363 469 375 475 q 344 457 351 464 l 281 0 l 88 0 z "},"U":{"ha":561,"x_min":15,"x_max":583,"o":"m 231 -17 q 135 -9 178 -17 q 65 21 93 -1 q 26 90 38 43 q 26 215 15 136 l 111 821 l 304 821 l 211 160 q 212 124 208 138 q 225 106 215 111 q 247 101 235 101 q 269 106 258 101 q 288 124 279 111 q 299 160 296 138 l 392 821 l 583 821 l 499 217 q 465 90 489 138 q 407 21 442 43 q 328 -9 372 -1 q 231 -17 283 -17 z "},"У":{"ha":529,"x_min":-29,"x_max":583,"o":"m 118 -25 q 35 -19 75 -25 q -29 -6 -6 -12 l -15 92 q 10 87 -4 89 q 38 85 24 85 q 81 90 58 85 q 110 125 103 96 q 115 153 114 139 q 114 190 115 167 l 74 821 l 269 821 l 264 319 l 267 319 l 404 821 l 583 821 l 371 210 q 270 28 328 82 q 118 -25 213 -25 z "},"Ú":{"ha":561,"x_min":15,"x_max":583,"o":"m 231 -17 q 135 -9 178 -17 q 65 21 93 -1 q 26 90 38 43 q 26 215 15 136 l 111 821 l 304 821 l 211 160 q 212 124 208 138 q 225 106 215 111 q 247 101 235 101 q 269 106 258 101 q 288 124 279 111 q 299 160 296 138 l 392 821 l 583 821 l 499 217 q 465 90 489 138 q 407 21 442 43 q 328 -9 372 -1 q 231 -17 283 -17 m 249 882 l 375 1018 l 544 1018 l 353 882 l 249 882 z "},"Ǔ":{"ha":561,"x_min":15,"x_max":583,"o":"m 231 -17 q 135 -9 178 -17 q 65 21 93 -1 q 26 90 38 43 q 26 215 15 136 l 111 821 l 304 821 l 211 160 q 212 124 208 138 q 225 106 215 111 q 247 101 235 101 q 269 106 258 101 q 288 124 279 111 q 299 160 296 138 l 392 821 l 583 821 l 499 217 q 465 90 489 138 q 407 21 442 43 q 328 -9 372 -1 q 231 -17 283 -17 m 303 876 l 186 1022 l 306 1022 l 368 958 l 449 1021 l 565 1021 l 406 876 l 303 876 z "},"Û":{"ha":561,"x_min":15,"x_max":583,"o":"m 231 -17 q 135 -9 178 -17 q 65 21 93 -1 q 26 90 38 43 q 26 215 15 136 l 111 821 l 304 821 l 211 160 q 212 124 208 138 q 225 106 215 111 q 247 101 235 101 q 269 106 258 101 q 288 124 279 111 q 299 160 296 138 l 392 821 l 583 821 l 499 217 q 465 90 489 138 q 407 21 442 43 q 328 -9 372 -1 q 231 -17 283 -17 m 167 876 l 325 1022 l 428 1022 l 544 878 l 428 878 l 365 942 l 285 876 l 167 876 z "},"Ü":{"ha":561,"x_min":15,"x_max":583,"o":"m 231 -17 q 135 -9 178 -17 q 65 21 93 -1 q 26 90 38 43 q 26 215 15 136 l 111 821 l 304 821 l 211 160 q 212 124 208 138 q 225 106 215 111 q 247 101 235 101 q 269 106 258 101 q 288 124 279 111 q 299 160 296 138 l 392 821 l 583 821 l 499 217 q 465 90 489 138 q 407 21 442 43 q 328 -9 372 -1 q 231 -17 283 -17 m 276 883 q 223 904 244 883 q 201 956 201 925 q 223 1005 201 985 q 276 1025 244 1025 q 329 1005 308 1025 q 350 956 350 985 q 329 904 350 925 q 276 883 308 883 m 457 883 q 403 904 425 883 q 382 956 382 925 q 403 1005 382 985 q 457 1025 425 1025 q 510 1005 489 1025 q 531 956 531 985 q 510 904 531 925 q 457 883 489 883 z "},"Ǘ":{"ha":561,"x_min":15,"x_max":583,"o":"m 231 -17 q 135 -9 178 -17 q 65 21 93 -1 q 26 90 38 43 q 26 215 15 136 l 111 821 l 304 821 l 211 160 q 212 124 208 138 q 225 106 215 111 q 247 101 235 101 q 269 106 258 101 q 288 124 279 111 q 299 160 296 138 l 392 821 l 583 821 l 499 217 q 465 90 489 138 q 407 21 442 43 q 328 -9 372 -1 q 231 -17 283 -17 m 276 883 q 223 904 244 883 q 201 956 201 925 q 223 1005 201 985 q 276 1025 244 1025 q 329 1005 308 1025 q 350 956 350 985 q 329 904 350 925 q 276 883 308 883 m 457 883 q 403 904 425 883 q 382 956 382 925 q 403 1005 382 985 q 457 1025 425 1025 q 510 1005 489 1025 q 531 956 531 985 q 510 904 531 925 q 457 883 489 883 m 285 1049 l 411 1185 l 581 1185 l 389 1049 l 285 1049 z "},"Ǚ":{"ha":561,"x_min":15,"x_max":600,"o":"m 231 -17 q 135 -9 178 -17 q 65 21 93 -1 q 26 90 38 43 q 26 215 15 136 l 111 821 l 304 821 l 211 160 q 212 124 208 138 q 225 106 215 111 q 247 101 235 101 q 269 106 258 101 q 288 124 279 111 q 299 160 296 138 l 392 821 l 583 821 l 499 217 q 465 90 489 138 q 407 21 442 43 q 328 -9 372 -1 q 231 -17 283 -17 m 276 883 q 223 904 244 883 q 201 956 201 925 q 223 1005 201 985 q 276 1025 244 1025 q 329 1005 308 1025 q 350 956 350 985 q 329 904 350 925 q 276 883 308 883 m 457 883 q 403 904 425 883 q 382 956 382 925 q 403 1005 382 985 q 457 1025 425 1025 q 510 1005 489 1025 q 531 956 531 985 q 510 904 531 925 q 457 883 489 883 m 339 1043 l 222 1189 l 342 1189 l 404 1125 l 485 1188 l 601 1188 l 442 1043 l 339 1043 z "},"Ǜ":{"ha":561,"x_min":15,"x_max":583,"o":"m 231 -17 q 135 -9 178 -17 q 65 21 93 -1 q 26 90 38 43 q 26 215 15 136 l 111 821 l 304 821 l 211 160 q 212 124 208 138 q 225 106 215 111 q 247 101 235 101 q 269 106 258 101 q 288 124 279 111 q 299 160 296 138 l 392 821 l 583 821 l 499 217 q 465 90 489 138 q 407 21 442 43 q 328 -9 372 -1 q 231 -17 283 -17 m 276 883 q 223 904 244 883 q 201 956 201 925 q 223 1005 201 985 q 276 1025 244 1025 q 329 1005 308 1025 q 350 956 350 985 q 329 904 350 925 q 276 883 308 883 m 457 883 q 403 904 425 883 q 382 956 382 925 q 403 1005 382 985 q 457 1025 425 1025 q 510 1005 489 1025 q 531 956 531 985 q 510 904 531 925 q 457 883 489 883 m 363 1049 l 203 1179 l 375 1179 l 479 1049 l 363 1049 z "},"Ǖ":{"ha":561,"x_min":15,"x_max":583,"o":"m 231 -17 q 135 -9 178 -17 q 65 21 93 -1 q 26 90 38 43 q 26 215 15 136 l 111 821 l 304 821 l 211 160 q 212 124 208 138 q 225 106 215 111 q 247 101 235 101 q 269 106 258 101 q 288 124 279 111 q 299 160 296 138 l 392 821 l 583 821 l 499 217 q 465 90 489 138 q 407 21 442 43 q 328 -9 372 -1 q 231 -17 283 -17 m 276 883 q 223 904 244 883 q 201 956 201 925 q 223 1005 201 985 q 276 1025 244 1025 q 329 1005 308 1025 q 350 956 350 985 q 329 904 350 925 q 276 883 308 883 m 457 883 q 403 904 425 883 q 382 956 382 925 q 403 1005 382 985 q 457 1025 425 1025 q 510 1005 489 1025 q 531 956 531 985 q 510 904 531 925 q 457 883 489 883 m 244 1061 l 257 1156 l 556 1156 l 543 1061 l 244 1061 z "},"Ụ":{"ha":561,"x_min":15,"x_max":583,"o":"m 231 -17 q 135 -9 178 -17 q 65 21 93 -1 q 26 90 38 43 q 26 215 15 136 l 111 821 l 304 821 l 211 160 q 212 124 208 138 q 225 106 215 111 q 247 101 235 101 q 269 106 258 101 q 288 124 279 111 q 299 160 296 138 l 392 821 l 583 821 l 499 217 q 465 90 489 138 q 407 21 442 43 q 328 -9 372 -1 q 231 -17 283 -17 m 215 -192 q 162 -171 183 -192 q 140 -119 140 -150 q 162 -69 140 -89 q 215 -49 183 -49 q 268 -69 247 -49 q 289 -119 289 -89 q 268 -171 289 -150 q 215 -192 247 -192 z "},"Ù":{"ha":561,"x_min":15,"x_max":583,"o":"m 231 -17 q 135 -9 178 -17 q 65 21 93 -1 q 26 90 38 43 q 26 215 15 136 l 111 821 l 304 821 l 211 160 q 212 124 208 138 q 225 106 215 111 q 247 101 235 101 q 269 106 258 101 q 288 124 279 111 q 299 160 296 138 l 392 821 l 583 821 l 499 217 q 465 90 489 138 q 407 21 442 43 q 328 -9 372 -1 q 231 -17 283 -17 m 326 882 l 167 1013 l 339 1013 l 443 882 l 326 882 z "},"Ủ":{"ha":561,"x_min":15,"x_max":583,"o":"m 231 -17 q 135 -9 178 -17 q 65 21 93 -1 q 26 90 38 43 q 26 215 15 136 l 111 821 l 304 821 l 211 160 q 212 124 208 138 q 225 106 215 111 q 247 101 235 101 q 269 106 258 101 q 288 124 279 111 q 299 160 296 138 l 392 821 l 583 821 l 499 217 q 465 90 489 138 q 407 21 442 43 q 328 -9 372 -1 q 231 -17 283 -17 m 304 854 l 308 888 q 325 917 311 908 q 352 932 339 925 q 368 956 365 939 l 371 971 q 370 990 374 982 q 356 997 367 997 q 332 968 338 997 l 250 981 q 289 1043 258 1022 q 372 1064 319 1064 q 458 1038 431 1064 q 476 965 485 1013 l 475 960 q 459 918 469 929 q 438 903 449 907 q 418 897 426 900 q 407 878 410 893 l 404 854 l 304 854 z "},"Ư":{"ha":561,"x_min":15,"x_max":647,"o":"m 231 -17 q 135 -9 178 -17 q 65 21 93 -1 q 26 90 38 43 q 26 215 15 136 l 111 821 l 304 821 l 211 160 q 212 124 208 138 q 225 106 215 111 q 247 101 235 101 q 269 106 258 101 q 288 124 279 111 q 299 160 296 138 l 392 821 l 583 821 l 499 217 q 465 90 489 138 q 407 21 442 43 q 328 -9 372 -1 q 231 -17 283 -17 m 417 739 l 426 821 l 453 821 q 522 885 513 821 l 525 913 l 647 913 l 644 886 q 576 772 633 806 q 417 739 519 739 z "},"Ứ":{"ha":561,"x_min":15,"x_max":647,"o":"m 231 -17 q 135 -9 178 -17 q 65 21 93 -1 q 26 90 38 43 q 26 215 15 136 l 111 821 l 304 821 l 211 160 q 212 124 208 138 q 225 106 215 111 q 247 101 235 101 q 269 106 258 101 q 288 124 279 111 q 299 160 296 138 l 392 821 l 583 821 l 499 217 q 465 90 489 138 q 407 21 442 43 q 328 -9 372 -1 q 231 -17 283 -17 m 417 739 l 426 821 l 453 821 q 522 885 513 821 l 525 913 l 647 913 l 644 886 q 576 772 633 806 q 417 739 519 739 m 249 882 l 375 1018 l 544 1018 l 353 882 l 249 882 z "},"Ự":{"ha":561,"x_min":15,"x_max":647,"o":"m 231 -17 q 135 -9 178 -17 q 65 21 93 -1 q 26 90 38 43 q 26 215 15 136 l 111 821 l 304 821 l 211 160 q 212 124 208 138 q 225 106 215 111 q 247 101 235 101 q 269 106 258 101 q 288 124 279 111 q 299 160 296 138 l 392 821 l 583 821 l 499 217 q 465 90 489 138 q 407 21 442 43 q 328 -9 372 -1 q 231 -17 283 -17 m 417 739 l 426 821 l 453 821 q 522 885 513 821 l 525 913 l 647 913 l 644 886 q 576 772 633 806 q 417 739 519 739 m 215 -192 q 162 -171 183 -192 q 140 -119 140 -150 q 162 -69 140 -89 q 215 -49 183 -49 q 268 -69 247 -49 q 289 -119 289 -89 q 268 -171 289 -150 q 215 -192 247 -192 z "},"Ừ":{"ha":561,"x_min":15,"x_max":647,"o":"m 231 -17 q 135 -9 178 -17 q 65 21 93 -1 q 26 90 38 43 q 26 215 15 136 l 111 821 l 304 821 l 211 160 q 212 124 208 138 q 225 106 215 111 q 247 101 235 101 q 269 106 258 101 q 288 124 279 111 q 299 160 296 138 l 392 821 l 583 821 l 499 217 q 465 90 489 138 q 407 21 442 43 q 328 -9 372 -1 q 231 -17 283 -17 m 417 739 l 426 821 l 453 821 q 522 885 513 821 l 525 913 l 647 913 l 644 886 q 576 772 633 806 q 417 739 519 739 m 326 882 l 167 1013 l 339 1013 l 443 882 l 326 882 z "},"Ử":{"ha":561,"x_min":15,"x_max":647,"o":"m 231 -17 q 135 -9 178 -17 q 65 21 93 -1 q 26 90 38 43 q 26 215 15 136 l 111 821 l 304 821 l 211 160 q 212 124 208 138 q 225 106 215 111 q 247 101 235 101 q 269 106 258 101 q 288 124 279 111 q 299 160 296 138 l 392 821 l 583 821 l 499 217 q 465 90 489 138 q 407 21 442 43 q 328 -9 372 -1 q 231 -17 283 -17 m 417 739 l 426 821 l 453 821 q 522 885 513 821 l 525 913 l 647 913 l 644 886 q 576 772 633 806 q 417 739 519 739 m 304 854 l 308 888 q 325 917 311 908 q 352 932 339 925 q 368 956 365 939 l 371 971 q 370 990 374 982 q 356 997 367 997 q 332 968 338 997 l 250 981 q 289 1043 258 1022 q 372 1064 319 1064 q 458 1038 431 1064 q 476 965 485 1013 l 475 960 q 459 918 469 929 q 438 903 449 907 q 418 897 426 900 q 407 878 410 893 l 404 854 l 304 854 z "},"Ữ":{"ha":561,"x_min":15,"x_max":647,"o":"m 231 -17 q 135 -9 178 -17 q 65 21 93 -1 q 26 90 38 43 q 26 215 15 136 l 111 821 l 304 821 l 211 160 q 212 124 208 138 q 225 106 215 111 q 247 101 235 101 q 269 106 258 101 q 288 124 279 111 q 299 160 296 138 l 392 821 l 583 821 l 499 217 q 465 90 489 138 q 407 21 442 43 q 328 -9 372 -1 q 231 -17 283 -17 m 417 739 l 426 821 l 453 821 q 522 885 513 821 l 525 913 l 647 913 l 644 886 q 576 772 633 806 q 417 739 519 739 m 424 883 q 383 892 401 883 q 347 913 365 901 q 318 928 333 921 q 286 935 303 935 q 256 921 268 935 q 240 885 244 907 l 188 885 q 227 983 196 946 q 300 1019 258 1019 q 342 1012 324 1019 q 378 994 361 1004 q 408 979 393 986 q 438 972 422 972 q 469 985 458 972 q 486 1015 481 997 l 544 1015 q 497 917 535 951 q 424 883 458 883 z "},"Ű":{"ha":561,"x_min":15,"x_max":606,"o":"m 231 -17 q 135 -9 178 -17 q 65 21 93 -1 q 26 90 38 43 q 26 215 15 136 l 111 821 l 304 821 l 211 160 q 212 124 208 138 q 225 106 215 111 q 247 101 235 101 q 269 106 258 101 q 288 124 279 111 q 299 160 296 138 l 392 821 l 583 821 l 499 217 q 465 90 489 138 q 407 21 442 43 q 328 -9 372 -1 q 231 -17 283 -17 m 263 875 l 296 1018 l 439 1018 l 335 875 l 263 875 m 407 875 l 464 1018 l 607 1018 l 492 875 l 407 875 z "},"Ū":{"ha":561,"x_min":15,"x_max":583,"o":"m 231 -17 q 135 -9 178 -17 q 65 21 93 -1 q 26 90 38 43 q 26 215 15 136 l 111 821 l 304 821 l 211 160 q 212 124 208 138 q 225 106 215 111 q 247 101 235 101 q 269 106 258 101 q 288 124 279 111 q 299 160 296 138 l 392 821 l 583 821 l 499 217 q 465 90 489 138 q 407 21 442 43 q 328 -9 372 -1 q 231 -17 283 -17 m 210 894 l 222 989 l 521 989 l 508 894 l 210 894 z "},"Ų":{"ha":561,"x_min":15,"x_max":583,"o":"m 231 -17 q 135 -9 178 -17 q 65 21 93 -1 q 26 90 38 43 q 26 215 15 136 l 111 821 l 304 821 l 211 160 q 212 124 208 138 q 225 106 215 111 q 247 101 235 101 q 269 106 258 101 q 288 124 279 111 q 299 160 296 138 l 392 821 l 583 821 l 499 217 q 465 90 489 138 q 407 21 442 43 q 328 -9 372 -1 q 231 -17 283 -17 m 214 -206 q 129 -177 158 -206 q 106 -114 100 -149 q 149 -40 111 -75 q 240 3 186 -4 l 313 0 q 253 -37 274 -11 q 229 -87 232 -62 q 242 -126 226 -112 q 274 -140 257 -140 q 292 -138 285 -140 q 301 -135 299 -136 l 317 -182 q 285 -196 308 -186 q 214 -206 261 -206 z "},"Ů":{"ha":561,"x_min":15,"x_max":583,"o":"m 231 -17 q 135 -9 178 -17 q 65 21 93 -1 q 26 90 38 43 q 26 215 15 136 l 111 821 l 304 821 l 211 160 q 212 124 208 138 q 225 106 215 111 q 247 101 235 101 q 269 106 258 101 q 288 124 279 111 q 299 160 296 138 l 392 821 l 583 821 l 499 217 q 465 90 489 138 q 407 21 442 43 q 328 -9 372 -1 q 231 -17 283 -17 m 354 867 q 269 901 300 867 q 246 983 239 935 q 293 1069 253 1035 q 388 1103 333 1103 q 471 1068 439 1103 q 496 983 503 1033 q 447 901 489 935 q 354 867 406 867 m 364 940 q 401 953 385 940 q 418 983 417 965 q 409 1018 421 1006 q 376 1031 397 1031 q 341 1018 356 1031 q 322 983 326 1006 q 333 953 321 965 q 364 940 344 940 z "},"Ў":{"ha":529,"x_min":-29,"x_max":583,"o":"m 118 -25 q 35 -19 75 -25 q -29 -6 -6 -12 l -15 92 q 10 87 -4 89 q 38 85 24 85 q 81 90 58 85 q 110 125 103 96 q 115 153 114 139 q 114 190 115 167 l 74 821 l 269 821 l 264 319 l 267 319 l 404 821 l 583 821 l 371 210 q 270 28 328 82 q 118 -25 213 -25 m 336 876 q 253 891 283 876 q 209 928 222 906 q 193 976 196 951 q 193 1021 190 1000 l 294 1021 q 308 978 290 993 q 350 964 326 964 q 397 978 376 964 q 424 1021 417 992 l 525 1021 q 498 949 519 982 q 436 896 476 915 q 336 876 396 876 z "},"Ũ":{"ha":561,"x_min":15,"x_max":583,"o":"m 231 -17 q 135 -9 178 -17 q 65 21 93 -1 q 26 90 38 43 q 26 215 15 136 l 111 821 l 304 821 l 211 160 q 212 124 208 138 q 225 106 215 111 q 247 101 235 101 q 269 106 258 101 q 288 124 279 111 q 299 160 296 138 l 392 821 l 583 821 l 499 217 q 465 90 489 138 q 407 21 442 43 q 328 -9 372 -1 q 231 -17 283 -17 m 424 883 q 383 892 401 883 q 347 913 365 901 q 318 928 333 921 q 286 935 303 935 q 256 921 268 935 q 240 885 244 907 l 188 885 q 227 983 196 946 q 300 1019 258 1019 q 342 1012 324 1019 q 378 994 361 1004 q 408 979 393 986 q 438 972 422 972 q 469 985 458 972 q 486 1015 481 997 l 544 1015 q 497 917 535 951 q 424 883 458 883 z "},"V":{"ha":558,"x_min":82,"x_max":611,"o":"m 92 0 l 82 821 l 281 821 l 258 196 l 260 196 l 419 821 l 611 821 l 365 0 l 92 0 z "},"В":{"ha":560,"x_min":-3,"x_max":572,"o":"m -3 0 l 113 821 l 421 821 q 538 783 503 821 q 564 682 572 744 l 551 590 q 531 524 546 554 q 493 475 517 494 q 452 451 475 460 q 407 440 429 443 l 406 439 q 447 433 426 439 q 486 411 467 428 q 517 361 507 393 q 519 282 526 329 l 506 172 q 467 68 496 106 q 392 15 438 31 q 286 0 347 0 l -3 0 m 204 99 l 256 99 q 281 106 269 99 q 299 131 292 113 q 313 183 307 150 l 325 276 q 322 342 333 326 q 288 357 311 357 l 240 357 l 204 99 m 258 478 l 301 478 q 340 497 324 478 q 363 568 356 515 l 375 646 q 372 702 381 686 q 342 718 363 718 l 292 718 l 258 478 z "},"W":{"ha":858,"x_min":82,"x_max":911,"o":"m 86 0 l 82 821 l 281 821 l 267 244 l 415 821 l 576 821 l 563 244 l 711 821 l 911 821 l 672 0 l 447 0 l 439 415 l 311 0 l 86 0 z "},"Ẃ":{"ha":858,"x_min":82,"x_max":911,"o":"m 86 0 l 82 821 l 281 821 l 267 244 l 415 821 l 576 821 l 563 244 l 711 821 l 911 821 l 672 0 l 447 0 l 439 415 l 311 0 l 86 0 m 397 882 l 524 1018 l 693 1018 l 501 882 l 397 882 z "},"Ŵ":{"ha":858,"x_min":82,"x_max":911,"o":"m 86 0 l 82 821 l 281 821 l 267 244 l 415 821 l 576 821 l 563 244 l 711 821 l 911 821 l 672 0 l 447 0 l 439 415 l 311 0 l 86 0 m 317 876 l 475 1022 l 578 1022 l 694 878 l 578 878 l 515 942 l 435 876 l 317 876 z "},"Ẅ":{"ha":858,"x_min":82,"x_max":911,"o":"m 86 0 l 82 821 l 281 821 l 267 244 l 415 821 l 576 821 l 563 244 l 711 821 l 911 821 l 672 0 l 447 0 l 439 415 l 311 0 l 86 0 m 426 883 q 373 904 394 883 q 351 956 351 925 q 373 1005 351 985 q 426 1025 394 1025 q 479 1005 458 1025 q 500 956 500 985 q 479 904 500 925 q 426 883 458 883 m 607 883 q 553 904 575 883 q 532 956 532 925 q 553 1005 532 985 q 607 1025 575 1025 q 660 1005 639 1025 q 681 956 681 985 q 660 904 681 925 q 607 883 639 883 z "},"Ẁ":{"ha":858,"x_min":82,"x_max":911,"o":"m 86 0 l 82 821 l 281 821 l 267 244 l 415 821 l 576 821 l 563 244 l 711 821 l 911 821 l 672 0 l 447 0 l 439 415 l 311 0 l 86 0 m 476 882 l 317 1013 l 489 1013 l 593 882 l 476 882 z "},"X":{"ha":535,"x_min":-39,"x_max":593,"o":"m -39 0 l 138 425 l 82 821 l 274 821 l 299 578 l 389 821 l 593 821 l 425 424 l 474 0 l 281 0 l 254 242 l 165 0 l -39 0 z "},"Y":{"ha":524,"x_min":76,"x_max":582,"o":"m 113 0 l 163 344 l 76 821 l 267 821 l 294 614 l 296 551 l 317 614 l 407 821 l 582 821 l 354 333 l 306 0 l 113 0 z "},"Ý":{"ha":524,"x_min":76,"x_max":582,"o":"m 113 0 l 163 344 l 76 821 l 267 821 l 294 614 l 296 551 l 317 614 l 407 821 l 582 821 l 354 333 l 306 0 l 113 0 m 231 882 l 357 1018 l 526 1018 l 335 882 l 231 882 z "},"Ѣ":{"ha":621,"x_min":57,"x_max":611,"o":"m 76 0 l 193 821 l 382 821 l 351 606 l 467 606 q 541 593 507 606 q 593 547 575 581 q 601 446 611 514 l 569 219 q 539 101 558 144 q 491 35 519 57 q 428 7 463 14 q 353 0 394 0 l 76 0 m 281 99 l 324 99 q 351 108 342 99 q 368 144 361 117 q 382 226 375 171 l 406 406 q 411 453 411 435 q 403 481 411 472 q 376 490 396 490 l 335 490 q 308 294 322 394 q 281 99 293 193 m 57 676 l 71 767 l 514 767 l 500 676 l 57 676 z "},"Ŷ":{"ha":524,"x_min":76,"x_max":582,"o":"m 113 0 l 163 344 l 76 821 l 267 821 l 294 614 l 296 551 l 317 614 l 407 821 l 582 821 l 354 333 l 306 0 l 113 0 m 149 876 l 307 1022 l 410 1022 l 526 878 l 410 878 l 347 942 l 267 876 l 149 876 z "},"Ÿ":{"ha":524,"x_min":76,"x_max":582,"o":"m 113 0 l 163 344 l 76 821 l 267 821 l 294 614 l 296 551 l 317 614 l 407 821 l 582 821 l 354 333 l 306 0 l 113 0 m 258 883 q 205 904 226 883 q 183 956 183 925 q 205 1005 183 985 q 258 1025 226 1025 q 311 1005 290 1025 q 332 956 332 985 q 311 904 332 925 q 258 883 290 883 m 439 883 q 385 904 407 883 q 364 956 364 925 q 385 1005 364 985 q 439 1025 407 1025 q 492 1005 471 1025 q 513 956 513 985 q 492 904 513 925 q 439 883 471 883 z "},"Ỵ":{"ha":524,"x_min":76,"x_max":582,"o":"m 113 0 l 163 344 l 76 821 l 267 821 l 294 614 l 296 551 l 317 614 l 407 821 l 582 821 l 354 333 l 306 0 l 113 0 m 196 -192 q 142 -171 164 -192 q 121 -119 121 -150 q 142 -69 121 -89 q 196 -49 164 -49 q 249 -69 228 -49 q 269 -119 269 -89 q 249 -171 269 -150 q 196 -192 228 -192 z "},"Ы":{"ha":824,"x_min":-3,"x_max":844,"o":"m -3 0 l 114 821 l 303 821 l 272 606 l 388 606 q 462 593 428 606 q 514 547 496 581 q 522 446 532 514 l 490 219 q 460 101 479 144 q 412 35 440 57 q 349 7 383 14 q 274 0 314 0 l -3 0 m 201 99 l 244 99 q 272 108 263 99 q 289 144 282 117 q 303 226 296 171 q 315 315 307 263 q 326 406 322 368 q 332 453 332 435 q 324 481 332 472 q 297 490 317 490 l 256 490 q 229 294 243 394 q 201 99 215 193 m 535 0 l 651 821 l 844 821 l 728 0 l 535 0 z "},"Ỳ":{"ha":524,"x_min":76,"x_max":582,"o":"m 113 0 l 163 344 l 76 821 l 267 821 l 294 614 l 296 551 l 317 614 l 407 821 l 582 821 l 354 333 l 306 0 l 113 0 m 308 882 l 149 1013 l 321 1013 l 425 882 l 308 882 z "},"Ỷ":{"ha":524,"x_min":76,"x_max":582,"o":"m 113 0 l 163 344 l 76 821 l 267 821 l 294 614 l 296 551 l 317 614 l 407 821 l 582 821 l 354 333 l 306 0 l 113 0 m 285 854 l 289 888 q 306 917 292 908 q 333 932 319 925 q 349 956 346 939 l 351 971 q 351 990 354 982 q 336 997 347 997 q 313 968 318 997 l 231 981 q 269 1043 239 1022 q 353 1064 300 1064 q 438 1038 411 1064 q 457 965 465 1013 l 456 960 q 440 918 450 929 q 418 903 429 907 q 399 897 407 900 q 388 878 390 893 l 385 854 l 285 854 z "},"Ї":{"ha":286,"x_min":-3,"x_max":393,"o":"m -3 0 l 114 821 l 307 821 l 190 0 l -3 0 m 139 883 q 85 904 107 883 q 64 956 64 925 q 85 1005 64 985 q 139 1025 107 1025 q 192 1005 171 1025 q 213 956 213 985 q 192 904 213 925 q 139 883 171 883 m 319 883 q 266 904 288 883 q 244 956 244 925 q 266 1005 244 985 q 319 1025 288 1025 q 372 1005 351 1025 q 393 956 393 985 q 372 904 393 925 q 319 883 351 883 z "},"Ỹ":{"ha":524,"x_min":76,"x_max":582,"o":"m 113 0 l 163 344 l 76 821 l 267 821 l 294 614 l 296 551 l 317 614 l 407 821 l 582 821 l 354 333 l 306 0 l 113 0 m 404 883 q 364 892 382 883 q 328 913 346 901 q 299 928 314 921 q 267 935 283 935 q 237 921 249 935 q 221 885 225 907 l 168 885 q 208 983 176 946 q 281 1019 239 1019 q 323 1012 304 1019 q 358 994 342 1004 q 388 979 374 986 q 418 972 403 972 q 450 985 439 972 q 467 1015 461 997 l 525 1015 q 477 917 515 951 q 404 883 439 883 z "},"Ѫ":{"ha":899,"x_min":-24,"x_max":938,"o":"m -24 0 l 100 336 q 134 402 114 374 q 183 447 154 431 q 253 465 213 464 l 306 467 l 71 690 l 90 821 l 938 821 l 918 690 l 621 468 l 686 464 q 744 445 721 463 q 781 400 768 428 q 799 338 794 372 l 826 0 l 613 0 l 600 311 q 598 349 600 331 q 593 385 596 368 q 585 418 590 403 l 561 418 l 501 0 l 300 0 l 358 418 l 335 418 q 310 371 321 397 q 290 318 300 344 l 190 0 l -24 0 m 472 535 l 696 690 l 292 690 l 472 535 z "},"Z":{"ha":419,"x_min":-40,"x_max":463,"o":"m -40 0 l -24 119 l 224 686 l 71 686 l 90 821 l 463 821 l 449 728 l 188 135 l 365 135 l 346 0 l -40 0 z "},"Ź":{"ha":419,"x_min":-40,"x_max":474,"o":"m -40 0 l -24 119 l 224 686 l 71 686 l 90 821 l 463 821 l 449 728 l 188 135 l 365 135 l 346 0 l -40 0 m 178 882 l 304 1018 l 474 1018 l 282 882 l 178 882 z "},"Ž":{"ha":419,"x_min":-40,"x_max":493,"o":"m -40 0 l -24 119 l 224 686 l 71 686 l 90 821 l 463 821 l 449 728 l 188 135 l 365 135 l 346 0 l -40 0 m 232 876 l 115 1022 l 235 1022 l 297 958 l 378 1021 l 494 1021 l 335 876 l 232 876 z "},"Ż":{"ha":419,"x_min":-40,"x_max":463,"o":"m -40 0 l -24 119 l 224 686 l 71 686 l 90 821 l 463 821 l 449 728 l 188 135 l 365 135 l 346 0 l -40 0 m 317 872 q 251 899 279 872 q 222 963 224 925 q 251 1028 222 1001 q 318 1054 279 1054 q 385 1028 357 1054 q 414 963 414 1001 q 385 899 414 925 q 317 872 357 872 z "},"З":{"ha":546,"x_min":-6,"x_max":569,"o":"m 219 -8 q 86 15 138 -8 q 15 83 35 38 q 3 192 -6 128 l 18 292 l 211 292 l 204 250 q 201 158 196 189 q 238 128 207 128 q 278 153 264 128 q 297 217 292 178 l 310 297 q 289 350 314 336 q 208 365 264 364 l 149 365 l 164 468 l 225 468 q 270 473 250 468 q 306 488 290 478 q 333 511 325 497 q 342 542 340 525 l 351 601 q 349 663 356 638 q 315 688 343 688 q 272 657 285 688 q 250 568 258 626 l 247 542 l 54 542 l 65 626 q 147 774 79 724 q 336 824 214 824 q 519 780 468 824 q 557 643 569 736 l 547 571 q 496 458 538 501 q 383 411 454 415 q 481 367 450 408 q 503 256 513 326 l 494 192 q 453 76 485 119 q 365 12 422 32 q 219 -8 308 -8 z "},"Ж":{"ha":925,"x_min":-40,"x_max":976,"o":"m -40 0 l 178 426 l 81 821 l 301 821 l 347 479 l 381 479 l 429 821 l 622 821 l 574 479 l 611 479 l 754 821 l 976 821 l 765 426 l 863 0 l 647 0 l 597 375 l 558 375 l 506 0 l 313 0 l 365 375 l 332 375 l 174 0 l -40 0 z "},"a":{"ha":535,"x_min":3,"x_max":542,"o":"m 167 -11 q 101 -6 133 -11 q 46 21 69 0 q 13 85 22 42 q 14 203 3 128 l 64 542 q 103 644 74 611 q 169 686 133 676 q 232 696 206 696 q 311 677 286 696 q 346 636 336 658 l 353 688 l 542 688 l 444 0 l 296 0 l 308 75 q 281 37 297 57 q 236 3 264 17 q 167 -11 208 -11 m 225 97 q 247 105 238 97 q 263 125 257 113 q 274 152 269 138 q 281 180 278 167 q 285 204 283 193 l 336 567 q 329 573 333 568 q 317 581 325 578 q 294 585 310 585 q 265 570 275 585 q 250 531 254 556 q 242 474 246 507 l 196 167 q 195 133 194 147 q 199 112 196 119 q 210 101 203 104 q 225 97 217 97 z "},"а":{"ha":535,"x_min":3,"x_max":542,"o":"m 167 -11 q 101 -6 133 -11 q 46 21 69 0 q 13 85 22 42 q 14 203 3 128 l 64 542 q 103 644 74 611 q 169 686 133 676 q 232 696 206 696 q 311 677 286 696 q 346 636 336 658 l 353 688 l 542 688 l 444 0 l 296 0 l 308 75 q 281 37 297 57 q 236 3 264 17 q 167 -11 208 -11 m 225 97 q 247 105 238 97 q 263 125 257 113 q 274 152 269 138 q 281 180 278 167 q 285 204 283 193 l 336 567 q 329 573 333 568 q 317 581 325 578 q 294 585 310 585 q 265 570 275 585 q 250 531 254 556 q 242 474 246 507 l 196 167 q 195 133 194 147 q 199 112 196 119 q 210 101 203 104 q 225 97 217 97 z "},"á":{"ha":535,"x_min":3,"x_max":542,"o":"m 167 -11 q 101 -6 133 -11 q 46 21 69 0 q 13 85 22 42 q 14 203 3 128 l 64 542 q 103 644 74 611 q 169 686 133 676 q 232 696 206 696 q 311 677 286 696 q 346 636 336 658 l 353 688 l 542 688 l 444 0 l 296 0 l 308 75 q 281 37 297 57 q 236 3 264 17 q 167 -11 208 -11 m 225 97 q 247 105 238 97 q 263 125 257 113 q 274 152 269 138 q 281 180 278 167 q 285 204 283 193 l 336 567 q 329 573 333 568 q 317 581 325 578 q 294 585 310 585 q 265 570 275 585 q 250 531 254 556 q 242 474 246 507 l 196 167 q 195 133 194 147 q 199 112 196 119 q 210 101 203 104 q 225 97 217 97 m 247 763 l 338 906 l 517 906 l 365 763 l 247 763 z "},"ă":{"ha":535,"x_min":3,"x_max":542,"o":"m 167 -11 q 101 -6 133 -11 q 46 21 69 0 q 13 85 22 42 q 14 203 3 128 l 64 542 q 103 644 74 611 q 169 686 133 676 q 232 696 206 696 q 311 677 286 696 q 346 636 336 658 l 353 688 l 542 688 l 444 0 l 296 0 l 308 75 q 281 37 297 57 q 236 3 264 17 q 167 -11 208 -11 m 225 97 q 247 105 238 97 q 263 125 257 113 q 274 152 269 138 q 281 180 278 167 q 285 204 283 193 l 336 567 q 329 573 333 568 q 317 581 325 578 q 294 585 310 585 q 265 570 275 585 q 250 531 254 556 q 242 474 246 507 l 196 167 q 195 133 194 147 q 199 112 196 119 q 210 101 203 104 q 225 97 217 97 m 331 764 q 247 778 278 764 q 203 816 217 793 q 188 863 190 839 q 188 908 185 888 l 289 908 q 303 866 285 881 q 344 851 321 851 q 391 865 371 851 q 418 908 411 879 l 519 908 q 492 836 514 869 q 431 783 471 803 q 331 764 390 764 z "},"ắ":{"ha":535,"x_min":3,"x_max":542,"o":"m 167 -11 q 101 -6 133 -11 q 46 21 69 0 q 13 85 22 42 q 14 203 3 128 l 64 542 q 103 644 74 611 q 169 686 133 676 q 232 696 206 696 q 311 677 286 696 q 346 636 336 658 l 353 688 l 542 688 l 444 0 l 296 0 l 308 75 q 281 37 297 57 q 236 3 264 17 q 167 -11 208 -11 m 225 97 q 247 105 238 97 q 263 125 257 113 q 274 152 269 138 q 281 180 278 167 q 285 204 283 193 l 336 567 q 329 573 333 568 q 317 581 325 578 q 294 585 310 585 q 265 570 275 585 q 250 531 254 556 q 242 474 246 507 l 196 167 q 195 133 194 147 q 199 112 196 119 q 210 101 203 104 q 225 97 217 97 m 331 764 q 247 778 278 764 q 203 816 217 793 q 188 863 190 839 q 188 908 185 888 l 289 908 q 303 866 285 881 q 344 851 321 851 q 391 865 371 851 q 418 908 411 879 l 519 908 q 492 836 514 869 q 431 783 471 803 q 331 764 390 764 m 272 946 l 363 1089 l 542 1089 l 390 946 l 272 946 z "},"ặ":{"ha":535,"x_min":3,"x_max":542,"o":"m 167 -11 q 101 -6 133 -11 q 46 21 69 0 q 13 85 22 42 q 14 203 3 128 l 64 542 q 103 644 74 611 q 169 686 133 676 q 232 696 206 696 q 311 677 286 696 q 346 636 336 658 l 353 688 l 542 688 l 444 0 l 296 0 l 308 75 q 281 37 297 57 q 236 3 264 17 q 167 -11 208 -11 m 225 97 q 247 105 238 97 q 263 125 257 113 q 274 152 269 138 q 281 180 278 167 q 285 204 283 193 l 336 567 q 329 573 333 568 q 317 581 325 578 q 294 585 310 585 q 265 570 275 585 q 250 531 254 556 q 242 474 246 507 l 196 167 q 195 133 194 147 q 199 112 196 119 q 210 101 203 104 q 225 97 217 97 m 201 -192 q 148 -171 169 -192 q 126 -119 126 -150 q 148 -69 126 -89 q 201 -49 169 -49 q 254 -69 233 -49 q 275 -119 275 -89 q 254 -171 275 -150 q 201 -192 233 -192 m 331 764 q 247 778 278 764 q 203 816 217 793 q 188 863 190 839 q 188 908 185 888 l 289 908 q 303 866 285 881 q 344 851 321 851 q 391 865 371 851 q 418 908 411 879 l 519 908 q 492 836 514 869 q 431 783 471 803 q 331 764 390 764 z "},"ằ":{"ha":535,"x_min":3,"x_max":542,"o":"m 167 -11 q 101 -6 133 -11 q 46 21 69 0 q 13 85 22 42 q 14 203 3 128 l 64 542 q 103 644 74 611 q 169 686 133 676 q 232 696 206 696 q 311 677 286 696 q 346 636 336 658 l 353 688 l 542 688 l 444 0 l 296 0 l 308 75 q 281 37 297 57 q 236 3 264 17 q 167 -11 208 -11 m 225 97 q 247 105 238 97 q 263 125 257 113 q 274 152 269 138 q 281 180 278 167 q 285 204 283 193 l 336 567 q 329 573 333 568 q 317 581 325 578 q 294 585 310 585 q 265 570 275 585 q 250 531 254 556 q 242 474 246 507 l 196 167 q 195 133 194 147 q 199 112 196 119 q 210 101 203 104 q 225 97 217 97 m 331 764 q 247 778 278 764 q 203 816 217 793 q 188 863 190 839 q 188 908 185 888 l 289 908 q 303 866 285 881 q 344 851 321 851 q 391 865 371 851 q 418 908 411 879 l 519 908 q 492 836 514 869 q 431 783 471 803 q 331 764 390 764 m 314 946 l 193 1089 l 371 1089 l 432 946 l 314 946 z "},"ẳ":{"ha":535,"x_min":3,"x_max":542,"o":"m 167 -11 q 101 -6 133 -11 q 46 21 69 0 q 13 85 22 42 q 14 203 3 128 l 64 542 q 103 644 74 611 q 169 686 133 676 q 232 696 206 696 q 311 677 286 696 q 346 636 336 658 l 353 688 l 542 688 l 444 0 l 296 0 l 308 75 q 281 37 297 57 q 236 3 264 17 q 167 -11 208 -11 m 225 97 q 247 105 238 97 q 263 125 257 113 q 274 152 269 138 q 281 180 278 167 q 285 204 283 193 l 336 567 q 329 573 333 568 q 317 581 325 578 q 294 585 310 585 q 265 570 275 585 q 250 531 254 556 q 242 474 246 507 l 196 167 q 195 133 194 147 q 199 112 196 119 q 210 101 203 104 q 225 97 217 97 m 331 764 q 247 778 278 764 q 203 816 217 793 q 188 863 190 839 q 188 908 185 888 l 289 908 q 303 866 285 881 q 344 851 321 851 q 391 865 371 851 q 418 908 411 879 l 519 908 q 492 836 514 869 q 431 783 471 803 q 331 764 390 764 m 300 929 l 304 963 q 321 992 307 983 q 348 1007 335 1000 q 364 1031 361 1014 l 367 1046 q 366 1065 369 1057 q 351 1072 363 1072 q 328 1043 333 1072 l 246 1056 q 285 1118 254 1097 q 368 1139 315 1139 q 453 1113 426 1139 q 472 1040 481 1088 l 471 1035 q 455 993 465 1004 q 433 978 444 982 q 414 972 422 975 q 403 953 406 968 l 400 929 l 300 929 z "},"ẵ":{"ha":535,"x_min":3,"x_max":546,"o":"m 167 -11 q 101 -6 133 -11 q 46 21 69 0 q 13 85 22 42 q 14 203 3 128 l 64 542 q 103 644 74 611 q 169 686 133 676 q 232 696 206 696 q 311 677 286 696 q 346 636 336 658 l 353 688 l 542 688 l 444 0 l 296 0 l 308 75 q 281 37 297 57 q 236 3 264 17 q 167 -11 208 -11 m 225 97 q 247 105 238 97 q 263 125 257 113 q 274 152 269 138 q 281 180 278 167 q 285 204 283 193 l 336 567 q 329 573 333 568 q 317 581 325 578 q 294 585 310 585 q 265 570 275 585 q 250 531 254 556 q 242 474 246 507 l 196 167 q 195 133 194 147 q 199 112 196 119 q 210 101 203 104 q 225 97 217 97 m 331 764 q 247 778 278 764 q 203 816 217 793 q 188 863 190 839 q 188 908 185 888 l 289 908 q 303 866 285 881 q 344 851 321 851 q 391 865 371 851 q 418 908 411 879 l 519 908 q 492 836 514 869 q 431 783 471 803 q 331 764 390 764 m 425 946 q 385 955 403 946 q 349 975 367 964 q 319 990 335 983 q 288 997 304 997 q 258 983 269 997 q 242 947 246 969 l 189 947 q 228 1045 197 1008 q 301 1082 260 1082 q 344 1074 325 1082 q 379 1057 363 1067 q 409 1042 394 1049 q 439 1035 424 1035 q 471 1047 460 1035 q 488 1078 482 1060 l 546 1078 q 498 980 536 1014 q 425 946 460 946 z "},"ǎ":{"ha":535,"x_min":3,"x_max":542,"o":"m 167 -11 q 101 -6 133 -11 q 46 21 69 0 q 13 85 22 42 q 14 203 3 128 l 64 542 q 103 644 74 611 q 169 686 133 676 q 232 696 206 696 q 311 677 286 696 q 346 636 336 658 l 353 688 l 542 688 l 444 0 l 296 0 l 308 75 q 281 37 297 57 q 236 3 264 17 q 167 -11 208 -11 m 225 97 q 247 105 238 97 q 263 125 257 113 q 274 152 269 138 q 281 180 278 167 q 285 204 283 193 l 336 567 q 329 573 333 568 q 317 581 325 578 q 294 585 310 585 q 265 570 275 585 q 250 531 254 556 q 242 474 246 507 l 196 167 q 195 133 194 147 q 199 112 196 119 q 210 101 203 104 q 225 97 217 97 m 282 757 l 168 911 l 282 911 l 344 840 l 432 911 l 542 911 l 385 757 l 282 757 z "},"â":{"ha":535,"x_min":3,"x_max":542,"o":"m 167 -11 q 101 -6 133 -11 q 46 21 69 0 q 13 85 22 42 q 14 203 3 128 l 64 542 q 103 644 74 611 q 169 686 133 676 q 232 696 206 696 q 311 677 286 696 q 346 636 336 658 l 353 688 l 542 688 l 444 0 l 296 0 l 308 75 q 281 37 297 57 q 236 3 264 17 q 167 -11 208 -11 m 225 97 q 247 105 238 97 q 263 125 257 113 q 274 152 269 138 q 281 180 278 167 q 285 204 283 193 l 336 567 q 329 573 333 568 q 317 581 325 578 q 294 585 310 585 q 265 570 275 585 q 250 531 254 556 q 242 474 246 507 l 196 167 q 195 133 194 147 q 199 112 196 119 q 210 101 203 104 q 225 97 217 97 m 146 757 l 301 911 l 404 911 l 519 757 l 408 757 l 343 832 l 258 757 l 146 757 z "},"ấ":{"ha":535,"x_min":3,"x_max":781,"o":"m 167 -11 q 101 -6 133 -11 q 46 21 69 0 q 13 85 22 42 q 14 203 3 128 l 64 542 q 103 644 74 611 q 169 686 133 676 q 232 696 206 696 q 311 677 286 696 q 346 636 336 658 l 353 688 l 542 688 l 444 0 l 296 0 l 308 75 q 281 37 297 57 q 236 3 264 17 q 167 -11 208 -11 m 225 97 q 247 105 238 97 q 263 125 257 113 q 274 152 269 138 q 281 180 278 167 q 285 204 283 193 l 336 567 q 329 573 333 568 q 317 581 325 578 q 294 585 310 585 q 265 570 275 585 q 250 531 254 556 q 242 474 246 507 l 196 167 q 195 133 194 147 q 199 112 196 119 q 210 101 203 104 q 225 97 217 97 m 146 757 l 301 911 l 404 911 l 519 757 l 408 757 l 343 832 l 258 757 l 146 757 m 511 849 l 601 992 l 781 992 l 629 849 l 511 849 z "},"ậ":{"ha":535,"x_min":3,"x_max":542,"o":"m 167 -11 q 101 -6 133 -11 q 46 21 69 0 q 13 85 22 42 q 14 203 3 128 l 64 542 q 103 644 74 611 q 169 686 133 676 q 232 696 206 696 q 311 677 286 696 q 346 636 336 658 l 353 688 l 542 688 l 444 0 l 296 0 l 308 75 q 281 37 297 57 q 236 3 264 17 q 167 -11 208 -11 m 225 97 q 247 105 238 97 q 263 125 257 113 q 274 152 269 138 q 281 180 278 167 q 285 204 283 193 l 336 567 q 329 573 333 568 q 317 581 325 578 q 294 585 310 585 q 265 570 275 585 q 250 531 254 556 q 242 474 246 507 l 196 167 q 195 133 194 147 q 199 112 196 119 q 210 101 203 104 q 225 97 217 97 m 201 -192 q 148 -171 169 -192 q 126 -119 126 -150 q 148 -69 126 -89 q 201 -49 169 -49 q 254 -69 233 -49 q 275 -119 275 -89 q 254 -171 275 -150 q 201 -192 233 -192 m 146 757 l 301 911 l 404 911 l 519 757 l 408 757 l 343 832 l 258 757 l 146 757 z "},"ầ":{"ha":535,"x_min":3,"x_max":671,"o":"m 167 -11 q 101 -6 133 -11 q 46 21 69 0 q 13 85 22 42 q 14 203 3 128 l 64 542 q 103 644 74 611 q 169 686 133 676 q 232 696 206 696 q 311 677 286 696 q 346 636 336 658 l 353 688 l 542 688 l 444 0 l 296 0 l 308 75 q 281 37 297 57 q 236 3 264 17 q 167 -11 208 -11 m 225 97 q 247 105 238 97 q 263 125 257 113 q 274 152 269 138 q 281 180 278 167 q 285 204 283 193 l 336 567 q 329 573 333 568 q 317 581 325 578 q 294 585 310 585 q 265 570 275 585 q 250 531 254 556 q 242 474 246 507 l 196 167 q 195 133 194 147 q 199 112 196 119 q 210 101 203 104 q 225 97 217 97 m 146 757 l 301 911 l 404 911 l 519 757 l 408 757 l 343 832 l 258 757 l 146 757 m 553 849 l 432 992 l 610 992 l 671 849 l 553 849 z "},"ẩ":{"ha":535,"x_min":3,"x_max":721,"o":"m 167 -11 q 101 -6 133 -11 q 46 21 69 0 q 13 85 22 42 q 14 203 3 128 l 64 542 q 103 644 74 611 q 169 686 133 676 q 232 696 206 696 q 311 677 286 696 q 346 636 336 658 l 353 688 l 542 688 l 444 0 l 296 0 l 308 75 q 281 37 297 57 q 236 3 264 17 q 167 -11 208 -11 m 225 97 q 247 105 238 97 q 263 125 257 113 q 274 152 269 138 q 281 180 278 167 q 285 204 283 193 l 336 567 q 329 573 333 568 q 317 581 325 578 q 294 585 310 585 q 265 570 275 585 q 250 531 254 556 q 242 474 246 507 l 196 167 q 195 133 194 147 q 199 112 196 119 q 210 101 203 104 q 225 97 217 97 m 146 757 l 301 911 l 404 911 l 519 757 l 408 757 l 343 832 l 258 757 l 146 757 m 540 832 l 544 865 q 561 894 547 886 q 588 910 575 903 q 604 933 601 917 l 607 949 q 606 967 610 960 q 592 975 603 975 q 568 946 574 975 l 486 958 q 525 1021 494 1000 q 608 1042 556 1042 q 694 1016 667 1042 q 713 943 721 990 l 711 938 q 695 896 706 907 q 674 881 685 885 q 654 874 663 878 q 643 856 646 871 l 640 832 l 540 832 z "},"ẫ":{"ha":535,"x_min":3,"x_max":543,"o":"m 167 -11 q 101 -6 133 -11 q 46 21 69 0 q 13 85 22 42 q 14 203 3 128 l 64 542 q 103 644 74 611 q 169 686 133 676 q 232 696 206 696 q 311 677 286 696 q 346 636 336 658 l 353 688 l 542 688 l 444 0 l 296 0 l 308 75 q 281 37 297 57 q 236 3 264 17 q 167 -11 208 -11 m 225 97 q 247 105 238 97 q 263 125 257 113 q 274 152 269 138 q 281 180 278 167 q 285 204 283 193 l 336 567 q 329 573 333 568 q 317 581 325 578 q 294 585 310 585 q 265 570 275 585 q 250 531 254 556 q 242 474 246 507 l 196 167 q 195 133 194 147 q 199 112 196 119 q 210 101 203 104 q 225 97 217 97 m 146 757 l 301 911 l 404 911 l 519 757 l 408 757 l 343 832 l 258 757 l 146 757 m 424 942 q 383 951 401 942 q 347 971 365 960 q 318 986 333 979 q 286 993 303 993 q 256 979 268 993 q 240 943 244 965 l 188 943 q 227 1041 196 1004 q 300 1078 258 1078 q 342 1070 324 1078 q 378 1053 361 1063 q 408 1038 393 1044 q 438 1031 422 1031 q 469 1043 458 1031 q 486 1074 481 1056 l 544 1074 q 497 976 535 1010 q 424 942 458 942 z "},"´":{"ha":250,"x_min":60,"x_max":329,"o":"m 60 763 l 150 906 l 329 906 l 178 763 l 60 763 z "},"́":{"ha":0,"x_min":60,"x_max":329,"o":"m 60 763 l 150 906 l 329 906 l 178 763 l 60 763 z "},"ä":{"ha":535,"x_min":3,"x_max":542,"o":"m 167 -11 q 101 -6 133 -11 q 46 21 69 0 q 13 85 22 42 q 14 203 3 128 l 64 542 q 103 644 74 611 q 169 686 133 676 q 232 696 206 696 q 311 677 286 696 q 346 636 336 658 l 353 688 l 542 688 l 444 0 l 296 0 l 308 75 q 281 37 297 57 q 236 3 264 17 q 167 -11 208 -11 m 225 97 q 247 105 238 97 q 263 125 257 113 q 274 152 269 138 q 281 180 278 167 q 285 204 283 193 l 336 567 q 329 573 333 568 q 317 581 325 578 q 294 585 310 585 q 265 570 275 585 q 250 531 254 556 q 242 474 246 507 l 196 167 q 195 133 194 147 q 199 112 196 119 q 210 101 203 104 q 225 97 217 97 m 253 764 q 199 785 221 764 q 178 836 178 806 q 199 885 178 865 q 253 906 221 906 q 306 885 285 906 q 326 836 326 865 q 306 785 326 806 q 253 764 285 764 m 433 764 q 380 785 401 764 q 358 836 358 806 q 380 885 358 865 q 433 906 401 906 q 486 885 465 906 q 507 836 507 865 q 486 785 507 806 q 433 764 465 764 z "},"ạ":{"ha":535,"x_min":3,"x_max":542,"o":"m 167 -11 q 101 -6 133 -11 q 46 21 69 0 q 13 85 22 42 q 14 203 3 128 l 64 542 q 103 644 74 611 q 169 686 133 676 q 232 696 206 696 q 311 677 286 696 q 346 636 336 658 l 353 688 l 542 688 l 444 0 l 296 0 l 308 75 q 281 37 297 57 q 236 3 264 17 q 167 -11 208 -11 m 225 97 q 247 105 238 97 q 263 125 257 113 q 274 152 269 138 q 281 180 278 167 q 285 204 283 193 l 336 567 q 329 573 333 568 q 317 581 325 578 q 294 585 310 585 q 265 570 275 585 q 250 531 254 556 q 242 474 246 507 l 196 167 q 195 133 194 147 q 199 112 196 119 q 210 101 203 104 q 225 97 217 97 m 201 -192 q 148 -171 169 -192 q 126 -119 126 -150 q 148 -69 126 -89 q 201 -49 169 -49 q 254 -69 233 -49 q 275 -119 275 -89 q 254 -171 275 -150 q 201 -192 233 -192 z "},"æ":{"ha":781,"x_min":-3,"x_max":800,"o":"m 121 -8 q 83 -6 106 -8 q 40 8 60 -4 q 8 48 19 19 q 4 129 -3 76 l 18 232 q 77 339 29 303 q 194 400 125 375 q 265 426 239 415 q 305 457 292 438 q 322 511 318 476 l 329 556 q 328 581 331 571 q 317 596 325 590 q 294 601 308 601 q 260 581 271 601 q 242 507 250 560 l 233 449 l 63 449 l 74 525 q 102 616 82 576 q 171 678 122 656 q 310 701 219 701 q 426 683 386 701 q 478 628 465 664 q 482 540 490 592 l 408 13 l 307 110 q 224 17 275 42 q 121 -8 172 -8 m 222 113 q 260 134 249 113 q 279 199 272 156 l 300 356 q 278 338 293 346 q 247 319 263 331 q 219 292 229 306 q 204 254 208 279 l 193 176 q 192 141 190 156 q 201 119 194 126 q 222 113 208 113 m 483 -3 q 397 3 435 -3 q 337 31 360 10 q 306 97 314 51 q 308 221 299 143 l 350 521 q 422 649 363 599 q 582 699 482 699 q 747 660 694 699 q 785 521 800 622 l 760 329 l 490 329 l 463 140 q 467 96 458 108 q 496 83 475 83 q 519 89 510 83 q 535 108 528 94 q 544 142 542 121 l 560 258 l 749 258 l 743 224 q 710 99 732 144 q 656 31 689 53 q 581 3 624 10 q 483 -3 538 -3 m 501 413 l 581 413 l 600 544 q 597 588 604 575 q 567 601 589 601 q 535 588 547 601 q 519 544 524 575 l 501 413 z "},"à":{"ha":535,"x_min":3,"x_max":542,"o":"m 167 -11 q 101 -6 133 -11 q 46 21 69 0 q 13 85 22 42 q 14 203 3 128 l 64 542 q 103 644 74 611 q 169 686 133 676 q 232 696 206 696 q 311 677 286 696 q 346 636 336 658 l 353 688 l 542 688 l 444 0 l 296 0 l 308 75 q 281 37 297 57 q 236 3 264 17 q 167 -11 208 -11 m 225 97 q 247 105 238 97 q 263 125 257 113 q 274 152 269 138 q 281 180 278 167 q 285 204 283 193 l 336 567 q 329 573 333 568 q 317 581 325 578 q 294 585 310 585 q 265 570 275 585 q 250 531 254 556 q 242 474 246 507 l 196 167 q 195 133 194 147 q 199 112 196 119 q 210 101 203 104 q 225 97 217 97 m 289 763 l 168 906 l 346 906 l 407 763 l 289 763 z "},"ả":{"ha":535,"x_min":3,"x_max":542,"o":"m 167 -11 q 101 -6 133 -11 q 46 21 69 0 q 13 85 22 42 q 14 203 3 128 l 64 542 q 103 644 74 611 q 169 686 133 676 q 232 696 206 696 q 311 677 286 696 q 346 636 336 658 l 353 688 l 542 688 l 444 0 l 296 0 l 308 75 q 281 37 297 57 q 236 3 264 17 q 167 -11 208 -11 m 225 97 q 247 105 238 97 q 263 125 257 113 q 274 152 269 138 q 281 180 278 167 q 285 204 283 193 l 336 567 q 329 573 333 568 q 317 581 325 578 q 294 585 310 585 q 265 570 275 585 q 250 531 254 556 q 242 474 246 507 l 196 167 q 195 133 194 147 q 199 112 196 119 q 210 101 203 104 q 225 97 217 97 m 275 746 l 279 779 q 296 808 282 800 q 323 824 310 817 q 339 847 336 831 l 342 863 q 341 881 344 874 q 326 889 338 889 q 303 860 308 889 l 221 872 q 260 935 229 914 q 343 956 290 956 q 428 930 401 956 q 447 857 456 904 l 446 851 q 430 810 440 821 q 408 795 419 799 q 389 788 397 792 q 378 769 381 785 l 375 746 l 275 746 z "},"ā":{"ha":535,"x_min":3,"x_max":542,"o":"m 167 -11 q 101 -6 133 -11 q 46 21 69 0 q 13 85 22 42 q 14 203 3 128 l 64 542 q 103 644 74 611 q 169 686 133 676 q 232 696 206 696 q 311 677 286 696 q 346 636 336 658 l 353 688 l 542 688 l 444 0 l 296 0 l 308 75 q 281 37 297 57 q 236 3 264 17 q 167 -11 208 -11 m 225 97 q 247 105 238 97 q 263 125 257 113 q 274 152 269 138 q 281 180 278 167 q 285 204 283 193 l 336 567 q 329 573 333 568 q 317 581 325 578 q 294 585 310 585 q 265 570 275 585 q 250 531 254 556 q 242 474 246 507 l 196 167 q 195 133 194 147 q 199 112 196 119 q 210 101 203 104 q 225 97 217 97 m 176 775 l 189 869 l 488 869 l 475 775 l 176 775 z "},"&":{"ha":633,"x_min":7,"x_max":611,"o":"m 207 -4 q 88 24 135 -4 q 24 103 42 51 q 15 225 7 154 q 58 335 25 285 q 149 396 92 385 q 133 460 138 425 q 138 540 128 496 q 202 664 153 621 q 340 707 251 707 q 428 701 385 707 q 506 687 472 694 q 551 674 540 679 l 532 538 q 504 545 529 539 q 444 556 479 551 q 372 561 408 561 q 328 549 346 561 q 303 518 311 538 q 297 476 296 499 q 308 432 299 454 q 324 407 315 421 q 341 378 332 393 q 359 349 350 363 q 375 326 368 336 l 393 440 l 611 440 l 596 324 l 497 324 q 492 290 496 306 q 485 258 489 274 q 476 228 482 243 q 526 192 499 210 q 572 165 554 174 l 549 -3 q 472 21 517 -3 q 390 75 428 44 q 340 30 368 47 q 278 4 311 13 q 207 -4 244 -4 m 233 125 q 274 134 257 125 q 303 158 292 143 q 244 228 272 192 q 197 300 217 265 q 177 279 185 292 q 167 244 169 267 q 174 157 154 189 q 233 125 194 125 z "},"ą":{"ha":535,"x_min":3,"x_max":542,"o":"m 167 -11 q 101 -6 133 -11 q 46 21 69 0 q 13 85 22 42 q 14 203 3 128 l 64 542 q 103 644 74 611 q 169 686 133 676 q 232 696 206 696 q 311 677 286 696 q 346 636 336 658 l 353 688 l 542 688 l 444 0 l 296 0 l 308 75 q 281 37 297 57 q 236 3 264 17 q 167 -11 208 -11 m 225 97 q 247 105 238 97 q 263 125 257 113 q 274 152 269 138 q 281 180 278 167 q 285 204 283 193 l 336 567 q 329 573 333 568 q 317 581 325 578 q 294 585 310 585 q 265 570 275 585 q 250 531 254 556 q 242 474 246 507 l 196 167 q 195 133 194 147 q 199 112 196 119 q 210 101 203 104 q 225 97 217 97 m 335 -206 q 250 -177 279 -206 q 226 -114 221 -149 q 269 -40 232 -75 q 361 3 307 -4 l 433 0 q 374 -37 394 -11 q 350 -87 353 -62 q 363 -126 347 -112 q 394 -140 378 -140 q 413 -138 406 -140 q 422 -135 419 -136 l 438 -182 q 406 -196 429 -186 q 335 -206 382 -206 z "},"≈":{"ha":749,"x_min":13,"x_max":736,"o":"m 519 414 q 426 433 468 417 q 342 465 385 449 q 247 485 299 482 q 182 465 208 486 q 149 415 156 443 l 54 415 q 91 510 63 467 q 166 579 119 553 q 271 603 213 606 q 359 586 318 601 q 440 556 400 571 q 525 539 481 542 q 601 556 578 536 q 631 599 624 576 l 736 599 q 690 480 725 521 q 608 425 654 439 q 519 414 563 411 m 476 117 q 385 135 428 119 q 301 169 343 151 q 206 188 258 186 q 140 168 167 190 q 107 119 113 146 l 13 119 q 49 213 19 169 q 124 282 78 256 q 228 307 169 308 q 318 290 278 306 q 399 260 358 275 q 483 243 439 244 q 559 260 536 240 q 589 303 582 279 l 694 303 q 647 183 682 225 q 567 128 613 142 q 476 117 521 115 z "},"å":{"ha":535,"x_min":3,"x_max":542,"o":"m 167 -11 q 101 -6 133 -11 q 46 21 69 0 q 13 85 22 42 q 14 203 3 128 l 64 542 q 103 644 74 611 q 169 686 133 676 q 232 696 206 696 q 311 677 286 696 q 346 636 336 658 l 353 688 l 542 688 l 444 0 l 296 0 l 308 75 q 281 37 297 57 q 236 3 264 17 q 167 -11 208 -11 m 225 97 q 247 105 238 97 q 263 125 257 113 q 274 152 269 138 q 281 180 278 167 q 285 204 283 193 l 336 567 q 329 573 333 568 q 317 581 325 578 q 294 585 310 585 q 265 570 275 585 q 250 531 254 556 q 242 474 246 507 l 196 167 q 195 133 194 147 q 199 112 196 119 q 210 101 203 104 q 225 97 217 97 m 331 750 q 246 784 276 750 q 222 867 215 818 q 269 952 229 918 q 364 986 310 986 q 447 951 415 986 q 472 867 479 917 q 424 784 465 818 q 331 750 382 750 m 340 824 q 377 836 361 824 q 394 867 393 849 q 385 901 397 889 q 353 914 374 914 q 317 901 332 914 q 299 867 303 889 q 309 836 297 849 q 340 824 321 824 z "},"^":{"ha":599,"x_min":24,"x_max":532,"o":"m 24 688 l 276 986 l 367 986 l 532 688 l 382 688 l 303 844 l 178 688 l 24 688 z "},"~":{"ha":749,"x_min":33,"x_max":715,"o":"m 497 704 q 406 723 449 707 q 321 756 364 739 q 226 775 278 772 q 161 756 188 778 q 128 707 135 733 l 33 707 q 70 801 42 758 q 145 871 99 844 q 250 894 192 897 q 339 878 299 893 q 419 847 379 863 q 504 829 460 832 q 580 847 557 828 q 610 890 603 867 l 715 890 q 668 771 703 811 q 587 717 633 731 q 497 704 540 704 z "},"*":{"ha":819,"x_min":51,"x_max":725,"o":"m 228 108 l 101 213 l 333 406 l 51 426 l 142 615 l 363 464 l 342 742 l 522 742 l 428 465 l 693 610 l 725 436 l 440 406 l 622 214 l 464 113 l 383 367 l 228 108 z "},"@":{"ha":975,"x_min":14,"x_max":964,"o":"m 406 -94 q 151 -43 238 -94 q 39 108 64 8 q 33 349 14 207 q 188 698 65 574 q 544 824 311 822 q 774 783 676 825 q 918 649 872 740 q 943 411 964 558 q 890 225 928 297 q 801 118 851 153 q 694 83 750 83 q 635 93 663 83 q 587 122 608 103 q 555 171 565 142 q 546 238 544 200 l 585 224 q 512 132 554 160 q 406 104 469 104 q 303 140 338 104 q 279 258 268 175 q 297 326 285 297 q 347 381 310 356 q 464 425 383 406 q 524 449 500 433 q 551 476 547 465 q 556 494 554 485 q 558 513 557 503 q 555 554 563 543 q 517 565 547 565 q 473 551 488 565 q 454 503 458 538 l 449 461 l 321 461 l 328 510 q 352 588 335 558 q 410 630 369 617 q 525 643 450 643 q 646 627 606 643 q 697 578 686 611 q 700 494 708 546 l 667 260 q 677 177 658 200 q 728 154 696 154 q 773 175 750 154 q 815 247 796 196 q 847 389 833 299 q 835 581 864 500 q 735 706 807 663 q 542 749 663 749 q 337 711 421 749 q 202 585 253 674 q 129 347 151 497 q 129 162 114 233 q 186 52 144 90 q 290 -2 228 14 q 433 -19 353 -18 q 509 -17 461 -21 q 610 -5 557 -12 q 710 14 664 3 q 779 38 757 25 l 769 -33 q 686 -60 740 -44 q 560 -85 632 -75 q 406 -94 488 -94 m 461 203 q 502 215 488 203 q 524 242 517 228 q 533 268 532 257 l 549 375 q 501 367 524 374 q 464 351 479 360 q 438 333 449 343 q 420 309 426 324 q 411 274 414 294 q 414 222 407 240 q 461 203 421 203 z "},"ã":{"ha":535,"x_min":3,"x_max":542,"o":"m 167 -11 q 101 -6 133 -11 q 46 21 69 0 q 13 85 22 42 q 14 203 3 128 l 64 542 q 103 644 74 611 q 169 686 133 676 q 232 696 206 696 q 311 677 286 696 q 346 636 336 658 l 353 688 l 542 688 l 444 0 l 296 0 l 308 75 q 281 37 297 57 q 236 3 264 17 q 167 -11 208 -11 m 225 97 q 247 105 238 97 q 263 125 257 113 q 274 152 269 138 q 281 180 278 167 q 285 204 283 193 l 336 567 q 329 573 333 568 q 317 581 325 578 q 294 585 310 585 q 265 570 275 585 q 250 531 254 556 q 242 474 246 507 l 196 167 q 195 133 194 147 q 199 112 196 119 q 210 101 203 104 q 225 97 217 97 m 400 763 q 360 772 378 763 q 324 792 342 781 q 294 807 310 800 q 263 814 279 814 q 233 800 244 814 q 217 764 221 786 l 164 764 q 203 862 172 825 q 276 899 235 899 q 319 891 300 899 q 354 874 338 883 q 384 858 369 865 q 414 851 399 851 q 446 864 435 851 q 463 894 457 876 l 521 894 q 473 797 511 831 q 400 763 435 763 z "},"b":{"ha":536,"x_min":-6,"x_max":536,"o":"m 267 -10 q 176 15 206 -10 q 140 61 147 40 l 128 0 l -6 0 l 118 875 l 307 875 l 274 640 q 318 681 289 660 q 399 701 347 701 q 456 694 429 701 q 501 669 482 688 q 528 620 521 651 q 529 540 536 589 l 483 208 q 453 92 472 136 q 407 27 435 49 q 344 -2 379 6 q 267 -10 310 -10 m 240 118 q 270 126 261 118 q 284 150 279 135 q 290 185 289 165 l 338 522 q 340 549 340 538 q 338 567 340 560 q 327 579 335 575 q 307 583 319 583 q 282 577 292 583 q 266 558 272 571 q 257 526 260 546 l 211 190 q 208 162 208 175 q 210 139 207 149 q 219 124 213 129 q 240 118 226 118 z "},"\\":{"ha":807,"x_min":111,"x_max":586,"o":"m 456 -61 l 111 875 l 243 875 l 586 -61 l 456 -61 z "},"|":{"ha":433,"x_min":50,"x_max":383,"o":"m 50 -331 l 219 875 l 383 875 l 214 -331 l 50 -331 z "},"б":{"ha":529,"x_min":0,"x_max":535,"o":"m 206 -10 q 97 3 144 -10 q 24 53 49 17 q 10 158 0 89 l 76 644 q 104 766 86 715 q 158 844 122 817 q 257 871 194 871 q 313 874 279 871 q 385 881 347 876 q 456 890 422 885 q 512 900 490 894 q 535 910 533 906 q 531 874 533 892 q 525 838 528 857 q 497 790 522 811 q 413 768 471 769 l 397 768 q 318 756 344 768 q 283 722 292 743 q 269 671 274 700 l 263 626 q 306 667 278 647 q 386 688 333 688 q 460 675 426 688 q 513 628 494 663 q 521 526 531 594 l 476 210 q 445 92 465 136 q 392 26 425 47 q 313 -3 358 4 q 206 -10 268 -10 m 229 97 q 256 103 246 97 q 272 124 265 110 q 281 158 278 139 l 329 511 q 331 545 333 532 q 322 565 329 558 q 297 571 314 571 q 275 567 285 571 q 260 555 265 563 q 252 538 256 547 q 246 514 249 528 l 197 158 q 195 124 193 139 q 206 103 197 110 q 229 97 214 97 z "},"{":{"ha":476,"x_min":24,"x_max":492,"o":"m 336 -189 q 141 -157 210 -187 q 48 -78 72 -126 q 31 18 24 -31 q 60 109 39 74 q 107 169 82 144 q 151 217 132 194 q 175 267 171 239 q 169 306 179 289 q 140 332 160 322 q 88 342 119 342 l 94 394 q 144 407 121 394 q 183 440 167 419 q 201 485 199 461 q 192 526 206 504 q 161 572 179 547 q 132 630 143 597 q 126 707 121 663 q 171 813 135 764 q 284 892 207 861 q 492 924 361 922 l 478 825 q 410 812 442 819 q 358 781 379 804 q 331 707 338 757 q 333 637 325 667 q 351 582 340 607 q 370 531 363 557 q 374 472 378 506 q 358 429 371 453 q 318 388 344 406 q 247 368 292 371 q 324 345 294 365 q 347 274 354 325 q 330 223 343 247 q 300 172 317 199 q 269 114 283 146 q 249 39 254 82 q 258 -40 242 -11 q 301 -79 275 -68 q 349 -92 328 -90 l 336 -189 z "},"}":{"ha":476,"x_min":-14,"x_max":453,"o":"m -14 -189 l 0 -92 q 51 -79 21 -90 q 105 -40 81 -68 q 136 39 129 -11 q 137 114 142 82 q 122 172 132 146 q 106 223 113 199 q 104 274 100 247 q 146 345 110 325 q 229 368 182 365 q 165 388 188 371 q 136 429 143 406 q 132 472 129 453 q 151 531 136 506 q 186 582 167 557 q 221 637 206 607 q 242 707 236 667 q 234 781 249 757 q 191 812 219 804 q 128 825 163 819 l 142 924 q 340 892 271 922 q 431 813 408 861 q 444 707 453 764 q 418 630 439 663 q 373 572 397 597 q 331 526 349 547 q 308 485 313 504 q 315 440 306 461 q 345 407 325 419 q 390 394 365 394 l 382 342 q 328 332 351 342 q 290 306 304 322 q 274 267 276 289 q 283 217 269 239 q 314 169 296 194 q 344 109 332 144 q 349 18 356 74 q 303 -78 342 -31 q 189 -157 265 -126 q -14 -189 113 -187 z "},"[":{"ha":449,"x_min":-8,"x_max":458,"o":"m -8 -79 l 125 875 l 458 875 l 444 776 l 289 776 l 182 19 l 339 19 l 325 -79 l -8 -79 z "},"]":{"ha":449,"x_min":-8,"x_max":458,"o":"m -8 -79 l 4 19 l 160 19 l 267 776 l 111 776 l 125 875 l 458 875 l 325 -79 l -8 -79 z "},"˘":{"ha":332,"x_min":76,"x_max":411,"o":"m 222 764 q 139 778 169 764 q 95 816 108 793 q 79 863 82 839 q 79 908 76 888 l 181 908 q 194 866 176 881 q 236 851 213 851 q 283 865 263 851 q 310 908 303 879 l 411 908 q 384 836 406 869 q 322 783 363 803 q 222 764 282 764 z "},"̆":{"ha":0,"x_min":76,"x_max":411,"o":"m 222 764 q 139 778 169 764 q 95 816 108 793 q 79 863 82 839 q 79 908 76 888 l 181 908 q 194 866 176 881 q 236 851 213 851 q 283 865 263 851 q 310 908 303 879 l 411 908 q 384 836 406 869 q 322 783 363 803 q 222 764 282 764 z "},"¦":{"ha":324,"x_min":6,"x_max":317,"o":"m 6 -231 l 74 249 l 238 249 l 169 -231 l 6 -231 m 92 372 l 153 813 l 317 813 l 256 372 l 92 372 z "},"•":{"ha":503,"x_min":61,"x_max":440,"o":"m 251 199 q 156 224 199 199 q 87 293 113 250 q 61 389 61 336 q 87 484 61 442 q 156 552 113 526 q 251 578 199 578 q 347 552 304 578 q 415 484 389 526 q 440 389 440 442 q 415 293 440 336 q 347 224 389 250 q 251 199 304 199 z "},"c":{"ha":519,"x_min":6,"x_max":532,"o":"m 214 -17 q 117 -8 158 -17 q 50 24 76 0 q 15 96 24 49 q 17 221 6 143 l 60 521 q 138 660 74 622 q 314 699 201 699 q 478 660 425 699 q 517 521 532 622 l 503 415 l 314 415 l 332 544 q 328 588 336 575 q 300 601 321 601 q 267 588 279 601 q 251 544 256 575 l 194 140 q 198 95 190 108 q 226 82 206 82 q 260 95 249 82 q 275 140 271 108 l 296 288 l 485 288 l 475 222 q 427 66 461 117 q 339 -1 393 15 q 214 -17 285 -17 z "},"ć":{"ha":519,"x_min":6,"x_max":532,"o":"m 214 -17 q 117 -8 158 -17 q 50 24 76 0 q 15 96 24 49 q 17 221 6 143 l 60 521 q 138 660 74 622 q 314 699 201 699 q 478 660 425 699 q 517 521 532 622 l 503 415 l 314 415 l 332 544 q 328 588 336 575 q 300 601 321 601 q 267 588 279 601 q 251 544 256 575 l 194 140 q 198 95 190 108 q 226 82 206 82 q 260 95 249 82 q 275 140 271 108 l 296 288 l 485 288 l 475 222 q 427 66 461 117 q 339 -1 393 15 q 214 -17 285 -17 m 233 763 l 324 906 l 503 906 l 351 763 l 233 763 z "},"ˇ":{"ha":374,"x_min":79,"x_max":453,"o":"m 193 757 l 79 911 l 193 911 l 256 840 l 343 911 l 453 911 l 296 757 l 193 757 z "},"̌":{"ha":0,"x_min":79,"x_max":453,"o":"m 193 757 l 79 911 l 193 911 l 256 840 l 343 911 l 453 911 l 296 757 l 193 757 z "},"č":{"ha":519,"x_min":6,"x_max":532,"o":"m 214 -17 q 117 -8 158 -17 q 50 24 76 0 q 15 96 24 49 q 17 221 6 143 l 60 521 q 138 660 74 622 q 314 699 201 699 q 478 660 425 699 q 517 521 532 622 l 503 415 l 314 415 l 332 544 q 328 588 336 575 q 300 601 321 601 q 267 588 279 601 q 251 544 256 575 l 194 140 q 198 95 190 108 q 226 82 206 82 q 260 95 249 82 q 275 140 271 108 l 296 288 l 485 288 l 475 222 q 427 66 461 117 q 339 -1 393 15 q 214 -17 285 -17 m 268 757 l 154 911 l 268 911 l 331 840 l 418 911 l 528 911 l 371 757 l 268 757 z "},"ç":{"ha":519,"x_min":6,"x_max":532,"o":"m 214 -17 q 117 -8 158 -17 q 50 24 76 0 q 15 96 24 49 q 17 221 6 143 l 60 521 q 138 660 74 622 q 314 699 201 699 q 478 660 425 699 q 517 521 532 622 l 503 415 l 314 415 l 332 544 q 328 588 336 575 q 300 601 321 601 q 267 588 279 601 q 251 544 256 575 l 194 140 q 198 95 190 108 q 226 82 206 82 q 260 95 249 82 q 275 140 271 108 l 296 288 l 485 288 l 475 222 q 427 66 461 117 q 339 -1 393 15 q 214 -17 285 -17 m 171 -226 q 119 -215 143 -226 q 88 -199 96 -204 l 119 -140 q 142 -153 126 -147 q 172 -160 157 -160 q 205 -150 193 -160 q 218 -125 217 -140 q 194 -99 222 -99 q 179 -101 186 -99 q 168 -107 172 -104 l 122 -81 l 176 0 l 247 0 l 201 -65 l 193 -61 q 217 -51 203 -54 q 247 -47 231 -47 q 308 -72 290 -47 q 321 -128 325 -97 q 275 -197 315 -168 q 171 -226 235 -226 z "},"ċ":{"ha":519,"x_min":6,"x_max":532,"o":"m 214 -17 q 117 -8 158 -17 q 50 24 76 0 q 15 96 24 49 q 17 221 6 143 l 60 521 q 138 660 74 622 q 314 699 201 699 q 478 660 425 699 q 517 521 532 622 l 503 415 l 314 415 l 332 544 q 328 588 336 575 q 300 601 321 601 q 267 588 279 601 q 251 544 256 575 l 194 140 q 198 95 190 108 q 226 82 206 82 q 260 95 249 82 q 275 140 271 108 l 296 288 l 485 288 l 475 222 q 427 66 461 117 q 339 -1 393 15 q 214 -17 285 -17 m 331 751 q 265 778 293 751 q 236 842 238 804 q 265 907 236 881 q 332 933 293 933 q 399 907 371 933 q 428 842 428 881 q 399 778 428 804 q 331 751 371 751 z "},"¸":{"ha":224,"x_min":-76,"x_max":163,"o":"m 7 -226 q -44 -215 -21 -226 q -76 -199 -68 -204 l -44 -140 q -22 -153 -37 -147 q 8 -160 -7 -160 q 41 -150 29 -160 q 54 -125 53 -140 q 31 -99 58 -99 q 15 -101 22 -99 q 4 -107 8 -104 l -42 -81 l 13 0 l 83 0 l 38 -65 l 29 -61 q 53 -51 39 -54 q 83 -47 67 -47 q 144 -72 126 -47 q 157 -128 161 -97 q 111 -197 151 -168 q 7 -226 71 -226 z "},"̧":{"ha":0,"x_min":-87,"x_max":150,"o":"m -4 -226 q -56 -215 -32 -226 q -87 -199 -79 -204 l -56 -140 q -33 -153 -49 -147 q -3 -160 -18 -160 q 30 -150 18 -160 q 43 -125 42 -140 q 19 -99 47 -99 q 4 -101 11 -99 q -7 -107 -3 -104 l -53 -81 l 1 0 l 72 0 l 26 -65 l 18 -61 q 42 -51 28 -54 q 72 -47 56 -47 q 133 -72 115 -47 q 146 -128 150 -97 q 100 -197 140 -168 q -4 -226 60 -226 z "},"¢":{"ha":521,"x_min":17,"x_max":513,"o":"m 136 -92 l 158 68 q 76 92 110 74 q 30 152 43 110 q 28 272 17 194 l 76 622 q 108 708 83 675 q 170 757 132 740 q 258 778 208 774 l 275 901 l 392 901 l 374 774 q 449 749 417 767 q 497 700 481 731 q 506 622 513 669 l 485 472 l 319 472 l 342 633 q 339 664 344 654 q 322 678 333 674 q 300 682 311 682 q 277 678 289 682 q 256 664 265 674 q 244 633 247 654 l 185 213 q 188 181 182 192 q 205 165 194 169 q 226 161 215 161 q 250 165 239 161 q 270 181 261 169 q 282 213 279 192 l 304 361 l 468 361 l 456 274 q 421 163 447 204 q 358 101 394 121 q 275 74 321 81 l 253 -92 l 136 -92 z "},"ч":{"ha":532,"x_min":18,"x_max":538,"o":"m 264 0 l 294 219 q 240 148 281 174 q 154 122 200 122 q 61 143 92 122 q 24 206 31 164 q 26 306 18 247 l 81 688 l 269 688 l 217 306 q 219 263 213 278 q 247 249 226 249 q 272 255 261 249 q 289 268 283 261 l 349 688 l 538 688 l 440 0 l 264 0 z "},"ˆ":{"ha":374,"x_min":58,"x_max":432,"o":"m 58 757 l 214 911 l 317 911 l 432 757 l 321 757 l 256 832 l 171 757 l 58 757 z "},"̂":{"ha":0,"x_min":58,"x_max":432,"o":"m 58 757 l 214 911 l 317 911 l 432 757 l 321 757 l 256 832 l 171 757 l 58 757 z "},":":{"ha":206,"x_min":25,"x_max":146,"o":"m 107 390 q 86 399 94 390 q 79 421 78 408 q 92 442 82 433 q 115 451 103 451 q 137 442 128 451 q 143 421 146 433 q 131 399 142 408 q 107 390 119 390 m 54 -7 q 33 2 42 -7 q 26 24 25 11 q 40 45 29 36 q 63 54 50 54 q 84 45 75 54 q 90 24 93 36 q 78 2 89 11 q 54 -7 67 -7 z "},",":{"ha":332,"x_min":-10,"x_max":224,"o":"m -10 -221 q 47 -126 22 -169 q 72 -44 71 -83 q 63 -7 72 -19 q 44 20 54 6 q 33 63 33 35 q 63 129 33 101 q 135 157 93 157 q 199 133 175 157 q 224 71 224 110 q 199 -24 224 31 q 140 -130 174 -78 q 72 -221 106 -182 l -10 -221 z "},"̦":{"ha":0,"x_min":-90,"x_max":100,"o":"m -90 -281 q -47 -222 -62 -247 q -31 -181 -31 -196 q -38 -162 -29 -169 q -56 -143 -47 -154 q -61 -112 -64 -132 q -35 -71 -60 -90 q 24 -51 -11 -51 q 80 -71 60 -51 q 97 -121 100 -90 q 76 -170 94 -140 q 34 -229 58 -200 q -14 -281 10 -258 l -90 -281 z "},"̒":{"ha":0,"x_min":63,"x_max":253,"o":"m 253 969 q 211 912 226 938 q 193 869 196 886 q 201 852 192 860 q 219 833 211 844 q 225 803 228 822 q 198 760 222 779 q 139 742 174 742 q 83 761 104 742 q 67 811 63 781 q 88 860 69 832 q 130 919 106 889 q 176 969 154 949 l 253 969 z "},"©":{"ha":833,"x_min":25,"x_max":833,"o":"m 375 42 q 185 94 267 42 q 65 235 104 147 q 40 432 25 324 q 92 583 51 513 q 192 708 132 654 q 328 791 253 761 q 483 821 403 821 q 672 769 592 821 q 793 628 753 717 q 818 433 833 540 q 767 281 807 351 q 666 156 726 210 q 531 72 606 101 q 375 42 456 42 m 385 111 q 511 136 450 111 q 622 206 572 161 q 705 308 672 250 q 746 432 738 367 q 727 592 760 521 q 628 707 694 664 q 474 750 563 750 q 347 725 408 750 q 236 656 286 700 q 153 555 186 613 q 111 432 121 497 q 119 308 103 367 q 174 206 136 250 q 265 136 211 161 q 385 111 319 111 m 369 203 q 304 208 332 203 q 261 230 276 214 q 243 278 246 246 q 256 361 240 310 l 308 561 q 372 655 325 629 q 496 681 418 681 q 606 655 572 681 q 621 561 639 629 l 601 492 l 474 492 l 496 578 q 498 606 503 597 q 476 615 493 615 q 454 606 463 615 q 440 578 446 597 l 368 307 q 367 278 363 286 q 388 269 372 269 q 410 278 401 269 q 425 307 419 286 l 451 406 l 579 406 l 568 363 q 521 258 549 293 q 456 213 493 224 q 369 203 419 203 z "},"¤":{"ha":756,"x_min":46,"x_max":711,"o":"m 135 90 l 50 176 l 192 319 q 171 366 178 342 q 164 418 164 390 q 190 518 164 472 l 46 663 l 131 747 l 278 601 q 376 625 325 625 q 475 601 429 625 l 622 750 l 707 665 l 563 519 q 590 418 590 474 q 564 319 590 365 l 711 175 l 625 90 l 476 239 q 427 220 451 226 q 376 214 403 214 q 279 236 324 214 l 135 90 m 376 338 q 433 360 410 338 q 457 418 457 383 q 433 476 457 453 q 376 500 410 500 q 320 476 343 500 q 297 418 297 453 q 320 360 297 383 q 376 338 343 338 z "},"d":{"ha":536,"x_min":4,"x_max":568,"o":"m 169 -10 q 94 -2 128 -10 q 40 27 61 6 q 12 92 19 49 q 15 208 4 135 l 61 540 q 99 638 71 604 q 164 683 128 671 q 232 696 200 696 q 312 678 288 696 q 346 640 336 660 l 379 875 l 568 875 l 444 0 l 317 0 l 307 65 q 283 36 299 54 q 238 4 267 18 q 169 -10 210 -10 m 228 96 q 249 101 240 96 q 263 115 257 106 q 272 135 268 124 q 279 164 276 147 q 307 365 293 264 q 335 567 321 467 q 331 574 335 569 q 319 581 326 578 q 297 583 311 583 q 271 576 281 583 q 256 556 261 569 q 247 522 251 543 l 197 157 q 196 131 196 142 q 199 112 196 119 q 208 100 201 104 q 228 96 215 96 z "},"†":{"ha":540,"x_min":61,"x_max":525,"o":"m 119 -168 l 204 429 l 61 429 l 75 529 l 217 529 l 258 813 l 422 813 l 382 529 l 525 529 l 511 429 l 368 429 l 283 -168 l 119 -168 z "},"‡":{"ha":550,"x_min":21,"x_max":533,"o":"m 119 -168 l 167 171 l 21 171 l 36 286 l 183 286 l 206 449 l 60 449 l 76 563 l 222 563 l 265 865 l 431 865 l 388 563 l 533 563 l 518 449 l 371 449 l 349 286 l 494 286 l 478 171 l 332 171 l 285 -168 l 119 -168 z "},"ď":{"ha":671,"x_min":4,"x_max":767,"o":"m 169 -10 q 94 -2 128 -10 q 40 27 61 6 q 12 92 19 49 q 15 208 4 135 l 61 540 q 99 638 71 604 q 164 683 128 671 q 232 696 200 696 q 312 678 288 696 q 346 640 336 660 l 379 875 l 568 875 l 444 0 l 317 0 l 307 65 q 283 36 299 54 q 238 4 267 18 q 169 -10 210 -10 m 228 96 q 249 101 240 96 q 263 115 257 106 q 272 135 268 124 q 279 164 276 147 q 307 365 293 264 q 335 567 321 467 q 331 574 335 569 q 319 581 326 578 q 297 583 311 583 q 271 576 281 583 q 256 556 261 569 q 247 522 251 543 l 197 157 q 196 131 196 142 q 199 112 196 119 q 208 100 201 104 q 228 96 215 96 m 588 683 l 653 897 l 765 897 l 653 683 l 588 683 z "},"đ":{"ha":533,"x_min":4,"x_max":607,"o":"m 263 742 l 272 810 l 607 810 l 597 742 l 263 742 m 169 -10 q 94 -2 128 -10 q 40 27 61 6 q 12 92 19 49 q 15 208 4 135 l 61 540 q 99 638 71 604 q 164 683 128 671 q 232 696 200 696 q 312 678 288 696 q 346 640 336 660 l 379 875 l 568 875 l 444 0 l 317 0 l 307 65 q 283 36 299 54 q 238 4 267 18 q 169 -10 210 -10 m 228 96 q 249 101 240 96 q 263 115 257 106 q 272 135 268 124 q 279 164 276 147 q 307 365 293 264 q 335 567 321 467 q 331 574 335 569 q 319 581 326 578 q 297 583 311 583 q 271 576 281 583 q 256 556 261 569 q 247 522 251 543 l 197 157 q 196 131 196 142 q 199 112 196 119 q 208 100 201 104 q 228 96 215 96 z "},"д":{"ha":760,"x_min":-51,"x_max":711,"o":"m -51 -161 l -14 110 l 29 110 q 68 126 46 113 q 113 170 90 140 q 147 250 135 200 l 258 688 l 682 688 l 601 110 l 711 110 l 674 -161 l 517 -161 l 533 -37 l 122 -37 l 106 -161 l -51 -161 m 269 110 l 400 110 l 463 553 l 413 553 l 332 253 q 307 167 322 211 q 269 110 292 122 z "},"°":{"ha":460,"x_min":36,"x_max":421,"o":"m 204 463 q 73 515 110 463 q 46 640 36 567 q 106 768 57 715 q 257 821 156 821 q 362 797 326 821 q 409 732 397 772 q 414 643 421 692 q 351 513 403 564 q 204 463 299 463 m 217 546 q 284 573 257 546 q 318 642 311 600 q 305 709 324 679 q 243 739 286 739 q 176 710 203 739 q 143 640 149 681 q 158 573 136 600 q 217 546 179 546 z "},"¨":{"ha":331,"x_min":69,"x_max":399,"o":"m 144 764 q 91 785 113 764 q 69 836 69 806 q 91 885 69 865 q 144 906 113 906 q 197 885 176 906 q 218 836 218 865 q 197 785 218 806 q 144 764 176 764 m 325 764 q 272 785 293 764 q 250 836 250 806 q 272 885 250 865 q 325 906 293 906 q 378 885 357 906 q 399 836 399 865 q 378 785 399 806 q 325 764 357 764 z "},"̈":{"ha":0,"x_min":69,"x_max":399,"o":"m 144 764 q 91 785 113 764 q 69 836 69 806 q 91 885 69 865 q 144 906 113 906 q 197 885 176 906 q 218 836 218 865 q 197 785 218 806 q 144 764 176 764 m 325 764 q 272 785 293 764 q 250 836 250 806 q 272 885 250 865 q 325 906 293 906 q 378 885 357 906 q 399 836 399 865 q 378 785 399 806 q 325 764 357 764 z "},"÷":{"ha":550,"x_min":50,"x_max":500,"o":"m 50 335 l 67 461 l 500 461 l 483 335 l 50 335 m 231 88 q 172 111 193 88 q 156 169 150 135 q 188 231 160 206 q 254 256 217 256 q 314 231 292 256 q 331 169 336 206 q 297 111 326 135 q 231 88 268 88 m 292 539 q 234 563 256 539 q 217 622 213 588 q 251 683 222 658 q 315 707 279 707 q 376 683 353 707 q 393 622 399 658 q 359 563 389 588 q 292 539 329 539 z "},"∕":{"ha":478,"x_min":-137,"x_max":631,"o":"m -137 -206 l 500 996 l 631 996 l -8 -206 l -137 -206 z "},"ђ":{"ha":621,"x_min":58,"x_max":594,"o":"m 326 -126 q 289 -121 306 -126 q 263 -107 272 -115 q 272 -65 268 -86 q 281 -24 276 -44 q 289 -28 285 -26 q 297 -29 293 -29 q 329 -13 318 -29 q 344 36 340 3 l 396 399 q 396 431 399 418 q 385 449 393 443 q 363 454 378 454 q 342 450 350 454 q 328 439 333 446 q 319 425 324 432 q 313 410 315 418 l 256 0 l 63 0 l 158 672 l 58 672 l 72 772 l 171 772 l 186 875 l 379 875 l 364 772 l 485 772 l 472 672 l 350 672 l 326 510 q 372 551 343 532 q 451 569 401 569 q 526 558 492 569 q 577 512 560 546 q 585 410 594 478 l 540 88 q 508 -35 529 8 q 460 -99 488 -79 q 399 -122 432 -118 q 326 -126 365 -126 z "},"$":{"ha":497,"x_min":1,"x_max":521,"o":"m 144 -82 l 164 67 q 31 128 60 75 q 15 279 1 181 l 22 326 l 201 326 l 190 238 q 188 199 188 215 q 194 174 188 182 q 219 165 200 165 q 246 173 238 165 q 259 193 254 181 q 265 218 264 206 l 274 276 q 268 330 279 311 q 233 360 257 349 q 178 388 210 372 q 120 419 147 400 q 78 472 93 439 q 71 556 64 504 l 76 596 q 131 723 88 676 q 265 781 174 769 l 281 901 l 382 901 l 367 782 q 492 724 464 774 q 507 579 521 674 l 500 532 l 328 532 l 340 615 q 340 667 346 651 q 311 683 333 683 q 278 669 288 683 q 265 633 268 654 l 256 575 q 268 522 251 540 q 312 494 285 504 q 365 472 339 483 q 422 441 396 460 q 463 391 449 422 q 469 310 476 360 l 463 264 q 434 167 456 208 q 372 100 413 125 q 265 67 332 75 l 244 -82 l 144 -82 z "},"˙":{"ha":150,"x_min":71,"x_max":263,"o":"m 165 751 q 100 778 128 751 q 71 842 72 804 q 99 907 71 881 q 167 933 128 933 q 234 907 206 933 q 263 842 263 881 q 234 778 263 804 q 165 751 206 751 z "},"̇":{"ha":0,"x_min":71,"x_max":263,"o":"m 165 751 q 100 778 128 751 q 71 842 72 804 q 99 907 71 881 q 167 933 128 933 q 234 907 206 933 q 263 842 263 881 q 234 778 263 804 q 165 751 206 751 z "},"̣":{"ha":0,"x_min":-65,"x_max":83,"o":"m 10 -192 q -44 -171 -22 -192 q -65 -119 -65 -150 q -44 -69 -65 -89 q 10 -49 -22 -49 q 63 -69 42 -49 q 83 -119 83 -89 q 63 -171 83 -150 q 10 -192 42 -192 z "},"↓":{"ha":746,"x_min":46,"x_max":700,"o":"m 375 -1 l 46 408 l 136 500 l 296 325 l 301 1018 l 451 1017 l 449 328 l 610 499 l 700 407 l 375 -1 z "},"ѕ":{"ha":521,"x_min":-6,"x_max":526,"o":"m 206 -18 q 91 -3 135 -18 q 26 38 47 11 q -1 106 4 65 q 3 196 -6 146 l 10 244 l 200 244 l 188 156 q 183 117 183 133 q 191 92 183 100 q 217 83 199 83 q 244 91 235 83 q 258 111 253 99 q 265 136 263 124 l 272 194 q 266 248 278 229 q 230 278 254 267 q 171 304 206 290 q 110 338 140 318 q 66 390 81 357 q 58 474 51 422 l 64 513 q 100 618 74 576 q 181 681 126 660 q 322 701 235 701 q 455 679 410 701 q 513 612 500 657 q 517 497 526 567 l 511 449 l 328 449 l 339 532 q 338 585 343 569 q 310 600 332 600 q 276 586 286 600 q 263 551 265 572 l 254 492 q 267 440 250 458 q 312 412 283 422 q 367 390 340 401 q 428 359 400 378 q 471 309 456 340 q 479 228 486 278 l 472 182 q 438 74 464 118 q 356 6 411 29 q 206 -18 300 -18 z "},"џ":{"ha":547,"x_min":-6,"x_max":553,"o":"m 136 -140 l 156 0 l -6 0 l 92 688 l 281 688 l 203 135 l 286 135 l 364 688 l 553 688 l 456 0 l 292 0 l 272 -140 l 136 -140 z "},"e":{"ha":514,"x_min":3,"x_max":533,"o":"m 214 -17 q 92 1 142 -17 q 23 69 43 18 q 15 218 3 119 l 60 521 q 135 660 74 622 q 292 697 196 697 q 478 658 422 697 q 517 514 533 619 q 473 413 508 453 q 390 352 438 374 q 294 322 342 331 q 213 313 247 313 l 193 163 q 195 104 188 121 q 226 88 203 88 q 260 101 249 88 q 278 157 272 115 l 293 260 l 479 260 l 469 188 q 429 58 458 101 q 348 -1 400 14 q 214 -17 296 -17 m 229 406 q 253 409 239 406 q 283 423 268 413 q 311 455 299 433 q 329 513 324 476 q 333 573 335 544 q 300 601 331 601 q 262 583 275 601 q 240 503 249 565 l 229 406 z "},"é":{"ha":514,"x_min":3,"x_max":533,"o":"m 214 -17 q 92 1 142 -17 q 23 69 43 18 q 15 218 3 119 l 60 521 q 135 660 74 622 q 292 697 196 697 q 478 658 422 697 q 517 514 533 619 q 473 413 508 453 q 390 352 438 374 q 294 322 342 331 q 213 313 247 313 l 193 163 q 195 104 188 121 q 226 88 203 88 q 260 101 249 88 q 278 157 272 115 l 293 260 l 479 260 l 469 188 q 429 58 458 101 q 348 -1 400 14 q 214 -17 296 -17 m 229 406 q 253 409 239 406 q 283 423 268 413 q 311 455 299 433 q 329 513 324 476 q 333 573 335 544 q 300 601 331 601 q 262 583 275 601 q 240 503 249 565 l 229 406 m 229 763 l 319 906 l 499 906 l 347 763 l 229 763 z "},"ě":{"ha":514,"x_min":3,"x_max":533,"o":"m 214 -17 q 92 1 142 -17 q 23 69 43 18 q 15 218 3 119 l 60 521 q 135 660 74 622 q 292 697 196 697 q 478 658 422 697 q 517 514 533 619 q 473 413 508 453 q 390 352 438 374 q 294 322 342 331 q 213 313 247 313 l 193 163 q 195 104 188 121 q 226 88 203 88 q 260 101 249 88 q 278 157 272 115 l 293 260 l 479 260 l 469 188 q 429 58 458 101 q 348 -1 400 14 q 214 -17 296 -17 m 229 406 q 253 409 239 406 q 283 423 268 413 q 311 455 299 433 q 329 513 324 476 q 333 573 335 544 q 300 601 331 601 q 262 583 275 601 q 240 503 249 565 l 229 406 m 264 757 l 150 911 l 264 911 l 326 840 l 414 911 l 524 911 l 367 757 l 264 757 z "},"ê":{"ha":514,"x_min":3,"x_max":533,"o":"m 214 -17 q 92 1 142 -17 q 23 69 43 18 q 15 218 3 119 l 60 521 q 135 660 74 622 q 292 697 196 697 q 478 658 422 697 q 517 514 533 619 q 473 413 508 453 q 390 352 438 374 q 294 322 342 331 q 213 313 247 313 l 193 163 q 195 104 188 121 q 226 88 203 88 q 260 101 249 88 q 278 157 272 115 l 293 260 l 479 260 l 469 188 q 429 58 458 101 q 348 -1 400 14 q 214 -17 296 -17 m 229 406 q 253 409 239 406 q 283 423 268 413 q 311 455 299 433 q 329 513 324 476 q 333 573 335 544 q 300 601 331 601 q 262 583 275 601 q 240 503 249 565 l 229 406 m 129 757 l 285 911 l 388 911 l 503 757 l 392 757 l 326 832 l 242 757 l 129 757 z "},"ế":{"ha":514,"x_min":3,"x_max":764,"o":"m 214 -17 q 92 1 142 -17 q 23 69 43 18 q 15 218 3 119 l 60 521 q 135 660 74 622 q 292 697 196 697 q 478 658 422 697 q 517 514 533 619 q 473 413 508 453 q 390 352 438 374 q 294 322 342 331 q 213 313 247 313 l 193 163 q 195 104 188 121 q 226 88 203 88 q 260 101 249 88 q 278 157 272 115 l 293 260 l 479 260 l 469 188 q 429 58 458 101 q 348 -1 400 14 q 214 -17 296 -17 m 229 406 q 253 409 239 406 q 283 423 268 413 q 311 455 299 433 q 329 513 324 476 q 333 573 335 544 q 300 601 331 601 q 262 583 275 601 q 240 503 249 565 l 229 406 m 129 757 l 285 911 l 388 911 l 503 757 l 392 757 l 326 832 l 242 757 l 129 757 m 494 849 l 585 992 l 764 992 l 613 849 l 494 849 z "},"ệ":{"ha":514,"x_min":3,"x_max":533,"o":"m 214 -17 q 92 1 142 -17 q 23 69 43 18 q 15 218 3 119 l 60 521 q 135 660 74 622 q 292 697 196 697 q 478 658 422 697 q 517 514 533 619 q 473 413 508 453 q 390 352 438 374 q 294 322 342 331 q 213 313 247 313 l 193 163 q 195 104 188 121 q 226 88 203 88 q 260 101 249 88 q 278 157 272 115 l 293 260 l 479 260 l 469 188 q 429 58 458 101 q 348 -1 400 14 q 214 -17 296 -17 m 229 406 q 253 409 239 406 q 283 423 268 413 q 311 455 299 433 q 329 513 324 476 q 333 573 335 544 q 300 601 331 601 q 262 583 275 601 q 240 503 249 565 l 229 406 m 192 -192 q 138 -171 160 -192 q 117 -119 117 -150 q 138 -69 117 -89 q 192 -49 160 -49 q 244 -69 224 -49 q 265 -119 265 -89 q 244 -171 265 -150 q 192 -192 224 -192 m 129 757 l 285 911 l 388 911 l 503 757 l 392 757 l 326 832 l 242 757 l 129 757 z "},"ề":{"ha":514,"x_min":3,"x_max":654,"o":"m 214 -17 q 92 1 142 -17 q 23 69 43 18 q 15 218 3 119 l 60 521 q 135 660 74 622 q 292 697 196 697 q 478 658 422 697 q 517 514 533 619 q 473 413 508 453 q 390 352 438 374 q 294 322 342 331 q 213 313 247 313 l 193 163 q 195 104 188 121 q 226 88 203 88 q 260 101 249 88 q 278 157 272 115 l 293 260 l 479 260 l 469 188 q 429 58 458 101 q 348 -1 400 14 q 214 -17 296 -17 m 229 406 q 253 409 239 406 q 283 423 268 413 q 311 455 299 433 q 329 513 324 476 q 333 573 335 544 q 300 601 331 601 q 262 583 275 601 q 240 503 249 565 l 229 406 m 129 757 l 285 911 l 388 911 l 503 757 l 392 757 l 326 832 l 242 757 l 129 757 m 536 849 l 415 992 l 593 992 l 654 849 l 536 849 z "},"ể":{"ha":514,"x_min":3,"x_max":704,"o":"m 214 -17 q 92 1 142 -17 q 23 69 43 18 q 15 218 3 119 l 60 521 q 135 660 74 622 q 292 697 196 697 q 478 658 422 697 q 517 514 533 619 q 473 413 508 453 q 390 352 438 374 q 294 322 342 331 q 213 313 247 313 l 193 163 q 195 104 188 121 q 226 88 203 88 q 260 101 249 88 q 278 157 272 115 l 293 260 l 479 260 l 469 188 q 429 58 458 101 q 348 -1 400 14 q 214 -17 296 -17 m 229 406 q 253 409 239 406 q 283 423 268 413 q 311 455 299 433 q 329 513 324 476 q 333 573 335 544 q 300 601 331 601 q 262 583 275 601 q 240 503 249 565 l 229 406 m 129 757 l 285 911 l 388 911 l 503 757 l 392 757 l 326 832 l 242 757 l 129 757 m 524 832 l 528 865 q 544 894 531 886 q 572 910 558 903 q 588 933 585 917 l 590 949 q 590 967 593 960 q 575 975 586 975 q 551 946 557 975 l 469 958 q 508 1021 478 1000 q 592 1042 539 1042 q 677 1016 650 1042 q 696 943 704 990 l 694 938 q 678 896 689 907 q 657 881 668 885 q 638 874 646 878 q 626 856 629 871 l 624 832 l 524 832 z "},"ễ":{"ha":514,"x_min":3,"x_max":533,"o":"m 214 -17 q 92 1 142 -17 q 23 69 43 18 q 15 218 3 119 l 60 521 q 135 660 74 622 q 292 697 196 697 q 478 658 422 697 q 517 514 533 619 q 473 413 508 453 q 390 352 438 374 q 294 322 342 331 q 213 313 247 313 l 193 163 q 195 104 188 121 q 226 88 203 88 q 260 101 249 88 q 278 157 272 115 l 293 260 l 479 260 l 469 188 q 429 58 458 101 q 348 -1 400 14 q 214 -17 296 -17 m 229 406 q 253 409 239 406 q 283 423 268 413 q 311 455 299 433 q 329 513 324 476 q 333 573 335 544 q 300 601 331 601 q 262 583 275 601 q 240 503 249 565 l 229 406 m 129 757 l 285 911 l 388 911 l 503 757 l 392 757 l 326 832 l 242 757 l 129 757 m 406 942 q 365 951 383 942 q 329 971 347 960 q 300 986 315 979 q 268 993 285 993 q 238 979 250 993 q 222 943 226 965 l 169 943 q 209 1041 178 1004 q 282 1078 240 1078 q 324 1070 306 1078 q 360 1053 343 1063 q 390 1038 375 1044 q 419 1031 404 1031 q 451 1043 440 1031 q 468 1074 463 1056 l 526 1074 q 478 976 517 1010 q 406 942 440 942 z "},"ë":{"ha":514,"x_min":3,"x_max":533,"o":"m 214 -17 q 92 1 142 -17 q 23 69 43 18 q 15 218 3 119 l 60 521 q 135 660 74 622 q 292 697 196 697 q 478 658 422 697 q 517 514 533 619 q 473 413 508 453 q 390 352 438 374 q 294 322 342 331 q 213 313 247 313 l 193 163 q 195 104 188 121 q 226 88 203 88 q 260 101 249 88 q 278 157 272 115 l 293 260 l 479 260 l 469 188 q 429 58 458 101 q 348 -1 400 14 q 214 -17 296 -17 m 229 406 q 253 409 239 406 q 283 423 268 413 q 311 455 299 433 q 329 513 324 476 q 333 573 335 544 q 300 601 331 601 q 262 583 275 601 q 240 503 249 565 l 229 406 m 236 764 q 183 785 204 764 q 161 836 161 806 q 183 885 161 865 q 236 906 204 906 q 289 885 268 906 q 310 836 310 865 q 289 785 310 806 q 236 764 268 764 m 417 764 q 363 785 385 764 q 342 836 342 806 q 363 885 342 865 q 417 906 385 906 q 469 885 449 906 q 490 836 490 865 q 469 785 490 806 q 417 764 449 764 z "},"ė":{"ha":514,"x_min":3,"x_max":533,"o":"m 214 -17 q 92 1 142 -17 q 23 69 43 18 q 15 218 3 119 l 60 521 q 135 660 74 622 q 292 697 196 697 q 478 658 422 697 q 517 514 533 619 q 473 413 508 453 q 390 352 438 374 q 294 322 342 331 q 213 313 247 313 l 193 163 q 195 104 188 121 q 226 88 203 88 q 260 101 249 88 q 278 157 272 115 l 293 260 l 479 260 l 469 188 q 429 58 458 101 q 348 -1 400 14 q 214 -17 296 -17 m 229 406 q 253 409 239 406 q 283 423 268 413 q 311 455 299 433 q 329 513 324 476 q 333 573 335 544 q 300 601 331 601 q 262 583 275 601 q 240 503 249 565 l 229 406 m 326 751 q 261 778 289 751 q 232 842 233 804 q 260 907 232 881 q 328 933 289 933 q 395 907 367 933 q 424 842 424 881 q 395 778 424 804 q 326 751 367 751 z "},"ẹ":{"ha":514,"x_min":3,"x_max":533,"o":"m 214 -17 q 92 1 142 -17 q 23 69 43 18 q 15 218 3 119 l 60 521 q 135 660 74 622 q 292 697 196 697 q 478 658 422 697 q 517 514 533 619 q 473 413 508 453 q 390 352 438 374 q 294 322 342 331 q 213 313 247 313 l 193 163 q 195 104 188 121 q 226 88 203 88 q 260 101 249 88 q 278 157 272 115 l 293 260 l 479 260 l 469 188 q 429 58 458 101 q 348 -1 400 14 q 214 -17 296 -17 m 229 406 q 253 409 239 406 q 283 423 268 413 q 311 455 299 433 q 329 513 324 476 q 333 573 335 544 q 300 601 331 601 q 262 583 275 601 q 240 503 249 565 l 229 406 m 192 -192 q 138 -171 160 -192 q 117 -119 117 -150 q 138 -69 117 -89 q 192 -49 160 -49 q 244 -69 224 -49 q 265 -119 265 -89 q 244 -171 265 -150 q 192 -192 224 -192 z "},"ф":{"ha":822,"x_min":-1,"x_max":811,"o":"m 247 -160 l 271 1 q 223 -6 249 -3 q 168 -10 197 -10 q 29 42 60 -10 q 13 189 -1 94 l 50 461 q 79 561 58 519 q 143 625 100 603 q 263 647 186 647 q 323 642 296 647 q 358 629 350 638 l 386 821 l 574 821 l 546 629 q 585 642 556 638 q 643 647 614 647 q 756 625 718 647 q 802 561 793 603 q 803 461 811 519 l 765 189 q 707 42 751 94 q 556 -10 663 -10 q 503 -6 528 -10 q 458 1 479 -3 l 435 -160 l 247 -160 m 229 89 q 258 94 244 89 q 280 112 271 100 q 292 139 289 124 l 336 469 q 339 516 342 499 q 326 541 336 533 q 294 549 315 549 q 265 541 275 549 q 251 514 256 533 q 240 460 246 494 l 197 150 q 197 115 194 129 q 207 95 199 101 q 229 89 215 89 m 526 89 q 551 95 542 89 q 567 116 561 101 q 575 150 572 131 l 618 460 q 623 512 622 493 q 617 540 624 531 q 590 550 610 550 q 558 542 572 550 q 536 518 544 535 q 524 472 528 501 l 479 150 q 481 117 476 131 q 498 96 486 103 q 526 89 510 89 z "},"è":{"ha":514,"x_min":3,"x_max":533,"o":"m 214 -17 q 92 1 142 -17 q 23 69 43 18 q 15 218 3 119 l 60 521 q 135 660 74 622 q 292 697 196 697 q 478 658 422 697 q 517 514 533 619 q 473 413 508 453 q 390 352 438 374 q 294 322 342 331 q 213 313 247 313 l 193 163 q 195 104 188 121 q 226 88 203 88 q 260 101 249 88 q 278 157 272 115 l 293 260 l 479 260 l 469 188 q 429 58 458 101 q 348 -1 400 14 q 214 -17 296 -17 m 229 406 q 253 409 239 406 q 283 423 268 413 q 311 455 299 433 q 329 513 324 476 q 333 573 335 544 q 300 601 331 601 q 262 583 275 601 q 240 503 249 565 l 229 406 m 271 763 l 150 906 l 328 906 l 389 763 l 271 763 z "},"ẻ":{"ha":514,"x_min":3,"x_max":533,"o":"m 214 -17 q 92 1 142 -17 q 23 69 43 18 q 15 218 3 119 l 60 521 q 135 660 74 622 q 292 697 196 697 q 478 658 422 697 q 517 514 533 619 q 473 413 508 453 q 390 352 438 374 q 294 322 342 331 q 213 313 247 313 l 193 163 q 195 104 188 121 q 226 88 203 88 q 260 101 249 88 q 278 157 272 115 l 293 260 l 479 260 l 469 188 q 429 58 458 101 q 348 -1 400 14 q 214 -17 296 -17 m 229 406 q 253 409 239 406 q 283 423 268 413 q 311 455 299 433 q 329 513 324 476 q 333 573 335 544 q 300 601 331 601 q 262 583 275 601 q 240 503 249 565 l 229 406 m 258 746 l 263 779 q 279 808 265 800 q 306 824 293 817 q 322 847 319 831 l 325 863 q 324 881 328 874 q 310 889 321 889 q 286 860 292 889 l 204 872 q 243 935 213 914 q 326 956 274 956 q 412 930 385 956 q 431 857 439 904 l 429 851 q 413 810 424 821 q 392 795 403 799 q 372 788 381 792 q 361 769 364 785 l 358 746 l 258 746 z "},"л":{"ha":633,"x_min":-32,"x_max":639,"o":"m -32 0 l -19 97 q 17 112 -1 97 q 51 151 36 126 q 72 203 65 175 l 183 688 l 639 688 l 542 0 l 350 0 l 428 554 l 354 554 l 258 154 q 245 103 253 131 q 222 53 238 76 q 175 15 206 29 q 92 0 144 0 l -32 0 z "},"…":{"ha":864,"x_min":26,"x_max":763,"o":"m 113 -14 q 50 13 74 -14 q 32 76 26 39 q 69 142 38 115 q 139 168 100 168 q 203 142 178 168 q 224 76 228 115 q 185 13 217 39 q 113 -14 153 -14 m 378 -14 q 316 13 340 -14 q 297 76 292 39 q 334 142 303 115 q 404 168 365 168 q 469 142 444 168 q 489 76 493 115 q 451 13 482 39 q 378 -14 419 -14 m 647 -14 q 584 13 608 -14 q 567 76 560 39 q 603 142 571 115 q 674 168 635 168 q 738 142 713 168 q 757 76 763 115 q 719 13 751 39 q 647 -14 688 -14 z "},"м":{"ha":715,"x_min":-8,"x_max":724,"o":"m -8 0 l 89 688 l 324 688 l 342 235 l 489 688 l 724 688 l 626 0 l 475 0 l 540 460 l 372 0 l 246 0 l 208 460 l 143 0 l -8 0 z "},"ē":{"ha":514,"x_min":3,"x_max":533,"o":"m 214 -17 q 92 1 142 -17 q 23 69 43 18 q 15 218 3 119 l 60 521 q 135 660 74 622 q 292 697 196 697 q 478 658 422 697 q 517 514 533 619 q 473 413 508 453 q 390 352 438 374 q 294 322 342 331 q 213 313 247 313 l 193 163 q 195 104 188 121 q 226 88 203 88 q 260 101 249 88 q 278 157 272 115 l 293 260 l 479 260 l 469 188 q 429 58 458 101 q 348 -1 400 14 q 214 -17 296 -17 m 229 406 q 253 409 239 406 q 283 423 268 413 q 311 455 299 433 q 329 513 324 476 q 333 573 335 544 q 300 601 331 601 q 262 583 275 601 q 240 503 249 565 l 229 406 m 160 775 l 172 869 l 471 869 l 458 775 l 160 775 z "},"—":{"ha":939,"x_min":31,"x_max":908,"o":"m 31 333 l 49 458 l 908 458 l 892 333 l 31 333 z "},"∅":{"ha":575,"x_min":-21,"x_max":628,"o":"m -21 72 l 571 788 l 603 788 l 10 72 l -21 72 m 186 -18 q 68 11 114 -17 q 10 100 22 39 q 28 267 -1 161 l 119 590 q 235 772 153 714 q 428 831 318 831 q 580 772 532 831 q 594 590 628 714 l 504 268 q 426 99 474 161 q 318 9 379 36 q 186 -18 257 -18 m 217 94 q 255 111 238 94 q 282 164 272 128 l 418 647 q 419 699 428 683 q 392 715 411 715 q 355 699 372 715 q 326 647 338 683 l 190 164 q 190 111 181 128 q 217 94 199 94 z "},"н":{"ha":540,"x_min":-8,"x_max":550,"o":"m -8 0 l 89 688 l 278 688 l 240 426 l 325 426 l 363 688 l 550 688 l 453 0 l 265 0 l 307 283 l 221 283 l 181 0 l -8 0 z "},"–":{"ha":631,"x_min":31,"x_max":600,"o":"m 31 333 l 49 458 l 600 458 l 582 333 l 31 333 z "},"ŋ":{"ha":538,"x_min":-4,"x_max":533,"o":"m 200 -160 q 163 -158 181 -160 q 128 -151 144 -156 l 139 -57 q 151 -57 140 -57 q 174 -57 163 -57 q 186 -57 186 -57 q 242 -42 222 -57 q 267 3 263 -26 l 336 507 q 338 531 338 519 q 335 549 338 542 q 324 561 332 557 q 304 565 317 565 q 286 563 294 565 q 272 556 278 560 q 261 546 265 551 l 185 0 l -4 0 l 92 688 l 251 688 l 256 600 q 314 671 275 644 q 397 697 353 697 q 474 685 444 697 q 516 650 503 674 q 531 593 529 626 q 526 515 533 560 l 464 74 q 412 -70 451 -18 q 317 -142 372 -122 q 200 -160 261 -161 z "},"ę":{"ha":514,"x_min":3,"x_max":533,"o":"m 214 -17 q 92 1 142 -17 q 23 69 43 18 q 15 218 3 119 l 60 521 q 135 660 74 622 q 292 697 196 697 q 478 658 422 697 q 517 514 533 619 q 473 413 508 453 q 390 352 438 374 q 294 322 342 331 q 213 313 247 313 l 193 163 q 195 104 188 121 q 226 88 203 88 q 260 101 249 88 q 278 157 272 115 l 293 260 l 479 260 l 469 188 q 429 58 458 101 q 348 -1 400 14 q 214 -17 296 -17 m 229 406 q 253 409 239 406 q 283 423 268 413 q 311 455 299 433 q 329 513 324 476 q 333 573 335 544 q 300 601 331 601 q 262 583 275 601 q 240 503 249 565 l 229 406 m 201 -206 q 117 -177 146 -206 q 93 -114 88 -149 q 136 -40 99 -75 q 228 3 174 -4 l 300 0 q 240 -37 261 -11 q 217 -87 219 -62 q 229 -126 214 -112 q 261 -140 244 -140 q 279 -138 272 -140 q 289 -135 286 -136 l 304 -182 q 272 -196 296 -186 q 201 -206 249 -206 z "},"=":{"ha":629,"x_min":42,"x_max":589,"o":"m 81 454 l 97 581 l 589 581 l 571 454 l 81 454 m 42 176 l 58 303 l 549 303 l 532 176 l 42 176 z "},"р":{"ha":538,"x_min":-26,"x_max":539,"o":"m -26 -161 l 92 688 l 279 688 l 272 636 q 315 678 289 658 q 396 699 342 699 q 471 685 438 699 q 522 638 504 672 q 531 539 539 604 l 483 208 q 445 76 471 124 q 383 10 419 29 q 299 -8 346 -8 q 226 9 250 -8 q 192 50 203 26 l 163 -161 l -26 -161 m 239 97 q 264 104 254 97 q 279 125 274 111 q 288 157 285 139 l 339 522 q 340 548 340 538 q 338 567 340 558 q 327 578 335 575 q 307 582 319 582 q 287 578 294 582 q 274 570 279 575 q 265 559 268 565 q 261 547 263 553 l 206 156 q 206 123 204 136 q 215 103 207 110 q 239 97 222 97 z "},"э":{"ha":540,"x_min":11,"x_max":532,"o":"m 221 -15 q 122 -6 164 -15 q 54 28 79 3 q 20 100 29 53 q 24 224 11 147 l 25 243 l 214 243 l 200 143 q 200 110 199 124 q 210 89 201 96 q 235 82 218 82 q 262 89 253 82 q 276 110 271 96 q 285 143 282 124 l 306 301 l 111 301 l 128 421 l 324 421 l 340 539 q 342 565 342 554 q 338 585 342 576 q 327 597 335 593 q 307 600 319 600 q 281 594 292 600 q 265 574 269 588 q 257 539 260 560 l 249 481 l 60 481 l 64 517 q 104 623 74 583 q 189 681 135 663 q 321 699 243 699 q 422 688 381 699 q 488 656 463 678 q 523 600 514 635 q 526 517 532 565 l 485 222 q 438 71 471 122 q 351 2 404 19 q 221 -15 297 -15 z "},"с":{"ha":519,"x_min":6,"x_max":532,"o":"m 214 -17 q 117 -8 158 -17 q 50 24 76 0 q 15 96 24 49 q 17 221 6 143 l 60 521 q 138 660 74 622 q 314 699 201 699 q 478 660 425 699 q 517 521 532 622 l 503 415 l 314 415 l 332 544 q 328 588 336 575 q 300 601 321 601 q 267 588 279 601 q 251 544 256 575 l 194 140 q 198 95 190 108 q 226 82 206 82 q 260 95 249 82 q 275 140 271 108 l 296 288 l 485 288 l 475 222 q 427 66 461 117 q 339 -1 393 15 q 214 -17 285 -17 z "},"ð":{"ha":528,"x_min":6,"x_max":539,"o":"m 213 -11 q 120 -3 161 -11 q 52 27 79 4 q 15 97 25 50 q 17 224 6 143 l 54 490 q 96 599 64 561 q 177 653 128 638 q 288 668 226 668 q 319 667 304 668 q 346 660 335 665 q 346 728 350 697 q 323 778 342 760 q 265 797 304 797 q 207 794 235 797 q 142 785 179 790 l 158 903 q 222 915 185 910 q 317 919 260 919 q 475 881 425 919 q 531 753 525 843 q 517 508 538 663 l 476 233 q 444 110 465 158 q 390 35 422 61 q 313 -1 357 10 q 213 -11 268 -11 m 225 88 q 251 95 242 88 q 267 118 261 103 q 276 153 274 133 l 328 522 q 328 547 331 536 q 317 565 325 558 q 293 571 308 571 q 269 565 279 571 q 255 546 260 558 q 247 513 250 533 l 194 142 q 194 114 192 125 q 201 97 196 103 q 212 90 206 92 q 225 88 218 88 m 236 689 l 201 740 l 501 960 l 539 910 l 236 689 z "},"ẽ":{"ha":514,"x_min":3,"x_max":533,"o":"m 214 -17 q 92 1 142 -17 q 23 69 43 18 q 15 218 3 119 l 60 521 q 135 660 74 622 q 292 697 196 697 q 478 658 422 697 q 517 514 533 619 q 473 413 508 453 q 390 352 438 374 q 294 322 342 331 q 213 313 247 313 l 193 163 q 195 104 188 121 q 226 88 203 88 q 260 101 249 88 q 278 157 272 115 l 293 260 l 479 260 l 469 188 q 429 58 458 101 q 348 -1 400 14 q 214 -17 296 -17 m 229 406 q 253 409 239 406 q 283 423 268 413 q 311 455 299 433 q 329 513 324 476 q 333 573 335 544 q 300 601 331 601 q 262 583 275 601 q 240 503 249 565 l 229 406 m 383 763 q 343 772 361 763 q 307 792 325 781 q 278 807 293 800 q 246 814 263 814 q 216 800 228 814 q 200 764 204 786 l 147 764 q 187 862 156 825 q 260 899 218 899 q 302 891 283 899 q 338 874 321 883 q 367 858 353 865 q 397 851 382 851 q 429 864 418 851 q 446 894 440 876 l 504 894 q 456 797 494 831 q 383 763 418 763 z "},"€":{"ha":660,"x_min":22,"x_max":657,"o":"m 318 -17 q 196 1 247 -17 q 123 71 144 18 q 115 229 101 124 l 129 317 l 22 317 l 63 383 l 138 383 l 144 432 l 38 432 l 78 500 l 154 500 l 175 644 q 220 756 185 715 q 311 814 256 797 q 438 831 367 831 q 559 813 508 831 q 633 756 610 796 q 647 644 657 715 l 640 594 l 449 594 l 456 656 q 456 693 460 681 q 444 710 453 706 q 421 715 435 715 q 397 710 408 715 q 379 693 386 706 q 368 656 372 681 l 347 500 l 539 500 l 497 432 l 336 432 l 331 383 l 468 383 l 428 317 l 321 317 l 297 156 q 298 118 294 132 q 311 100 301 104 q 333 96 321 96 q 358 100 347 96 q 376 118 368 104 q 386 156 383 132 l 400 251 l 593 251 l 589 231 q 537 71 574 124 q 444 1 500 18 q 318 -17 389 -17 z "},"!":{"ha":329,"x_min":13,"x_max":328,"o":"m 78 263 l 81 519 l 122 875 l 328 875 l 269 524 l 199 263 l 78 263 m 106 -11 q 38 17 63 -11 q 17 83 13 44 q 57 150 24 122 q 133 178 90 178 q 203 150 176 178 q 222 83 229 122 q 183 17 218 44 q 106 -11 149 -11 z "},"¡":{"ha":329,"x_min":51,"x_max":281,"o":"m 107 415 l 228 415 l 256 154 l 257 -197 l 51 -197 l 68 158 l 107 415 m 178 688 q 251 660 221 688 q 279 593 281 633 q 251 528 281 556 q 178 500 221 500 q 105 528 135 500 q 75 593 75 556 q 105 660 75 633 q 178 688 135 688 z "},"f":{"ha":376,"x_min":11,"x_max":442,"o":"m 11 0 l 88 554 l 44 554 l 60 661 l 104 661 l 113 718 q 151 824 122 790 q 219 867 179 858 q 296 876 258 876 q 356 874 325 876 q 411 870 388 872 q 442 868 435 868 l 431 782 q 406 784 431 782 q 353 786 382 786 q 316 764 328 786 q 300 719 304 742 l 293 661 l 413 661 l 397 554 l 276 554 l 200 0 l 11 0 z "},"ﬁ":{"ha":643,"x_min":11,"x_max":675,"o":"m 11 0 l 88 554 l 44 554 l 60 661 l 104 661 l 113 718 q 151 824 122 790 q 219 867 179 858 q 296 876 258 876 q 356 874 325 876 q 411 870 388 872 q 442 868 435 868 l 431 782 q 406 784 431 782 q 353 786 382 786 q 316 764 328 786 q 300 719 304 742 l 293 661 l 413 661 l 397 554 l 276 554 l 200 0 l 11 0 m 363 0 l 460 688 l 649 688 l 551 0 l 363 0 m 576 751 q 511 778 539 751 q 482 842 483 804 q 510 907 482 881 q 578 933 539 933 q 645 907 617 933 q 674 842 674 881 q 645 778 674 804 q 576 751 617 751 z "},"ﬂ":{"ha":651,"x_min":11,"x_max":682,"o":"m 11 0 l 88 554 l 44 554 l 60 661 l 104 661 l 113 718 q 151 824 122 790 q 219 867 179 858 q 296 876 258 876 q 356 874 325 876 q 411 870 388 872 q 442 868 435 868 l 431 782 q 406 784 431 782 q 353 786 382 786 q 316 764 328 786 q 300 719 304 742 l 293 661 l 413 661 l 397 554 l 276 554 l 200 0 l 11 0 m 372 0 l 494 876 l 683 876 l 561 0 l 372 0 z "},"ƒ":{"ha":526,"x_min":-187,"x_max":585,"o":"m -65 -199 q -110 -197 -83 -199 q -159 -194 -136 -196 q -187 -192 -182 -193 l -161 -82 l -92 -90 q -30 -83 -53 -92 q 9 -42 -7 -74 q 42 53 25 -11 l 163 526 l 76 526 l 101 628 l 188 628 l 214 713 q 291 838 242 803 q 393 874 340 874 q 435 873 407 874 q 492 872 463 872 q 549 869 522 871 q 585 867 575 868 l 558 757 q 519 765 549 760 q 457 769 490 769 q 410 742 422 769 q 388 682 397 715 l 374 628 l 511 628 l 486 526 l 347 526 l 213 -4 q 117 -151 186 -104 q -65 -199 47 -199 z "},"⁴":{"ha":372,"x_min":24,"x_max":375,"o":"m 179 328 l 193 424 l 24 424 l 38 519 l 246 821 l 365 821 l 321 503 l 375 503 l 364 424 l 310 424 l 296 328 l 179 328 m 129 503 l 206 503 l 222 635 l 129 503 z "},"⁄":{"ha":421,"x_min":-181,"x_max":494,"o":"m -181 0 l 381 819 l 494 819 l -69 0 l -181 0 z "},"₣":{"ha":511,"x_min":-15,"x_max":532,"o":"m 28 0 l 49 144 l -15 144 l -4 229 l 60 229 l 144 821 l 532 821 l 513 686 l 325 686 l 299 497 l 464 497 l 442 346 l 276 346 l 260 229 l 357 229 l 346 144 l 250 144 l 228 0 l 28 0 z "},"g":{"ha":533,"x_min":11,"x_max":540,"o":"m 199 -167 q 147 -165 176 -167 q 88 -160 117 -162 q 37 -156 58 -158 q 11 -151 15 -153 l 25 -53 q 82 -59 44 -56 q 144 -62 119 -62 q 179 -60 161 -62 q 214 -48 197 -57 q 243 -22 231 -39 q 260 24 256 -6 l 272 124 q 251 90 265 110 q 211 56 238 71 q 136 40 185 40 q 81 47 107 40 q 39 75 56 54 q 17 140 22 96 q 22 260 11 183 l 61 540 q 101 642 71 610 q 168 685 132 675 q 231 694 204 694 q 283 692 260 694 q 323 677 307 689 q 344 638 339 665 l 372 688 l 540 688 l 461 121 q 442 23 456 74 q 400 -71 428 -28 q 324 -140 372 -114 q 199 -167 275 -167 m 236 151 q 261 159 251 151 q 277 182 271 167 q 286 217 283 197 l 335 565 q 328 573 332 569 q 317 580 324 576 q 296 583 310 583 q 265 571 278 583 q 249 525 251 558 l 204 208 q 204 179 201 190 q 211 163 207 168 q 222 154 215 157 q 236 151 229 151 z "},"ğ":{"ha":533,"x_min":11,"x_max":540,"o":"m 199 -167 q 147 -165 176 -167 q 88 -160 117 -162 q 37 -156 58 -158 q 11 -151 15 -153 l 25 -53 q 82 -59 44 -56 q 144 -62 119 -62 q 179 -60 161 -62 q 214 -48 197 -57 q 243 -22 231 -39 q 260 24 256 -6 l 272 124 q 251 90 265 110 q 211 56 238 71 q 136 40 185 40 q 81 47 107 40 q 39 75 56 54 q 17 140 22 96 q 22 260 11 183 l 61 540 q 101 642 71 610 q 168 685 132 675 q 231 694 204 694 q 283 692 260 694 q 323 677 307 689 q 344 638 339 665 l 372 688 l 540 688 l 461 121 q 442 23 456 74 q 400 -71 428 -28 q 324 -140 372 -114 q 199 -167 275 -167 m 236 151 q 261 159 251 151 q 277 182 271 167 q 286 217 283 197 l 335 565 q 328 573 332 569 q 317 580 324 576 q 296 583 310 583 q 265 571 278 583 q 249 525 251 558 l 204 208 q 204 179 201 190 q 211 163 207 168 q 222 154 215 157 q 236 151 229 151 m 328 764 q 244 778 275 764 q 201 816 214 793 q 185 863 188 839 q 185 908 182 888 l 286 908 q 300 866 282 881 q 342 851 318 851 q 388 865 368 851 q 415 908 408 879 l 517 908 q 490 836 511 869 q 428 783 468 803 q 328 764 388 764 z "},"ģ":{"ha":533,"x_min":11,"x_max":540,"o":"m 449 969 q 407 912 422 938 q 389 869 392 886 q 397 852 388 860 q 415 833 407 844 q 421 803 424 822 q 394 760 418 779 q 335 742 369 742 q 279 761 300 742 q 263 811 258 781 q 283 860 265 832 q 326 919 301 889 q 372 969 351 949 l 449 969 m 199 -167 q 147 -165 176 -167 q 88 -160 117 -162 q 37 -156 58 -158 q 11 -151 15 -153 l 25 -53 q 82 -59 44 -56 q 144 -62 119 -62 q 179 -60 161 -62 q 214 -48 197 -57 q 243 -22 231 -39 q 260 24 256 -6 l 272 124 q 251 90 265 110 q 211 56 238 71 q 136 40 185 40 q 81 47 107 40 q 39 75 56 54 q 17 140 22 96 q 22 260 11 183 l 61 540 q 101 642 71 610 q 168 685 132 675 q 231 694 204 694 q 283 692 260 694 q 323 677 307 689 q 344 638 339 665 l 372 688 l 540 688 l 461 121 q 442 23 456 74 q 400 -71 428 -28 q 324 -140 372 -114 q 199 -167 275 -167 m 236 151 q 261 159 251 151 q 277 182 271 167 q 286 217 283 197 l 335 565 q 328 573 332 569 q 317 580 324 576 q 296 583 310 583 q 265 571 278 583 q 249 525 251 558 l 204 208 q 204 179 201 190 q 211 163 207 168 q 222 154 215 157 q 236 151 229 151 z "},"ġ":{"ha":533,"x_min":11,"x_max":540,"o":"m 199 -167 q 147 -165 176 -167 q 88 -160 117 -162 q 37 -156 58 -158 q 11 -151 15 -153 l 25 -53 q 82 -59 44 -56 q 144 -62 119 -62 q 179 -60 161 -62 q 214 -48 197 -57 q 243 -22 231 -39 q 260 24 256 -6 l 272 124 q 251 90 265 110 q 211 56 238 71 q 136 40 185 40 q 81 47 107 40 q 39 75 56 54 q 17 140 22 96 q 22 260 11 183 l 61 540 q 101 642 71 610 q 168 685 132 675 q 231 694 204 694 q 283 692 260 694 q 323 677 307 689 q 344 638 339 665 l 372 688 l 540 688 l 461 121 q 442 23 456 74 q 400 -71 428 -28 q 324 -140 372 -114 q 199 -167 275 -167 m 236 151 q 261 159 251 151 q 277 182 271 167 q 286 217 283 197 l 335 565 q 328 573 332 569 q 317 580 324 576 q 296 583 310 583 q 265 571 278 583 q 249 525 251 558 l 204 208 q 204 179 201 190 q 211 163 207 168 q 222 154 215 157 q 236 151 229 151 m 342 751 q 276 778 304 751 q 247 842 249 804 q 276 907 247 881 q 343 933 304 933 q 410 907 382 933 q 439 842 439 881 q 410 778 439 804 q 342 751 382 751 z "},"г":{"ha":414,"x_min":-6,"x_max":450,"o":"m -6 0 l 92 688 l 450 688 l 431 553 l 272 553 l 196 0 l -6 0 z "},"ß":{"ha":661,"x_min":-137,"x_max":671,"o":"m -56 -204 q -99 -202 -71 -204 q -137 -199 -126 -200 q -135 -180 -137 -196 q -130 -144 -133 -164 q -125 -110 -126 -125 q -124 -92 -124 -94 l -104 -94 q -87 -97 -97 -96 q -62 -97 -76 -97 q 10 -68 -11 -97 q 36 1 31 -39 l 114 558 l 57 558 l 75 688 l 133 688 l 138 725 q 169 811 146 778 q 251 860 193 844 q 418 876 310 876 q 608 847 544 876 q 660 740 671 817 l 642 608 q 593 514 633 550 q 511 475 553 478 l 510 469 q 571 451 542 467 q 617 408 600 436 q 626 339 633 381 l 603 168 q 557 60 593 96 q 464 12 521 24 q 332 0 407 0 l 264 0 l 278 96 l 317 96 q 362 107 346 96 q 387 150 378 118 q 404 246 396 182 l 418 332 q 418 376 421 358 q 401 405 415 394 q 353 415 386 415 l 322 415 l 338 513 l 393 513 q 436 538 424 513 q 454 607 449 563 l 465 681 q 465 762 474 738 q 407 786 456 786 q 359 775 376 786 q 334 744 342 764 q 322 699 326 725 l 231 33 q 190 -90 219 -43 q 119 -162 160 -137 q 32 -195 78 -186 q -56 -204 -14 -204 z "},"ѓ":{"ha":414,"x_min":-6,"x_max":457,"o":"m -6 0 l 92 688 l 450 688 l 431 553 l 272 553 l 196 0 l -6 0 m 188 763 l 278 906 l 457 906 l 306 763 l 188 763 z "},"`":{"ha":258,"x_min":79,"x_max":318,"o":"m 200 763 l 79 906 l 257 906 l 318 763 l 200 763 z "},"̀":{"ha":0,"x_min":79,"x_max":318,"o":"m 200 763 l 79 906 l 257 906 l 318 763 l 200 763 z "},">":{"ha":436,"x_min":8,"x_max":396,"o":"m 8 174 l 32 343 l 233 460 l 65 576 l 88 740 l 396 508 l 381 407 l 8 174 z "},"≥":{"ha":492,"x_min":32,"x_max":456,"o":"m 57 214 l 68 258 l 413 453 l 178 650 l 189 693 l 456 472 l 444 435 l 57 214 m 32 -1 l 40 28 l 356 28 l 349 -1 l 32 -1 z "},"«":{"ha":758,"x_min":46,"x_max":750,"o":"m 506 140 l 357 407 l 582 678 l 750 678 l 525 407 l 672 140 l 506 140 m 194 140 l 46 407 l 272 678 l 439 678 l 214 407 l 361 140 l 194 140 z "},"»":{"ha":758,"x_min":10,"x_max":713,"o":"m 321 140 l 543 407 l 394 678 l 563 678 l 713 407 l 488 140 l 321 140 m 10 140 l 233 407 l 85 678 l 251 678 l 401 407 l 176 140 l 10 140 z "},"‹":{"ha":446,"x_min":46,"x_max":439,"o":"m 194 140 l 46 407 l 272 678 l 439 678 l 214 407 l 361 140 l 194 140 z "},"›":{"ha":446,"x_min":10,"x_max":400,"o":"m 10 140 l 233 407 l 85 678 l 251 678 l 400 407 l 176 140 l 10 140 z "},"h":{"ha":538,"x_min":-4,"x_max":533,"o":"m -4 0 l 118 875 l 294 875 l 256 604 q 312 673 272 649 q 397 697 351 697 q 474 685 444 697 q 516 649 503 672 q 531 592 529 625 q 526 515 533 558 l 454 0 l 265 0 l 335 489 q 336 511 336 501 q 332 529 336 521 q 321 542 328 538 q 300 547 314 547 q 278 544 288 547 q 263 535 268 540 q 258 525 258 531 l 185 0 l -4 0 z "},"х":{"ha":494,"x_min":-53,"x_max":546,"o":"m -53 0 q -15 110 -40 53 q 42 222 11 168 q 102 314 74 275 q 149 367 131 353 q 110 420 128 383 q 81 505 93 457 q 65 601 69 553 q 64 688 60 650 l 214 688 q 219 615 213 656 q 241 540 226 574 q 274 493 256 506 q 300 515 285 497 q 330 558 315 532 q 358 618 344 585 q 379 688 371 651 l 546 688 q 509 592 535 643 q 453 492 483 540 q 394 410 422 444 q 350 367 365 376 q 385 321 367 357 q 418 232 403 285 q 443 119 433 179 q 451 0 453 58 l 261 0 q 260 52 261 24 q 255 109 258 81 q 244 158 251 138 q 221 186 236 178 q 185 152 204 179 q 148 85 165 125 q 117 0 131 44 l -53 0 z "},"ъ":{"ha":574,"x_min":36,"x_max":551,"o":"m 36 0 l 118 576 l 44 576 l 61 688 l 322 688 l 292 472 l 408 472 q 481 460 447 472 q 533 414 515 447 q 542 313 551 381 l 529 219 q 499 101 518 144 q 451 35 479 57 q 389 7 424 14 q 313 0 354 0 l 36 0 m 239 97 l 282 97 q 310 104 300 97 q 324 125 319 111 q 332 160 329 139 l 349 285 q 353 326 354 310 q 345 349 353 342 q 318 357 338 357 l 276 357 l 239 97 z "},"ħ":{"ha":539,"x_min":-4,"x_max":533,"o":"m 13 729 l 32 821 l 346 821 l 326 729 l 13 729 m -4 0 l 118 875 l 294 875 l 256 604 q 312 673 272 649 q 397 697 351 697 q 474 685 444 697 q 516 649 503 672 q 531 592 529 625 q 526 515 533 558 l 454 0 l 265 0 l 335 489 q 336 511 336 501 q 332 529 336 521 q 321 542 328 538 q 300 547 314 547 q 278 544 288 547 q 263 535 268 540 q 258 525 258 531 l 185 0 l -4 0 z "},"̉":{"ha":0,"x_min":69,"x_max":304,"o":"m 124 746 l 128 779 q 144 808 131 800 q 172 824 158 817 q 188 847 185 831 l 190 863 q 190 881 193 874 q 175 889 186 889 q 151 860 157 889 l 69 872 q 108 935 78 914 q 192 956 139 956 q 277 930 250 956 q 296 857 304 904 l 294 851 q 278 810 289 821 q 257 795 268 799 q 238 788 246 792 q 226 769 229 785 l 224 746 l 124 746 z "},"̛":{"ha":0,"x_min":39,"x_max":269,"o":"m 39 604 l 49 686 l 75 686 q 144 750 135 686 l 147 778 l 269 778 l 267 751 q 199 638 256 671 q 39 604 142 604 z "},"˝":{"ha":325,"x_min":60,"x_max":404,"o":"m 60 763 l 93 906 l 236 906 l 132 763 l 60 763 m 204 763 l 261 906 l 404 906 l 289 763 l 204 763 z "},"̋":{"ha":0,"x_min":60,"x_max":404,"o":"m 60 763 l 93 906 l 236 906 l 132 763 l 60 763 m 204 763 l 261 906 l 404 906 l 289 763 l 204 763 z "},"-":{"ha":383,"x_min":38,"x_max":346,"o":"m 38 333 l 54 458 l 346 458 l 329 333 l 38 333 z "},"i":{"ha":275,"x_min":-6,"x_max":306,"o":"m -6 0 l 92 688 l 281 688 l 183 0 l -6 0 m 208 751 q 143 778 171 751 q 114 842 115 804 q 142 907 114 881 q 210 933 171 933 q 277 907 249 933 q 306 842 306 881 q 277 778 306 804 q 208 751 249 751 z "},"і":{"ha":275,"x_min":-6,"x_max":306,"o":"m -6 0 l 92 688 l 281 688 l 183 0 l -6 0 m 208 751 q 143 778 171 751 q 114 842 115 804 q 142 907 114 881 q 210 933 171 933 q 277 907 249 933 q 306 842 306 881 q 277 778 306 804 q 208 751 249 751 z "},"я":{"ha":578,"x_min":-32,"x_max":586,"o":"m -32 0 l 78 221 q 127 288 104 271 q 179 308 150 306 q 94 349 119 315 q 81 460 69 382 l 88 508 q 148 642 100 597 q 283 688 196 688 l 586 688 l 489 0 l 289 0 l 329 289 l 299 258 q 260 181 279 221 q 224 94 240 140 l 182 0 l -32 0 m 306 361 l 340 361 l 371 585 l 326 585 q 293 556 306 585 q 276 493 281 526 l 272 471 q 275 383 265 406 q 306 361 285 361 z "},"í":{"ha":275,"x_min":-6,"x_max":381,"o":"m -6 0 l 92 688 l 281 688 l 183 0 l -6 0 m 111 763 l 201 906 l 381 906 l 229 763 l 111 763 z "},"ǐ":{"ha":275,"x_min":-6,"x_max":406,"o":"m -6 0 l 92 688 l 281 688 l 183 0 l -6 0 m 146 757 l 32 911 l 146 911 l 208 840 l 296 911 l 406 911 l 249 757 l 146 757 z "},"î":{"ha":275,"x_min":-6,"x_max":383,"o":"m -6 0 l 92 688 l 281 688 l 183 0 l -6 0 m 10 757 l 165 911 l 268 911 l 383 757 l 272 757 l 207 832 l 122 757 l 10 757 z "},"ï":{"ha":275,"x_min":-6,"x_max":372,"o":"m -6 0 l 92 688 l 281 688 l 183 0 l -6 0 m 117 764 q 63 785 85 764 q 42 836 42 806 q 63 885 42 865 q 117 906 85 906 q 169 885 149 906 q 190 836 190 865 q 169 785 190 806 q 117 764 149 764 m 297 764 q 244 785 265 764 q 222 836 222 806 q 244 885 222 865 q 297 906 265 906 q 350 885 329 906 q 371 836 371 865 q 350 785 371 806 q 297 764 329 764 z "},"ị":{"ha":275,"x_min":-6,"x_max":306,"o":"m -6 0 l 92 688 l 281 688 l 183 0 l -6 0 m 208 751 q 143 778 171 751 q 114 842 115 804 q 142 907 114 881 q 210 933 171 933 q 277 907 249 933 q 306 842 306 881 q 277 778 306 804 q 208 751 249 751 m 72 -192 q 19 -171 40 -192 q -3 -119 -3 -150 q 19 -69 -3 -89 q 72 -49 40 -49 q 125 -69 104 -49 q 146 -119 146 -89 q 125 -171 146 -150 q 72 -192 104 -192 z "},"ı":{"ha":275,"x_min":-6,"x_max":281,"o":"m -6 0 l 92 688 l 281 688 l 183 0 l -6 0 z "},"е":{"ha":514,"x_min":3,"x_max":533,"o":"m 214 -17 q 92 1 142 -17 q 23 69 43 18 q 15 218 3 119 l 60 521 q 135 660 74 622 q 292 697 196 697 q 478 658 422 697 q 517 514 533 619 q 473 413 508 453 q 390 352 438 374 q 294 322 342 331 q 213 313 247 313 l 193 163 q 195 104 188 121 q 226 88 203 88 q 260 101 249 88 q 278 157 272 115 l 293 260 l 479 260 l 469 188 q 429 58 458 101 q 348 -1 400 14 q 214 -17 296 -17 m 229 406 q 253 409 239 406 q 283 423 268 413 q 311 455 299 433 q 329 513 324 476 q 333 573 335 544 q 300 601 331 601 q 262 583 275 601 q 240 503 249 565 l 229 406 z "},"ѐ":{"ha":514,"x_min":3,"x_max":533,"o":"m 214 -17 q 92 1 142 -17 q 23 69 43 18 q 15 218 3 119 l 60 521 q 135 660 74 622 q 292 697 196 697 q 478 658 422 697 q 517 514 533 619 q 473 413 508 453 q 390 352 438 374 q 294 322 342 331 q 213 313 247 313 l 193 163 q 195 104 188 121 q 226 88 203 88 q 260 101 249 88 q 278 157 272 115 l 293 260 l 479 260 l 469 188 q 429 58 458 101 q 348 -1 400 14 q 214 -17 296 -17 m 229 406 q 253 409 239 406 q 283 423 268 413 q 311 455 299 433 q 329 513 324 476 q 333 573 335 544 q 300 601 331 601 q 262 583 275 601 q 240 503 249 565 l 229 406 m 271 763 l 150 906 l 328 906 l 389 763 l 271 763 z "},"ì":{"ha":275,"x_min":-6,"x_max":281,"o":"m -6 0 l 92 688 l 281 688 l 183 0 l -6 0 m 153 763 l 32 906 l 210 906 l 271 763 l 153 763 z "},"ỉ":{"ha":275,"x_min":-6,"x_max":321,"o":"m -6 0 l 92 688 l 281 688 l 183 0 l -6 0 m 139 746 l 143 779 q 160 808 146 800 q 187 824 174 817 q 203 847 200 831 l 206 863 q 205 881 208 874 q 190 889 201 889 q 167 860 172 889 l 85 872 q 124 935 93 914 q 207 956 154 956 q 292 930 265 956 q 311 857 319 904 l 310 851 q 294 810 304 821 q 272 795 283 799 q 253 788 261 792 q 242 769 244 785 l 239 746 l 139 746 z "},"и":{"ha":543,"x_min":-6,"x_max":549,"o":"m -6 0 l 92 688 l 257 688 l 207 338 l 385 688 l 549 688 l 451 0 l 286 0 l 342 396 q 244 197 293 296 q 146 0 196 99 l -6 0 z "},"ѝ":{"ha":543,"x_min":-6,"x_max":549,"o":"m -6 0 l 92 688 l 257 688 l 207 338 l 385 688 l 549 688 l 451 0 l 286 0 l 342 396 q 244 197 293 296 q 146 0 196 99 l -6 0 m 286 763 l 165 906 l 343 906 l 404 763 l 286 763 z "},"й":{"ha":543,"x_min":-6,"x_max":549,"o":"m -6 0 l 92 688 l 257 688 l 207 338 l 385 688 l 549 688 l 451 0 l 286 0 l 342 396 q 244 197 293 296 q 146 0 196 99 l -6 0 m 329 764 q 246 778 276 764 q 202 816 215 793 q 186 863 189 839 q 186 908 183 888 l 288 908 q 301 866 283 881 q 343 851 319 851 q 390 865 369 851 q 417 908 410 879 l 518 908 q 491 836 513 869 q 429 783 469 803 q 329 764 389 764 z "},"ī":{"ha":275,"x_min":-6,"x_max":351,"o":"m -6 0 l 92 688 l 281 688 l 183 0 l -6 0 m 40 775 l 53 869 l 351 869 l 339 775 l 40 775 z "},"∞":{"ha":961,"x_min":32,"x_max":931,"o":"m 197 132 q 67 185 103 132 q 46 343 32 238 q 110 500 60 446 q 257 554 161 554 q 356 531 314 554 q 432 476 399 508 q 489 414 465 444 q 564 476 522 444 q 656 531 606 508 q 764 554 707 554 q 895 500 860 554 q 915 343 931 446 q 851 185 901 239 q 704 132 800 132 q 605 155 649 132 q 528 211 561 178 q 471 275 496 244 q 396 208 439 242 q 303 153 353 175 q 197 132 253 132 m 218 243 q 308 272 269 243 q 400 343 347 301 q 351 393 375 372 q 301 425 326 414 q 246 436 276 436 q 178 412 203 436 q 147 340 153 388 q 158 269 140 294 q 218 243 175 243 m 715 249 q 783 273 758 249 q 814 346 808 297 q 803 417 821 392 q 743 443 786 443 q 697 435 718 443 q 656 415 676 428 q 613 383 636 401 q 561 343 590 365 q 615 290 590 310 q 664 259 640 269 q 715 249 688 249 z "},"∫":{"ha":560,"x_min":-240,"x_max":631,"o":"m -140 -417 q -190 -412 -165 -415 q -240 -400 -215 -408 l -203 -281 l -110 -293 q -67 -269 -82 -290 q -44 -226 -51 -249 l 253 718 q 318 823 276 789 q 414 866 360 857 q 528 875 468 875 q 585 871 558 875 q 631 860 611 867 l 593 739 l 499 751 q 455 729 469 750 q 432 685 440 708 l 135 -258 q 69 -365 111 -331 q -26 -408 28 -399 q -140 -417 -81 -417 z "},"ё":{"ha":514,"x_min":3,"x_max":533,"o":"m 214 -17 q 92 1 142 -17 q 23 69 43 18 q 15 218 3 119 l 60 521 q 135 660 74 622 q 292 697 196 697 q 478 658 422 697 q 517 514 533 619 q 473 413 508 453 q 390 352 438 374 q 294 322 342 331 q 213 313 247 313 l 193 163 q 195 104 188 121 q 226 88 203 88 q 260 101 249 88 q 278 157 272 115 l 293 260 l 479 260 l 469 188 q 429 58 458 101 q 348 -1 400 14 q 214 -17 296 -17 m 229 406 q 253 409 239 406 q 283 423 268 413 q 311 455 299 433 q 329 513 324 476 q 333 573 335 544 q 300 601 331 601 q 262 583 275 601 q 240 503 249 565 l 229 406 m 236 764 q 183 785 204 764 q 161 836 161 806 q 183 885 161 865 q 236 906 204 906 q 289 885 268 906 q 310 836 310 865 q 289 785 310 806 q 236 764 268 764 m 417 764 q 363 785 385 764 q 342 836 342 806 q 363 885 342 865 q 417 906 385 906 q 469 885 449 906 q 490 836 490 865 q 469 785 490 806 q 417 764 449 764 z "},"į":{"ha":275,"x_min":-31,"x_max":306,"o":"m -6 0 l 92 688 l 281 688 l 183 0 l -6 0 m 208 751 q 143 778 171 751 q 114 842 115 804 q 142 907 114 881 q 210 933 171 933 q 277 907 249 933 q 306 842 306 881 q 277 778 306 804 q 208 751 249 751 m 83 -206 q -1 -177 28 -206 q -25 -114 -31 -149 q 18 -40 -19 -75 q 110 3 56 -4 l 182 0 q 122 -37 143 -11 q 99 -87 101 -62 q 111 -126 96 -112 q 143 -140 126 -140 q 161 -138 154 -140 q 171 -135 168 -136 l 186 -182 q 154 -196 178 -186 q 83 -206 131 -206 z "},"ĩ":{"ha":275,"x_min":-6,"x_max":385,"o":"m -6 0 l 92 688 l 281 688 l 183 0 l -6 0 m 264 763 q 224 772 242 763 q 188 792 206 781 q 158 807 174 800 q 126 814 143 814 q 97 800 108 814 q 81 764 85 786 l 28 764 q 67 862 36 825 q 140 899 99 899 q 183 891 164 899 q 218 874 201 883 q 248 858 233 865 q 278 851 263 851 q 310 864 299 851 q 326 894 321 876 l 385 894 q 337 797 375 831 q 264 763 299 763 z "},"ю":{"ha":826,"x_min":-8,"x_max":819,"o":"m 510 -15 q 412 -6 453 -15 q 344 28 371 3 q 310 99 318 53 q 314 222 301 146 l 354 518 q 394 623 364 583 q 478 681 425 663 q 610 699 532 699 q 709 688 668 699 q 776 656 750 678 q 810 601 801 635 q 814 518 819 567 l 772 224 q 724 71 758 122 q 637 2 690 19 q 510 -15 583 -15 m -8 0 l 89 688 l 278 688 l 240 426 l 406 426 l 388 283 l 221 283 l 181 0 l -8 0 m 522 82 q 547 89 538 82 q 563 110 557 96 q 571 143 569 124 l 628 540 q 628 574 631 561 q 619 594 626 588 q 596 600 611 600 q 571 594 581 600 q 556 574 561 588 q 547 540 550 561 l 490 143 q 490 110 489 124 q 499 89 492 96 q 522 82 507 82 z "},"j":{"ha":265,"x_min":-160,"x_max":301,"o":"m -103 -157 q -133 -154 -112 -156 q -160 -151 -154 -153 l -146 -53 q -115 -52 -133 -53 q -86 -50 -96 -51 q -30 -28 -50 -49 q -6 19 -10 -8 l 89 688 l 278 688 l 192 76 q 133 -77 178 -25 q 26 -146 89 -129 q -103 -157 -36 -162 m 204 751 q 139 778 167 751 q 110 842 111 804 q 138 907 110 881 q 206 933 167 933 q 273 907 244 933 q 301 842 301 881 q 273 778 301 804 q 204 751 244 751 z "},"ȷ":{"ha":265,"x_min":-160,"x_max":278,"o":"m -103 -157 q -133 -154 -112 -156 q -160 -151 -154 -153 l -146 -53 q -115 -52 -133 -53 q -86 -50 -96 -51 q -30 -28 -50 -49 q -6 19 -10 -8 l 89 688 l 278 688 l 192 76 q 133 -77 178 -25 q 26 -146 89 -129 q -103 -157 -36 -162 z "},"ј":{"ha":265,"x_min":-160,"x_max":301,"o":"m -103 -157 q -133 -154 -112 -156 q -160 -151 -154 -153 l -146 -53 q -115 -52 -133 -53 q -86 -50 -96 -51 q -30 -28 -50 -49 q -6 19 -10 -8 l 89 688 l 278 688 l 192 76 q 133 -77 178 -25 q 26 -146 89 -129 q -103 -157 -36 -162 m 204 751 q 139 778 167 751 q 110 842 111 804 q 138 907 110 881 q 206 933 167 933 q 273 907 244 933 q 301 842 301 881 q 273 778 301 804 q 204 751 244 751 z "},"k":{"ha":554,"x_min":-4,"x_max":596,"o":"m -4 0 l 118 876 l 307 876 l 185 0 l -4 0 m 293 0 l 244 397 l 410 688 l 596 688 l 422 394 l 497 0 l 293 0 z "},"к":{"ha":564,"x_min":-6,"x_max":604,"o":"m -6 0 l 92 688 l 282 688 l 251 476 q 356 593 297 544 q 479 666 415 642 q 604 682 543 690 l 586 558 q 528 538 554 553 q 481 504 501 522 q 458 482 468 494 q 439 457 447 469 l 506 0 l 288 0 l 242 247 q 227 228 233 239 q 214 208 221 217 l 185 0 l -6 0 z "},"ķ":{"ha":554,"x_min":-4,"x_max":596,"o":"m -4 0 l 118 876 l 307 876 l 185 0 l -4 0 m 293 0 l 244 397 l 410 688 l 596 688 l 422 394 l 497 0 l 293 0 m 111 -281 q 155 -222 139 -247 q 171 -181 171 -196 q 163 -162 172 -169 q 146 -143 154 -154 q 140 -112 138 -132 q 166 -71 142 -90 q 225 -51 190 -51 q 281 -71 261 -51 q 299 -121 301 -90 q 278 -170 296 -140 q 235 -229 260 -200 q 188 -281 211 -258 l 111 -281 z "},"ќ":{"ha":564,"x_min":-6,"x_max":604,"o":"m -6 0 l 92 688 l 282 688 l 251 476 q 356 593 297 544 q 479 666 415 642 q 604 682 543 690 l 586 558 q 528 538 554 553 q 481 504 501 522 q 458 482 468 494 q 439 457 447 469 l 506 0 l 288 0 l 242 247 q 227 228 233 239 q 214 208 221 217 l 185 0 l -6 0 m 279 763 l 369 906 l 549 906 l 397 763 l 279 763 z "},"l":{"ha":276,"x_min":-4,"x_max":307,"o":"m -4 0 l 118 876 l 307 876 l 185 0 l -4 0 z "},"ĺ":{"ha":276,"x_min":-4,"x_max":411,"o":"m -4 0 l 118 876 l 307 876 l 185 0 l -4 0 m 114 936 l 240 1072 l 410 1072 l 218 936 l 114 936 z "},"ľ":{"ha":406,"x_min":-4,"x_max":497,"o":"m -4 0 l 118 876 l 307 876 l 185 0 l -4 0 m 319 697 l 385 911 l 497 911 l 385 697 l 319 697 z "},"ļ":{"ha":276,"x_min":-32,"x_max":307,"o":"m -4 0 l 118 876 l 307 876 l 185 0 l -4 0 m -33 -281 q 10 -222 -6 -247 q 26 -181 26 -196 q 19 -162 28 -169 q 1 -143 10 -154 q -4 -112 -7 -132 q 22 -71 -3 -90 q 81 -51 46 -51 q 137 -71 117 -51 q 154 -121 157 -90 q 133 -170 151 -140 q 91 -229 115 -200 q 43 -281 67 -258 l -33 -281 z "},"←":{"ha":1111,"x_min":46,"x_max":1065,"o":"m 454 18 l 46 344 l 456 674 l 546 582 l 372 424 l 1065 417 l 1064 268 l 375 271 l 546 110 l 454 18 z "},"↔":{"ha":1425,"x_min":44,"x_max":1378,"o":"m 454 92 l 44 418 l 454 747 l 546 656 l 371 496 l 1051 496 l 876 656 l 968 747 l 1378 418 l 968 92 l 876 183 l 1046 342 l 378 342 l 546 183 l 454 92 z "},"<":{"ha":436,"x_min":40,"x_max":428,"o":"m 349 174 l 40 406 l 56 507 l 428 740 l 404 571 l 203 454 l 371 339 l 349 174 z "},"≤":{"ha":433,"x_min":17,"x_max":449,"o":"m 368 174 l 61 407 l 74 508 l 449 740 l 425 576 l 224 460 l 393 343 l 368 174 m 350 -6 l 17 -6 l 32 119 l 365 119 l 350 -6 z "},"љ":{"ha":890,"x_min":-32,"x_max":868,"o":"m -32 0 l -19 97 q 17 112 -1 97 q 51 151 36 126 q 72 203 65 175 l 183 688 l 639 688 l 608 472 l 724 472 q 799 460 765 472 q 851 413 833 447 q 858 313 868 379 l 846 225 q 817 105 836 150 q 769 38 797 60 q 706 8 742 15 q 629 0 671 0 l 350 0 l 428 554 l 354 554 l 258 154 q 245 103 253 131 q 222 53 238 76 q 175 15 206 29 q 92 0 144 0 l -32 0 m 556 97 l 599 97 q 626 104 617 97 q 641 125 636 111 q 649 160 646 139 l 665 285 q 669 326 669 310 q 662 349 669 342 q 635 357 654 357 l 593 357 l 556 97 z "},"¬":{"ha":775,"x_min":63,"x_max":758,"o":"m 579 156 l 617 429 l 63 429 l 82 567 l 758 567 l 700 156 l 579 156 z "},"ſ":{"ha":410,"x_min":-110,"x_max":511,"o":"m 8 -199 q -51 -198 -21 -200 q -110 -190 -82 -196 l -97 -96 l -50 -96 q -28 -92 -39 -96 q -6 -83 -17 -89 q 17 -66 8 -78 q 29 -40 26 -54 l 106 501 l 49 501 l 64 611 l 122 611 l 138 718 q 181 824 147 790 q 267 867 215 858 q 378 876 318 876 q 448 870 414 876 q 511 857 482 864 l 481 750 q 428 763 453 760 q 376 767 404 767 q 338 741 350 767 q 324 692 326 715 l 231 35 q 187 -97 218 -47 q 109 -169 156 -146 q 8 -199 63 -193 z "},"◊":{"ha":679,"x_min":46,"x_max":635,"o":"m 279 -47 l 46 406 l 279 857 l 401 857 l 635 406 l 401 -47 l 279 -47 m 340 129 l 472 410 l 343 683 l 210 404 l 340 129 z "},"ł":{"ha":411,"x_min":-7,"x_max":381,"o":"m 49 0 l 79 224 l -7 188 l 4 267 l 92 304 l 171 876 l 360 876 l 290 388 l 381 425 l 369 346 l 281 308 l 236 0 l 49 0 z "},"m":{"ha":806,"x_min":-4,"x_max":807,"o":"m -4 0 l 92 688 l 253 688 l 256 600 q 314 670 275 643 q 397 697 353 697 q 491 675 461 697 q 528 610 521 653 q 585 672 547 647 q 665 697 622 697 q 783 652 758 697 q 793 515 807 607 l 721 0 l 532 0 l 604 510 q 604 542 607 529 q 594 559 601 554 q 572 564 586 564 q 547 558 560 564 q 529 542 535 551 l 453 0 l 264 0 l 336 511 q 335 542 339 531 q 324 559 332 554 q 304 564 317 564 q 279 559 290 564 q 261 546 268 554 l 185 0 l -4 0 z "},"¯":{"ha":299,"x_min":61,"x_max":371,"o":"m 61 775 l 74 869 l 372 869 l 360 775 l 61 775 z "},"̄":{"ha":0,"x_min":61,"x_max":372,"o":"m 61 775 l 74 869 l 372 869 l 360 775 l 61 775 z "},"µ":{"ha":550,"x_min":-15,"x_max":565,"o":"m -15 -179 l 107 688 l 296 688 l 219 142 q 234 127 224 132 q 258 122 244 122 q 280 127 271 122 q 296 144 289 132 q 306 178 303 157 l 376 688 l 565 688 l 493 172 q 466 72 485 113 q 411 10 447 31 q 314 -10 375 -10 q 238 17 269 -10 q 197 88 206 43 l 146 -179 l -15 -179 z "},"−":{"ha":792,"x_min":85,"x_max":608,"o":"m 85 296 l 101 424 l 608 424 l 592 296 l 85 296 z "},"×":{"ha":557,"x_min":26,"x_max":531,"o":"m 390 129 l 267 272 l 104 133 l 26 222 l 190 363 l 65 506 l 168 596 l 290 453 l 454 596 l 531 506 l 369 363 l 490 218 l 390 129 z "},"n":{"ha":538,"x_min":-4,"x_max":533,"o":"m -4 0 l 92 688 l 251 688 l 256 600 q 314 671 275 644 q 397 697 353 697 q 474 685 444 697 q 516 649 503 672 q 531 592 529 625 q 526 515 533 558 l 454 0 l 265 0 l 336 507 q 339 530 339 519 q 336 548 339 540 q 326 560 333 556 q 304 564 318 564 q 286 561 294 564 q 272 554 278 558 q 261 546 265 550 l 185 0 l -4 0 z "},"ń":{"ha":538,"x_min":-4,"x_max":533,"o":"m -4 0 l 92 688 l 251 688 l 256 600 q 314 671 275 644 q 397 697 353 697 q 474 685 444 697 q 516 649 503 672 q 531 592 529 625 q 526 515 533 558 l 454 0 l 265 0 l 336 507 q 339 530 339 519 q 336 548 339 540 q 326 560 333 556 q 304 564 318 564 q 286 561 294 564 q 272 554 278 558 q 261 546 265 550 l 185 0 l -4 0 m 247 763 l 338 906 l 517 906 l 365 763 l 247 763 z "},"ň":{"ha":538,"x_min":-4,"x_max":542,"o":"m -4 0 l 92 688 l 251 688 l 256 600 q 314 671 275 644 q 397 697 353 697 q 474 685 444 697 q 516 649 503 672 q 531 592 529 625 q 526 515 533 558 l 454 0 l 265 0 l 336 507 q 339 530 339 519 q 336 548 339 540 q 326 560 333 556 q 304 564 318 564 q 286 561 294 564 q 272 554 278 558 q 261 546 265 550 l 185 0 l -4 0 m 282 757 l 168 911 l 282 911 l 344 840 l 432 911 l 542 911 l 385 757 l 282 757 z "},"ņ":{"ha":538,"x_min":-4,"x_max":533,"o":"m -4 0 l 92 688 l 251 688 l 256 600 q 314 671 275 644 q 397 697 353 697 q 474 685 444 697 q 516 649 503 672 q 531 592 529 625 q 526 515 533 558 l 454 0 l 265 0 l 336 507 q 339 530 339 519 q 336 548 339 540 q 326 560 333 556 q 304 564 318 564 q 286 561 294 564 q 272 554 278 558 q 261 546 265 550 l 185 0 l -4 0 m 103 -281 q 147 -222 131 -247 q 163 -181 163 -196 q 155 -162 164 -169 q 138 -143 146 -154 q 132 -112 129 -132 q 158 -71 133 -90 q 217 -51 182 -51 q 273 -71 253 -51 q 290 -121 293 -90 q 269 -170 288 -140 q 227 -229 251 -200 q 179 -281 203 -258 l 103 -281 z "},"њ":{"ha":800,"x_min":-8,"x_max":778,"o":"m -8 0 l 89 688 l 278 688 l 240 426 l 325 426 l 363 688 l 550 688 l 519 472 l 635 472 q 709 460 675 472 q 760 413 743 447 q 768 313 778 379 l 757 225 q 726 105 746 150 q 679 38 707 60 q 617 8 651 15 q 539 0 582 0 l 265 0 l 307 283 l 221 283 l 181 0 l -8 0 m 465 97 l 508 97 q 536 104 526 97 q 551 125 546 111 q 558 160 556 139 l 576 285 q 580 326 581 310 q 572 349 579 342 q 546 357 565 357 l 503 357 l 465 97 z "},"↗":{"ha":788,"x_min":-6,"x_max":771,"o":"m 101 76 l -6 183 l 485 668 l 250 663 l 250 792 l 771 850 l 713 328 l 583 328 l 596 564 l 101 76 z "},"↖":{"ha":835,"x_min":58,"x_max":831,"o":"m 724 46 l 239 536 l 246 301 l 117 301 l 58 821 l 581 764 l 581 635 l 344 646 l 831 151 l 724 46 z "},"≠":{"ha":586,"x_min":-6,"x_max":593,"o":"m -6 -29 l 136 176 l 71 176 l 88 303 l 222 303 l 325 454 l 108 454 l 128 581 l 414 581 l 511 725 l 593 725 l 494 581 l 571 581 l 551 454 l 407 454 l 303 303 l 531 303 l 514 176 l 217 176 l 75 -29 l -6 -29 z "},"ñ":{"ha":538,"x_min":-4,"x_max":533,"o":"m -4 0 l 92 688 l 251 688 l 256 600 q 314 671 275 644 q 397 697 353 697 q 474 685 444 697 q 516 649 503 672 q 531 592 529 625 q 526 515 533 558 l 454 0 l 265 0 l 336 507 q 339 530 339 519 q 336 548 339 540 q 326 560 333 556 q 304 564 318 564 q 286 561 294 564 q 272 554 278 558 q 261 546 265 550 l 185 0 l -4 0 m 400 763 q 360 772 378 763 q 324 792 342 781 q 294 807 310 800 q 263 814 279 814 q 233 800 244 814 q 217 764 221 786 l 164 764 q 203 862 172 825 q 276 899 235 899 q 319 891 300 899 q 354 874 338 883 q 384 858 369 865 q 414 851 399 851 q 446 864 435 851 q 463 894 457 876 l 521 894 q 473 797 511 831 q 400 763 435 763 z "},"#":{"ha":1014,"x_min":40,"x_max":974,"o":"m 174 0 l 247 233 l 40 233 l 76 349 l 283 349 l 332 501 l 121 503 l 158 618 l 369 618 l 425 797 l 546 797 l 489 618 l 654 618 l 711 797 l 832 797 l 775 618 l 974 618 l 938 501 l 739 501 l 690 349 l 892 349 l 856 232 l 654 232 l 582 0 l 460 0 l 533 232 l 368 233 l 294 0 l 174 0 m 404 349 l 569 349 l 618 501 l 451 501 l 404 349 z "},"o":{"ha":526,"x_min":7,"x_max":522,"o":"m 214 -11 q 116 -1 157 -11 q 49 33 75 8 q 15 104 24 57 q 17 226 7 151 l 57 506 q 98 619 67 576 q 183 680 129 661 q 314 699 236 699 q 413 688 372 699 q 480 655 454 678 q 514 595 506 632 q 515 506 522 558 l 476 228 q 428 76 463 126 q 341 7 394 25 q 214 -11 288 -11 m 229 100 q 254 106 244 100 q 270 126 264 113 q 278 160 276 140 l 329 529 q 331 562 333 549 q 321 582 329 575 q 297 589 313 589 q 272 582 282 589 q 257 562 263 575 q 249 529 251 549 l 197 160 q 196 126 194 140 q 206 106 197 113 q 229 100 214 100 z "},"о":{"ha":526,"x_min":7,"x_max":522,"o":"m 214 -11 q 116 -1 157 -11 q 49 33 75 8 q 15 104 24 57 q 17 226 7 151 l 57 506 q 98 619 67 576 q 183 680 129 661 q 314 699 236 699 q 413 688 372 699 q 480 655 454 678 q 514 595 506 632 q 515 506 522 558 l 476 228 q 428 76 463 126 q 341 7 394 25 q 214 -11 288 -11 m 229 100 q 254 106 244 100 q 270 126 264 113 q 278 160 276 140 l 329 529 q 331 562 333 549 q 321 582 329 575 q 297 589 313 589 q 272 582 282 589 q 257 562 263 575 q 249 529 251 549 l 197 160 q 196 126 194 140 q 206 106 197 113 q 229 100 214 100 z "},"ó":{"ha":526,"x_min":7,"x_max":522,"o":"m 214 -11 q 116 -1 157 -11 q 49 33 75 8 q 15 104 24 57 q 17 226 7 151 l 57 506 q 98 619 67 576 q 183 680 129 661 q 314 699 236 699 q 413 688 372 699 q 480 655 454 678 q 514 595 506 632 q 515 506 522 558 l 476 228 q 428 76 463 126 q 341 7 394 25 q 214 -11 288 -11 m 229 100 q 254 106 244 100 q 270 126 264 113 q 278 160 276 140 l 329 529 q 331 562 333 549 q 321 582 329 575 q 297 589 313 589 q 272 582 282 589 q 257 562 263 575 q 249 529 251 549 l 197 160 q 196 126 194 140 q 206 106 197 113 q 229 100 214 100 m 236 763 l 326 906 l 506 906 l 354 763 l 236 763 z "},"ǒ":{"ha":526,"x_min":7,"x_max":531,"o":"m 214 -11 q 116 -1 157 -11 q 49 33 75 8 q 15 104 24 57 q 17 226 7 151 l 57 506 q 98 619 67 576 q 183 680 129 661 q 314 699 236 699 q 413 688 372 699 q 480 655 454 678 q 514 595 506 632 q 515 506 522 558 l 476 228 q 428 76 463 126 q 341 7 394 25 q 214 -11 288 -11 m 229 100 q 254 106 244 100 q 270 126 264 113 q 278 160 276 140 l 329 529 q 331 562 333 549 q 321 582 329 575 q 297 589 313 589 q 272 582 282 589 q 257 562 263 575 q 249 529 251 549 l 197 160 q 196 126 194 140 q 206 106 197 113 q 229 100 214 100 m 271 757 l 157 911 l 271 911 l 333 840 l 421 911 l 531 911 l 374 757 l 271 757 z "},"ô":{"ha":526,"x_min":7,"x_max":522,"o":"m 214 -11 q 116 -1 157 -11 q 49 33 75 8 q 15 104 24 57 q 17 226 7 151 l 57 506 q 98 619 67 576 q 183 680 129 661 q 314 699 236 699 q 413 688 372 699 q 480 655 454 678 q 514 595 506 632 q 515 506 522 558 l 476 228 q 428 76 463 126 q 341 7 394 25 q 214 -11 288 -11 m 229 100 q 254 106 244 100 q 270 126 264 113 q 278 160 276 140 l 329 529 q 331 562 333 549 q 321 582 329 575 q 297 589 313 589 q 272 582 282 589 q 257 562 263 575 q 249 529 251 549 l 197 160 q 196 126 194 140 q 206 106 197 113 q 229 100 214 100 m 135 757 l 290 911 l 393 911 l 508 757 l 397 757 l 332 832 l 247 757 l 135 757 z "},"ố":{"ha":526,"x_min":7,"x_max":769,"o":"m 214 -11 q 116 -1 157 -11 q 49 33 75 8 q 15 104 24 57 q 17 226 7 151 l 57 506 q 98 619 67 576 q 183 680 129 661 q 314 699 236 699 q 413 688 372 699 q 480 655 454 678 q 514 595 506 632 q 515 506 522 558 l 476 228 q 428 76 463 126 q 341 7 394 25 q 214 -11 288 -11 m 229 100 q 254 106 244 100 q 270 126 264 113 q 278 160 276 140 l 329 529 q 331 562 333 549 q 321 582 329 575 q 297 589 313 589 q 272 582 282 589 q 257 562 263 575 q 249 529 251 549 l 197 160 q 196 126 194 140 q 206 106 197 113 q 229 100 214 100 m 135 757 l 290 911 l 393 911 l 508 757 l 397 757 l 332 832 l 247 757 l 135 757 m 501 849 l 592 992 l 771 992 l 619 849 l 501 849 z "},"ộ":{"ha":526,"x_min":7,"x_max":522,"o":"m 214 -11 q 116 -1 157 -11 q 49 33 75 8 q 15 104 24 57 q 17 226 7 151 l 57 506 q 98 619 67 576 q 183 680 129 661 q 314 699 236 699 q 413 688 372 699 q 480 655 454 678 q 514 595 506 632 q 515 506 522 558 l 476 228 q 428 76 463 126 q 341 7 394 25 q 214 -11 288 -11 m 229 100 q 254 106 244 100 q 270 126 264 113 q 278 160 276 140 l 329 529 q 331 562 333 549 q 321 582 329 575 q 297 589 313 589 q 272 582 282 589 q 257 562 263 575 q 249 529 251 549 l 197 160 q 196 126 194 140 q 206 106 197 113 q 229 100 214 100 m 197 -192 q 144 -171 165 -192 q 122 -119 122 -150 q 144 -69 122 -89 q 197 -49 165 -49 q 250 -69 229 -49 q 271 -119 271 -89 q 250 -171 271 -150 q 197 -192 229 -192 m 135 757 l 290 911 l 393 911 l 508 757 l 397 757 l 332 832 l 247 757 l 135 757 z "},"ồ":{"ha":526,"x_min":7,"x_max":661,"o":"m 214 -11 q 116 -1 157 -11 q 49 33 75 8 q 15 104 24 57 q 17 226 7 151 l 57 506 q 98 619 67 576 q 183 680 129 661 q 314 699 236 699 q 413 688 372 699 q 480 655 454 678 q 514 595 506 632 q 515 506 522 558 l 476 228 q 428 76 463 126 q 341 7 394 25 q 214 -11 288 -11 m 229 100 q 254 106 244 100 q 270 126 264 113 q 278 160 276 140 l 329 529 q 331 562 333 549 q 321 582 329 575 q 297 589 313 589 q 272 582 282 589 q 257 562 263 575 q 249 529 251 549 l 197 160 q 196 126 194 140 q 206 106 197 113 q 229 100 214 100 m 135 757 l 290 911 l 393 911 l 508 757 l 397 757 l 332 832 l 247 757 l 135 757 m 542 849 l 421 992 l 599 992 l 660 849 l 542 849 z "},"ổ":{"ha":526,"x_min":7,"x_max":710,"o":"m 214 -11 q 116 -1 157 -11 q 49 33 75 8 q 15 104 24 57 q 17 226 7 151 l 57 506 q 98 619 67 576 q 183 680 129 661 q 314 699 236 699 q 413 688 372 699 q 480 655 454 678 q 514 595 506 632 q 515 506 522 558 l 476 228 q 428 76 463 126 q 341 7 394 25 q 214 -11 288 -11 m 229 100 q 254 106 244 100 q 270 126 264 113 q 278 160 276 140 l 329 529 q 331 562 333 549 q 321 582 329 575 q 297 589 313 589 q 272 582 282 589 q 257 562 263 575 q 249 529 251 549 l 197 160 q 196 126 194 140 q 206 106 197 113 q 229 100 214 100 m 135 757 l 290 911 l 393 911 l 508 757 l 397 757 l 332 832 l 247 757 l 135 757 m 529 832 l 533 865 q 550 894 536 886 q 577 910 564 903 q 593 933 590 917 l 596 949 q 595 967 599 960 q 581 975 592 975 q 557 946 563 975 l 475 958 q 514 1021 483 1000 q 597 1042 544 1042 q 683 1016 656 1042 q 701 943 710 990 l 700 938 q 684 896 694 907 q 663 881 674 885 q 643 874 651 878 q 632 856 635 871 l 629 832 l 529 832 z "}}}
